<?xml version="1.0" standalone="no"?>
<!DOCTYPE svg PUBLIC "-//W3C//DTD SVG 20010904//EN"
 "http://www.w3.org/TR/2001/REC-SVG-20010904/DTD/svg10.dtd">
<svg version="1.0" xmlns="http://www.w3.org/2000/svg"
 width="2333.000000pt" height="2333.000000pt" viewBox="0 0 2333.000000 2333.000000"
 preserveAspectRatio="xMidYMid meet">
<metadata>
Created by potrace 1.16, written by Peter Selinger 2001-2019
</metadata>
<g transform="translate(0.000000,2333.000000) scale(0.100000,-0.100000)"
fill="#000000" stroke="none">
<path d="M9880 19236 c-3 -2 -66 -10 -140 -17 -74 -6 -148 -18 -163 -26 -15
-8 -51 -16 -80 -19 -29 -3 -88 -17 -132 -30 -193 -59 -253 -78 -295 -95 -25
-9 -66 -25 -92 -34 -26 -9 -50 -21 -53 -26 -4 -5 -14 -9 -23 -9 -9 0 -30 -7
-46 -15 -15 -8 -33 -15 -38 -15 -13 0 -277 -120 -308 -140 -211 -137 -201
-129 -507 -409 -45 -41 -90 -79 -100 -85 -10 -5 -46 -33 -80 -60 -85 -69 -124
-100 -137 -106 -6 -3 -64 -41 -130 -85 -187 -127 -361 -235 -376 -235 -5 0
-13 -6 -17 -13 -4 -8 -39 -31 -78 -53 -38 -21 -94 -55 -124 -76 -30 -21 -60
-38 -66 -38 -7 0 -20 -9 -30 -20 -10 -11 -23 -20 -30 -20 -6 0 -43 -22 -82
-49 -39 -27 -127 -77 -195 -111 -228 -116 -301 -167 -453 -311 -77 -74 -180
-178 -230 -231 -49 -54 -142 -150 -206 -215 -63 -65 -120 -126 -125 -135 -5
-10 -46 -57 -91 -105 -95 -102 -268 -301 -398 -457 -80 -97 -159 -188 -220
-253 -73 -79 -332 -331 -390 -379 -128 -108 -219 -179 -280 -219 -33 -22 -68
-48 -79 -57 -11 -10 -25 -18 -31 -18 -7 0 -20 -9 -30 -20 -18 -20 -163 -109
-233 -143 -20 -10 -44 -22 -52 -27 -8 -5 -55 -30 -105 -55 -49 -26 -104 -58
-122 -71 -17 -13 -36 -24 -41 -24 -19 0 -199 -187 -215 -225 -10 -22 -26 -53
-35 -70 -13 -23 -17 -55 -17 -145 0 -99 3 -120 21 -150 11 -20 24 -49 28 -65
11 -42 240 -262 374 -359 28 -21 52 -45 52 -54 0 -15 -170 -173 -220 -204 -11
-7 -25 -26 -30 -43 -5 -16 -16 -50 -25 -73 -9 -25 -16 -78 -17 -123 0 -70 2
-84 26 -117 28 -40 126 -132 204 -192 26 -20 61 -48 77 -64 25 -23 215 -174
361 -286 18 -14 52 -40 76 -59 70 -54 123 -74 197 -72 88 2 139 28 229 118 40
40 77 73 81 73 9 0 61 53 131 135 117 137 122 142 175 159 29 9 61 16 71 16
31 0 122 -35 144 -55 11 -10 29 -23 39 -29 10 -6 54 -38 96 -71 43 -33 87 -66
99 -74 12 -8 32 -25 46 -37 14 -12 46 -37 72 -56 25 -18 106 -76 180 -128 73
-53 167 -118 208 -144 41 -27 84 -55 95 -62 100 -70 276 -178 390 -238 44 -24
106 -57 137 -74 85 -46 99 -53 238 -112 73 -31 91 -40 128 -60 32 -17 211 -80
230 -80 10 0 23 -5 30 -12 12 -12 40 -21 190 -60 77 -20 87 -25 118 -66 22
-29 34 -56 34 -76 0 -40 -43 -104 -100 -149 -63 -50 -265 -187 -275 -187 -5 0
-25 -11 -44 -24 -44 -30 -138 -55 -226 -61 -36 -2 -69 -7 -75 -10 -16 -10 -12
-42 6 -49 9 -3 127 -6 264 -6 187 0 250 -3 258 -13 8 -9 5 -28 -8 -67 -11 -30
-19 -65 -20 -76 0 -12 -6 -37 -14 -56 -8 -19 -20 -66 -27 -104 -6 -38 -17 -78
-24 -89 -7 -11 -18 -47 -24 -80 -7 -33 -18 -80 -26 -105 -8 -25 -21 -72 -30
-105 -45 -160 -115 -352 -176 -479 -98 -207 -270 -412 -609 -727 -47 -43 -121
-113 -165 -154 -104 -98 -136 -110 -324 -119 -91 -5 -166 -14 -205 -26 -34
-10 -86 -23 -116 -30 -30 -6 -68 -18 -85 -25 -16 -8 -65 -28 -109 -45 -43 -18
-104 -46 -135 -62 -31 -17 -65 -36 -76 -42 -11 -6 -60 -38 -108 -71 -48 -33
-95 -64 -104 -70 -16 -10 -56 -41 -208 -163 -161 -130 -492 -476 -592 -619
-17 -25 -42 -57 -56 -72 -26 -26 -168 -235 -222 -325 -17 -27 -38 -60 -47 -75
-63 -97 -256 -474 -299 -584 -11 -29 -33 -79 -49 -112 -15 -34 -35 -84 -43
-112 -9 -28 -22 -62 -30 -75 -9 -12 -19 -41 -23 -63 -4 -22 -17 -64 -30 -94
-13 -29 -24 -62 -24 -72 0 -11 -9 -36 -20 -56 -11 -21 -20 -45 -20 -54 0 -9
-11 -47 -25 -83 -14 -37 -25 -76 -25 -87 0 -11 -9 -40 -20 -63 -11 -24 -22
-63 -25 -87 -3 -24 -17 -84 -30 -134 -53 -202 -65 -254 -80 -349 -9 -55 -18
-104 -21 -108 -3 -5 -10 -46 -14 -91 -5 -45 -18 -131 -29 -192 -12 -60 -21
-135 -21 -165 0 -30 -9 -120 -21 -200 -17 -118 -22 -215 -26 -525 -7 -536 9
-789 87 -1331 24 -169 23 -174 -63 -260 -34 -34 -75 -78 -92 -98 -47 -55 -129
-105 -202 -122 -73 -17 -84 -13 -153 52 -124 117 -219 170 -360 198 -126 25
-157 27 -410 30 l-245 2 -80 32 c-44 17 -116 55 -160 84 -103 68 -107 85 -36
165 48 54 51 60 51 111 0 54 -18 97 -60 147 -16 18 -60 176 -75 270 -4 22 -13
54 -20 70 -7 17 -25 57 -40 90 -33 76 -90 127 -284 250 -26 17 -81 55 -122 86
-41 30 -88 64 -106 75 -18 10 -56 35 -85 55 -29 20 -72 47 -95 60 -23 13 -96
61 -162 106 -123 84 -172 113 -191 113 -7 0 -10 -624 -10 -2045 l0 -2045
11665 0 11665 0 0 325 c0 376 13 339 -122 356 -46 5 -99 14 -118 20 -19 5 -79
14 -132 19 -53 5 -121 16 -150 24 -29 8 -96 20 -150 26 -53 5 -129 17 -170 25
-40 9 -109 20 -153 25 -44 5 -118 16 -165 24 -47 7 -128 19 -180 26 -52 6
-108 16 -125 21 -16 5 -73 14 -125 19 -52 6 -137 19 -187 30 -51 11 -114 20
-140 20 -27 0 -77 7 -113 15 -36 8 -123 22 -195 30 -71 8 -148 19 -170 24 -22
5 -96 15 -165 21 -69 6 -186 19 -260 30 -74 10 -180 22 -235 25 -55 3 -154 12
-220 20 -177 20 -353 27 -925 34 -362 5 -526 11 -553 20 -68 22 -78 103 -15
115 43 8 158 56 228 95 30 17 66 36 80 41 14 6 34 19 45 28 11 9 31 23 45 31
114 64 390 317 519 476 31 39 72 85 91 102 47 44 201 176 275 237 74 61 238
225 287 286 20 25 49 66 64 91 16 26 53 81 82 123 28 42 52 79 52 81 0 3 20
33 43 68 24 34 63 96 87 137 24 41 54 88 67 103 12 16 23 34 23 40 0 7 21 43
45 81 25 38 45 75 45 81 0 7 7 18 16 26 8 7 31 44 50 82 18 37 42 80 53 95 10
15 47 81 81 147 145 279 133 254 208 460 21 61 47 127 56 147 9 21 16 44 16
53 0 9 11 42 25 74 13 33 27 77 31 100 4 22 13 46 20 52 8 6 14 19 14 28 0 9
13 60 30 111 16 52 30 106 30 120 1 14 8 43 16 65 9 22 20 63 25 90 14 71 44
128 117 225 74 99 84 117 110 196 31 96 52 192 67 314 14 109 24 163 61 305 8
33 21 99 29 146 8 48 19 98 24 112 6 14 17 97 26 184 9 87 23 190 30 230 8 40
15 105 15 145 0 40 7 111 15 158 8 47 21 155 30 240 9 85 20 169 25 185 5 17
14 104 20 195 6 91 15 212 22 270 15 141 15 674 -1 885 -25 350 -51 598 -82
790 -12 72 -25 162 -28 200 -4 39 -15 93 -24 120 -9 28 -21 86 -26 130 -5 44
-17 97 -25 117 -9 21 -16 51 -16 67 0 17 -9 54 -20 82 -12 29 -27 80 -35 113
-7 34 -18 75 -24 91 -6 17 -29 88 -51 159 -22 70 -55 167 -74 215 -19 47 -38
100 -42 116 -4 17 -15 46 -25 65 -10 19 -41 89 -70 155 -53 123 -220 459 -286
575 -20 36 -53 95 -72 131 -20 36 -52 90 -71 120 -20 30 -41 65 -48 79 -7 14
-25 44 -40 66 -15 23 -45 69 -67 103 -22 34 -56 84 -76 110 -20 26 -43 61 -52
77 -8 16 -33 50 -56 76 -23 25 -41 50 -41 55 0 9 -94 126 -203 251 -39 46 -75
90 -80 97 -21 38 -414 421 -508 495 -17 14 -39 32 -48 40 -59 53 -134 112
-186 148 -33 23 -80 56 -105 74 -109 77 -226 151 -335 210 -100 54 -382 191
-454 220 -41 17 -82 34 -90 39 -9 5 -72 27 -141 50 -69 23 -129 44 -135 48
-11 6 -102 31 -205 57 -36 8 -72 19 -81 24 -9 5 -45 14 -80 21 -35 6 -89 18
-119 26 -30 7 -110 22 -177 32 -67 11 -127 22 -133 26 -21 13 -425 40 -585 39
-186 0 -586 -28 -612 -42 -10 -6 -57 -15 -104 -20 -47 -6 -110 -20 -140 -31
-30 -12 -69 -21 -86 -21 -18 0 -62 -11 -99 -25 -36 -14 -81 -25 -99 -25 -18 0
-38 -6 -44 -14 -7 -8 -27 -18 -44 -22 -33 -7 -190 -64 -242 -88 -16 -8 -86
-40 -155 -71 -69 -32 -132 -63 -140 -70 -8 -7 -31 -18 -50 -24 -19 -6 -48 -20
-65 -31 -16 -12 -43 -28 -60 -36 -47 -23 -73 -39 -96 -59 -35 -33 -77 -21
-134 37 -68 69 -85 97 -85 139 0 55 47 116 237 309 95 96 173 177 173 181 0 4
6 14 13 21 12 13 46 61 100 144 15 22 27 46 27 54 0 7 15 36 33 64 19 28 39
69 45 91 5 22 15 54 20 70 59 177 65 250 59 835 -3 407 -7 517 -19 565 -9 33
-19 84 -22 114 -4 30 -16 74 -27 97 -10 24 -19 47 -19 53 0 5 -16 42 -37 81
-45 90 -167 217 -276 288 -93 61 -144 100 -218 166 -88 80 -103 94 -119 113
-8 10 -43 50 -77 90 -34 39 -74 93 -89 120 -15 26 -41 71 -59 98 -33 52 -74
136 -95 195 -7 19 -34 96 -60 170 -66 188 -84 224 -157 315 -91 114 -223 231
-388 345 -80 55 -270 160 -290 160 -7 0 -32 11 -56 23 -24 13 -69 30 -99 37
-30 7 -67 19 -82 26 -15 8 -42 14 -60 14 -18 0 -78 9 -133 20 -151 30 -334 34
-819 20 -385 -11 -475 -10 -709 3 -150 9 -274 21 -281 26 -7 6 -51 16 -97 22
-46 5 -95 15 -109 21 -38 16 -185 57 -276 78 -45 10 -90 23 -101 29 -11 6 -67
16 -124 22 -111 12 -550 24 -559 15z m-1292 -1838 c21 -15 46 -48 69 -92 29
-57 34 -75 28 -105 -13 -64 -9 -155 9 -189 24 -46 63 -62 182 -72 58 -5 131
-16 162 -24 31 -8 84 -22 117 -30 70 -17 173 -55 229 -83 48 -25 140 -115 160
-157 8 -18 24 -40 36 -51 11 -10 20 -23 20 -29 0 -6 16 -31 35 -55 19 -24 35
-49 35 -55 0 -22 -25 -45 -83 -75 -31 -17 -67 -37 -79 -46 -13 -8 -30 -15 -39
-15 -9 0 -24 -9 -34 -20 -10 -11 -25 -20 -34 -20 -25 -1 -51 -25 -51 -47 0
-11 11 -30 25 -43 36 -34 75 -125 75 -174 -1 -56 -29 -114 -78 -158 -78 -70
-100 -110 -107 -196 -18 -209 -85 -411 -216 -646 -34 -61 -72 -129 -84 -151
-13 -22 -41 -72 -64 -111 -22 -39 -46 -86 -52 -105 -7 -19 -18 -41 -25 -49 -7
-8 -20 -50 -28 -94 -9 -43 -23 -93 -30 -111 -8 -17 -17 -52 -21 -76 -4 -24
-12 -53 -18 -64 -6 -11 -16 -42 -23 -70 -42 -160 -149 -419 -221 -532 -86
-135 -110 -194 -127 -309 -17 -119 -14 -415 5 -526 8 -48 6 -69 -11 -135 -12
-43 -25 -101 -30 -130 -4 -29 -14 -69 -21 -90 -6 -21 -20 -71 -30 -113 -24
-100 -48 -192 -70 -267 -11 -34 -19 -74 -19 -88 0 -14 -9 -54 -21 -88 -12 -34
-25 -84 -29 -112 -14 -79 -35 -146 -51 -156 -8 -5 -44 -9 -80 -9 -87 0 -99 12
-77 78 9 26 19 74 22 107 14 159 -54 189 -346 156 -105 -12 -124 -12 -184 3
-62 16 -229 95 -284 135 -14 10 -86 56 -160 101 -138 85 -335 209 -380 239
-14 10 -33 20 -43 24 -10 4 -63 36 -117 72 -54 36 -102 65 -106 65 -4 0 -37
20 -73 44 -36 24 -100 65 -141 91 -41 26 -87 56 -102 66 -15 11 -30 19 -33 19
-4 0 -25 13 -48 28 -99 68 -153 102 -160 102 -4 0 -34 17 -65 39 -54 36 -136
89 -212 137 -88 55 -209 132 -314 200 -16 11 -39 26 -52 34 -13 8 -59 37 -103
63 -45 27 -83 53 -87 58 -3 5 -23 17 -45 26 -21 8 -39 18 -39 22 0 4 -21 20
-46 36 -57 36 -94 79 -94 110 0 13 -5 36 -10 51 -12 31 13 235 36 294 7 19 18
70 24 113 7 43 20 104 30 135 10 31 21 80 24 109 4 29 15 71 26 95 11 24 20
53 20 64 0 20 52 135 121 267 83 158 290 379 479 510 106 73 219 147 226 147
3 0 19 10 34 23 16 12 61 46 102 75 176 127 327 242 430 330 40 34 106 90 146
125 40 34 94 79 120 100 26 21 85 74 132 117 76 70 148 134 220 197 14 12 66
53 115 93 50 39 101 80 115 90 36 29 109 78 240 161 101 64 176 102 400 206
147 68 246 124 371 208 75 50 142 95 150 99 8 4 32 18 54 31 84 51 179 91 224
94 8 1 30 -9 49 -21z m-4275 -3850 c20 -13 65 -41 102 -63 36 -22 92 -59 123
-82 31 -24 80 -58 109 -77 60 -41 73 -68 47 -101 -98 -122 -185 -218 -282
-314 -114 -112 -115 -113 -153 -107 -46 7 -99 30 -156 68 -23 16 -48 28 -55
28 -8 0 -78 62 -155 138 -198 193 -205 225 -79 347 94 91 126 119 156 135 14
7 33 20 43 29 26 22 140 38 209 29 31 -4 72 -18 91 -30z m12347 -463 c17 -20
8 -133 -14 -171 -8 -16 -22 -47 -30 -69 -8 -22 -26 -71 -41 -110 -29 -77 -64
-174 -90 -250 -9 -27 -23 -63 -30 -80 -14 -31 -55 -142 -104 -275 -15 -41 -30
-80 -34 -87 -4 -7 -18 -43 -31 -80 -43 -128 -58 -168 -72 -196 -8 -16 -26 -63
-40 -105 -27 -80 -73 -204 -104 -282 -10 -25 -30 -79 -45 -120 -15 -41 -47
-124 -71 -185 -23 -60 -46 -123 -50 -140 -4 -16 -12 -36 -18 -44 -6 -8 -16
-32 -23 -55 -17 -58 -61 -185 -77 -221 -23 -50 -66 -165 -66 -175 0 -13 -108
-290 -125 -322 -8 -14 -15 -35 -15 -45 0 -10 -4 -23 -9 -29 -5 -5 -23 -49 -39
-99 -43 -130 -52 -154 -78 -210 -13 -28 -24 -60 -24 -71 0 -54 -78 -99 -97
-56 -4 9 -6 688 -3 1507 5 1485 5 1490 26 1535 11 25 27 50 35 57 17 13 84 39
154 59 28 7 66 20 85 28 19 8 82 29 140 46 58 18 121 38 140 45 19 8 55 19 80
25 25 6 68 20 95 30 28 10 91 31 140 46 50 14 115 35 145 44 30 10 80 23 110
30 30 7 66 19 80 26 34 18 85 17 100 -1z m650 -89 c69 -31 143 -66 166 -76 23
-11 47 -20 55 -20 8 0 32 -12 54 -25 22 -14 52 -25 67 -25 15 0 30 -4 33 -10
8 -13 86 -49 195 -91 47 -18 92 -38 100 -45 8 -6 26 -15 40 -19 38 -11 70 -34
70 -50 0 -8 -13 -34 -29 -57 -25 -38 -71 -116 -123 -209 -9 -17 -23 -38 -31
-47 -7 -9 -40 -62 -73 -116 -32 -54 -69 -115 -81 -135 -13 -20 -32 -54 -44
-75 -12 -22 -36 -63 -54 -90 -38 -60 -152 -248 -221 -364 -27 -45 -68 -113
-91 -150 -23 -37 -60 -98 -83 -137 -80 -137 -155 -262 -175 -291 -11 -16 -25
-38 -32 -49 -6 -11 -53 -90 -105 -175 -51 -85 -98 -164 -104 -175 -6 -11 -25
-42 -42 -70 -17 -27 -45 -75 -61 -106 -16 -30 -36 -61 -45 -68 -9 -8 -16 -18
-16 -23 0 -5 -13 -28 -29 -51 -15 -23 -41 -66 -57 -96 -16 -30 -34 -61 -39
-70 -18 -28 -47 -74 -94 -146 -25 -38 -60 -95 -77 -125 -41 -68 -68 -114 -97
-162 -12 -20 -46 -79 -76 -130 -30 -51 -78 -130 -108 -175 -29 -45 -53 -85
-53 -88 0 -14 -60 -93 -75 -99 -24 -9 -114 36 -185 93 -159 127 -177 154 -166
258 4 34 15 81 25 105 11 23 22 62 26 85 3 22 15 49 26 59 11 10 19 30 19 48
0 17 9 49 19 71 19 39 66 160 121 315 15 41 40 107 54 145 15 39 34 89 41 112
8 23 20 52 28 65 8 13 18 39 22 58 4 19 11 41 16 50 5 8 18 42 30 75 39 112
65 180 76 200 6 11 16 36 21 55 6 19 22 64 35 100 14 36 33 88 42 115 10 28
28 73 41 101 13 28 24 59 24 68 0 9 7 30 15 45 8 16 25 60 39 97 13 38 36 101
51 139 14 39 29 79 31 90 3 11 14 36 24 55 10 19 21 50 25 69 4 19 18 57 31
85 13 28 24 61 24 72 0 12 9 33 20 47 11 14 20 37 20 51 0 14 7 40 15 58 8 18
31 76 51 128 20 52 42 109 50 125 15 34 46 121 74 210 10 33 31 92 45 130 15
39 34 88 42 110 31 85 67 146 102 174 51 40 56 41 151 37 78 -4 96 -9 210 -60z
m-6866 -336 c40 -32 6 -77 -125 -165 -87 -59 -263 -184 -334 -238 -28 -22 -58
-37 -70 -35 -19 3 -20 10 -23 212 -2 141 1 213 9 222 14 17 83 21 326 19 148
-1 206 -5 217 -15z m4641 -130 c4 -6 6 -643 5 -1417 0 -1060 -4 -1410 -12
-1421 -14 -16 -51 -12 -148 17 -36 11 -96 27 -135 37 -138 33 -155 39 -160 54
-4 8 -10 128 -15 265 -5 138 -14 302 -20 365 -5 63 -15 302 -21 530 -9 366
-20 665 -36 967 -6 135 17 194 115 291 41 40 95 87 120 104 26 18 80 59 120
93 87 71 161 125 173 125 4 0 11 -5 14 -10z m3272 -61 c21 -28 61 -78 89 -112
27 -34 53 -69 57 -77 4 -8 22 -34 39 -57 18 -23 60 -76 93 -118 33 -43 74 -96
90 -119 39 -55 131 -176 175 -230 19 -24 53 -67 75 -96 22 -28 62 -79 89 -113
83 -105 83 -124 4 -182 -44 -32 -103 -80 -183 -150 -27 -24 -67 -56 -87 -72
-45 -34 -214 -177 -248 -210 -14 -13 -54 -47 -90 -75 -86 -67 -193 -160 -203
-175 -4 -7 -13 -13 -18 -13 -10 0 -95 -70 -218 -178 -30 -26 -62 -51 -71 -57
-10 -5 -42 -31 -72 -57 -29 -26 -91 -79 -138 -118 -47 -39 -110 -92 -140 -118
-30 -26 -77 -65 -105 -87 -28 -22 -73 -59 -101 -82 -132 -112 -303 -252 -339
-278 -22 -16 -52 -42 -67 -58 -14 -16 -40 -38 -56 -51 -29 -21 -87 -70 -191
-161 -25 -23 -79 -67 -119 -99 -40 -32 -76 -64 -79 -72 -3 -8 -9 -14 -14 -14
-11 0 -80 -53 -193 -148 -61 -52 -93 -72 -109 -70 -45 6 -29 62 60 199 24 36
43 70 43 74 0 5 10 22 23 39 13 17 38 56 56 86 18 30 55 91 82 135 26 44 56
94 65 110 9 17 32 54 50 83 19 28 49 76 68 105 18 28 48 79 66 112 17 33 47
83 66 110 19 28 40 61 48 75 28 54 106 186 211 355 37 61 80 133 96 160 15 28
47 80 71 116 24 37 56 89 71 115 69 118 88 150 100 168 51 80 97 157 97 162 0
3 13 24 28 47 16 23 46 74 67 112 21 39 46 79 56 90 10 11 39 58 66 105 26 47
65 112 86 145 83 131 151 242 174 285 14 25 56 95 94 156 38 61 69 115 69 121
0 6 7 16 15 23 8 7 29 40 46 74 37 73 85 136 104 136 7 0 31 -23 52 -51z
m-7458 -396 c5 -10 6 -24 1 -33 -4 -8 -13 -49 -19 -91 -7 -42 -21 -105 -31
-140 -11 -35 -20 -80 -20 -99 0 -19 -8 -66 -19 -105 -30 -113 -62 -245 -77
-322 -8 -39 -21 -84 -29 -100 -8 -15 -15 -37 -15 -49 0 -11 -9 -56 -20 -99
-34 -133 -26 -206 32 -302 30 -49 59 -74 128 -110 14 -7 54 -29 90 -48 36 -19
71 -35 77 -35 7 0 36 -11 65 -24 66 -30 211 -76 238 -76 26 0 121 -30 135 -41
5 -5 16 -9 25 -9 24 0 86 -68 109 -120 25 -55 29 -181 7 -199 -15 -13 -88 -6
-241 23 -44 9 -99 15 -122 16 -24 0 -79 7 -123 16 -110 22 -111 22 -108 -120
2 -126 -6 -150 -57 -172 -66 -27 -262 -13 -350 25 -28 12 -218 71 -230 71 -6
0 -23 7 -39 15 -16 9 -46 20 -65 24 -49 12 -189 60 -224 77 -16 8 -38 14 -50
14 -12 0 -34 6 -48 14 -15 7 -51 22 -80 31 -163 53 -244 113 -274 205 -27 82
-17 301 18 394 44 116 114 197 181 210 122 23 277 117 347 210 38 50 109 240
109 292 0 44 70 236 105 289 74 112 211 217 430 331 110 57 129 62 144 37z
m3424 -256 c7 -78 11 -218 21 -622 4 -143 11 -309 16 -370 8 -94 18 -349 34
-890 5 -155 -8 -191 -51 -147 -10 10 -45 36 -78 57 -33 21 -84 54 -113 73 -29
19 -67 55 -84 80 -17 25 -38 52 -45 61 -20 22 -94 123 -151 205 -26 38 -56 81
-67 96 -11 16 -40 57 -64 92 -24 34 -55 76 -68 91 -12 16 -23 35 -23 42 0 8
-8 19 -19 24 -10 6 -28 25 -39 43 -12 18 -35 53 -53 78 -41 57 -59 117 -59
195 0 83 39 160 126 251 37 38 79 85 93 104 25 35 81 97 191 211 85 88 252
268 301 325 58 66 99 96 115 83 6 -5 14 -42 17 -82z m-6306 -487 c110 -71 108
-64 111 -365 3 -237 1 -261 -14 -272 -22 -16 -227 -18 -272 -2 -16 6 -42 27
-56 48 -32 46 -34 93 -5 198 18 65 21 93 15 168 -6 84 -4 95 19 140 33 67 88
125 118 125 12 0 51 -18 84 -40z m11210 -179 c16 -19 75 -155 94 -217 5 -18
16 -37 24 -44 8 -7 15 -23 15 -37 0 -13 8 -40 19 -61 10 -20 35 -80 55 -132
20 -52 43 -108 51 -125 7 -16 17 -41 20 -55 4 -14 17 -47 30 -75 64 -142 80
-236 47 -282 -11 -15 -21 -37 -23 -48 -4 -21 -34 -39 -209 -125 -333 -165
-447 -220 -454 -220 -4 0 -67 -29 -139 -64 -73 -35 -148 -71 -167 -80 -19 -9
-42 -20 -50 -24 -40 -24 -445 -215 -540 -255 -8 -4 -22 -11 -30 -16 -8 -5 -78
-37 -155 -71 -77 -34 -192 -87 -255 -117 -63 -31 -128 -61 -145 -68 -16 -7
-55 -24 -85 -38 -30 -13 -66 -28 -80 -32 -14 -4 -36 -16 -49 -26 -13 -11 -32
-19 -41 -19 -10 0 -23 -7 -30 -15 -7 -8 -19 -15 -27 -15 -9 0 -61 -22 -117
-48 -55 -27 -119 -55 -141 -62 -22 -7 -44 -16 -50 -20 -5 -4 -44 -22 -85 -40
-41 -18 -111 -50 -155 -70 -79 -38 -180 -80 -243 -104 -18 -7 -38 -18 -44 -24
-7 -7 -19 -12 -27 -12 -9 0 -49 -16 -89 -36 -59 -29 -75 -34 -87 -24 -8 7 -15
17 -15 22 0 19 133 193 169 221 19 16 54 45 76 66 22 20 63 54 90 75 28 21 82
66 120 101 39 34 93 79 120 100 28 21 70 56 95 79 25 23 72 64 105 92 33 27
71 59 85 70 14 12 48 40 75 63 28 23 77 64 110 91 33 28 87 73 120 100 195
161 403 335 489 410 54 47 112 95 128 107 17 12 61 49 97 82 37 33 108 93 158
133 50 40 143 118 207 173 65 55 146 123 180 150 86 68 245 199 316 260 104
90 114 98 210 174 52 41 114 92 137 113 48 43 66 47 90 19z m-11532 -681 c22
-11 44 -20 50 -20 5 0 33 -11 60 -25 28 -13 56 -25 62 -25 24 0 150 -70 201
-110 28 -23 54 -51 58 -63 3 -12 16 -32 28 -45 20 -22 21 -35 23 -209 1 -103
-3 -196 -7 -209 -15 -39 -45 -48 -98 -28 -66 25 -237 143 -302 209 -30 31 -67
69 -82 85 -16 15 -28 34 -28 41 0 7 -11 31 -24 53 -71 124 -67 366 7 366 7 0
30 -9 52 -20z m12002 -642 c4 -7 10 -33 14 -58 4 -25 14 -65 22 -90 19 -54 44
-180 62 -315 8 -55 21 -134 29 -175 32 -163 48 -532 43 -960 -3 -223 -8 -414
-10 -425 -3 -11 -6 -54 -6 -96 -1 -98 -12 -114 -77 -110 -27 1 -71 9 -98 17
-28 8 -91 19 -140 24 -50 6 -119 18 -154 26 -34 8 -109 21 -165 29 -56 8 -118
19 -137 25 -19 5 -75 15 -125 20 -49 6 -135 19 -190 30 -183 35 -219 41 -335
56 -63 8 -135 22 -160 29 -25 8 -98 22 -162 30 -65 8 -128 20 -140 25 -13 5
-77 17 -143 25 -66 8 -156 21 -200 30 -44 8 -132 23 -195 34 -137 23 -274 47
-350 61 -125 22 -249 43 -315 51 -38 6 -110 19 -160 30 -49 11 -121 22 -160
25 -86 8 -115 24 -115 64 0 35 16 47 118 90 42 18 145 66 228 106 83 41 153
74 156 74 3 0 91 41 195 91 309 149 385 185 448 214 33 15 147 69 253 121 106
52 201 94 211 94 10 0 26 9 36 20 10 11 24 20 30 20 7 0 75 31 151 70 77 38
143 70 147 70 8 0 98 43 402 190 117 57 293 140 385 182 36 16 72 33 80 37 54
29 164 83 215 106 33 15 105 49 160 76 102 50 138 59 152 37z m-12118 -181
c91 -90 204 -199 251 -242 110 -101 230 -225 230 -237 0 -11 -84 -94 -270
-268 -239 -223 -314 -294 -350 -332 -38 -41 -74 -49 -88 -20 -5 9 -12 69 -16
132 -4 63 -11 174 -17 245 -20 290 -21 379 -6 540 22 218 55 345 90 345 5 0
85 -73 176 -163z m2009 25 c20 -11 118 -47 217 -82 99 -35 189 -69 200 -77 11
-7 26 -13 35 -13 8 0 27 -6 42 -14 14 -8 43 -19 65 -26 34 -10 105 -38 233
-90 25 -11 56 -22 70 -26 14 -3 57 -21 95 -39 39 -18 86 -39 105 -46 49 -19
107 -85 126 -143 14 -41 16 -73 11 -175 -4 -70 -13 -148 -21 -176 -8 -27 -20
-94 -26 -148 -5 -54 -19 -125 -30 -157 -11 -33 -20 -77 -20 -98 0 -21 -9 -68
-19 -103 -11 -35 -22 -77 -26 -92 -3 -16 -17 -40 -30 -53 -14 -14 -25 -29 -25
-33 0 -22 -44 -41 -130 -57 -118 -22 -286 -10 -363 25 -26 12 -59 26 -73 31
-78 30 -246 176 -366 316 -45 53 -50 72 -59 216 -5 77 -14 149 -20 159 -5 10
-22 25 -37 34 -30 16 -53 36 -95 81 -51 56 -71 207 -48 364 6 41 14 102 17
135 4 33 13 72 20 86 7 15 15 42 18 60 13 102 20 135 29 147 14 18 62 15 105
-6z m-2706 -708 c84 -29 169 -77 191 -108 21 -29 22 -40 20 -190 -2 -211 0
-208 -136 -137 -56 30 -176 92 -266 137 -90 46 -172 91 -182 100 -31 28 -23
61 36 134 49 60 61 69 103 78 58 13 178 6 234 -14z m5718 -293 c30 -11 109
-45 175 -76 192 -90 198 -93 232 -100 32 -6 83 -46 83 -64 0 -28 -101 -59
-245 -76 -33 -3 -103 -15 -157 -26 -53 -10 -117 -19 -142 -19 -26 0 -81 -9
-122 -20 -89 -24 -108 -20 -123 22 -22 61 6 263 42 307 7 8 32 27 56 43 54 34
119 37 201 9z m572 -456 c21 -38 42 -209 33 -276 -7 -52 -53 -131 -89 -155
-38 -24 -188 -76 -261 -90 -38 -7 -90 -20 -114 -28 -24 -9 -69 -19 -100 -22
-31 -4 -68 -13 -83 -20 -15 -8 -62 -19 -105 -25 -43 -6 -105 -19 -138 -29 -33
-10 -91 -23 -129 -30 -57 -11 -70 -10 -77 1 -17 28 11 307 36 355 8 16 15 39
15 52 0 62 172 157 321 177 30 4 65 13 79 20 14 7 63 17 110 23 47 6 110 18
140 27 30 8 73 15 95 15 22 0 69 9 105 20 36 10 83 18 105 17 32 -2 42 -7 57
-32z m-6858 -159 c125 -34 134 -53 54 -116 -51 -39 -119 -101 -291 -262 -83
-78 -113 -92 -137 -63 -16 19 4 110 30 140 10 11 21 38 25 60 12 70 92 220
133 251 26 20 86 17 186 -10z m-630 -45 c16 -18 16 -22 2 -50 -9 -16 -16 -37
-16 -46 0 -21 -66 -214 -85 -252 -8 -16 -15 -38 -15 -51 0 -13 -9 -44 -19 -70
-11 -26 -34 -94 -51 -152 -18 -58 -41 -130 -52 -160 -11 -30 -22 -68 -25 -85
-3 -16 -9 -34 -13 -40 -4 -5 -15 -32 -23 -60 -29 -92 -48 -140 -60 -147 -19
-12 -44 -9 -50 5 -5 14 14 113 36 183 9 27 18 76 22 109 4 33 15 93 26 134 10
41 19 89 19 105 0 42 46 238 72 306 34 90 89 212 115 253 20 32 28 37 62 37
25 0 44 -7 55 -19z m10944 -101 c59 -11 152 -27 207 -35 105 -16 215 -36 326
-60 36 -8 117 -21 180 -30 63 -8 129 -19 148 -25 19 -5 68 -12 110 -16 42 -3
96 -13 120 -21 25 -8 81 -19 125 -24 45 -6 122 -19 171 -29 50 -10 122 -22
160 -25 39 -4 90 -13 115 -21 25 -8 95 -21 155 -29 61 -8 146 -20 190 -28 44
-8 112 -20 150 -26 39 -5 131 -22 205 -36 74 -15 187 -33 250 -41 63 -8 135
-20 160 -28 25 -8 90 -20 145 -26 137 -15 244 -42 261 -65 9 -12 12 -32 9 -55
-3 -19 -10 -64 -16 -100 -5 -36 -19 -105 -29 -155 -30 -138 -50 -250 -65 -358
-7 -53 -20 -119 -29 -145 -8 -26 -20 -83 -25 -127 -25 -210 -42 -225 -167
-160 -37 19 -72 35 -78 35 -6 1 -29 9 -51 20 -22 11 -44 19 -49 20 -5 0 -41
14 -80 31 -39 18 -91 41 -116 51 -25 10 -62 28 -82 38 -20 11 -42 20 -48 20
-11 0 -111 41 -185 75 -83 39 -194 85 -203 85 -6 0 -23 6 -39 14 -85 42 -142
66 -154 66 -8 0 -27 7 -44 16 -16 9 -66 29 -110 46 -44 16 -91 36 -103 44 -13
9 -48 24 -78 34 -30 11 -64 26 -76 34 -12 9 -30 16 -39 16 -10 0 -61 20 -116
44 -54 25 -161 70 -238 102 -77 31 -171 70 -210 86 -96 41 -231 97 -285 118
-207 82 -248 100 -408 179 -135 66 -146 75 -304 210 l-109 94 3 70 3 71 65 33
c78 40 123 42 278 13z m-11421 -186 c6 -15 -2 -60 -34 -194 -8 -36 -21 -101
-29 -146 -7 -44 -20 -96 -28 -115 -8 -19 -19 -68 -25 -109 -5 -41 -17 -95 -26
-119 -8 -24 -15 -55 -15 -70 0 -14 -9 -54 -20 -89 -11 -35 -24 -93 -30 -130
-6 -37 -17 -89 -24 -117 -8 -27 -22 -86 -31 -130 -9 -44 -28 -129 -41 -190
-14 -60 -32 -141 -40 -180 -8 -38 -21 -92 -29 -120 -8 -27 -19 -83 -25 -122
-5 -40 -16 -92 -24 -115 -8 -24 -17 -63 -20 -88 -4 -25 -13 -65 -20 -90 -8
-25 -17 -66 -21 -92 -10 -77 -51 -75 -74 4 -7 24 -37 90 -66 148 -80 159 -165
339 -165 351 0 6 -9 22 -20 36 -11 14 -20 32 -20 39 0 7 -18 48 -39 91 -78
157 -101 212 -107 265 -8 70 11 165 36 178 10 5 22 19 25 31 4 12 30 49 59 83
29 33 66 81 83 106 17 25 43 56 57 69 14 14 26 29 26 35 0 10 36 58 158 210
26 33 71 91 100 130 29 39 56 73 60 76 10 6 97 118 137 175 76 108 176 205
212 205 7 0 16 -7 20 -16z m7958 -88 c14 -22 14 -35 -1 -142 -8 -66 -24 -145
-35 -177 -10 -31 -19 -69 -19 -85 0 -15 -19 -61 -42 -102 -40 -70 -48 -77
-111 -109 -65 -33 -72 -34 -225 -41 -86 -3 -274 -5 -416 -3 -217 2 -262 5
-275 18 -23 23 -29 270 -8 311 19 36 85 104 101 104 6 0 28 9 48 19 34 19 81
31 263 67 44 8 94 22 110 29 17 8 50 17 75 21 25 3 86 16 135 29 50 13 113 28
140 33 28 6 82 19 120 30 96 28 121 27 140 -2z m-7265 -186 c12 -8 14 -54 12
-317 -2 -169 -7 -343 -13 -386 -13 -99 -46 -186 -109 -288 -27 -44 -50 -86
-50 -93 0 -7 -4 -16 -9 -21 -19 -19 -231 -430 -287 -556 -6 -13 -22 -46 -36
-74 -15 -27 -68 -134 -118 -237 -92 -189 -116 -222 -146 -197 -21 17 -18 34
27 165 22 65 48 139 56 164 8 25 23 68 33 95 25 67 48 137 69 211 10 33 21 66
25 72 4 7 16 41 26 75 10 34 42 127 70 207 29 80 60 172 69 206 10 33 21 66
25 72 4 7 16 40 26 75 25 85 48 154 69 207 10 25 31 86 46 135 15 50 35 113
45 140 10 28 24 68 31 90 7 22 16 45 20 50 4 6 17 46 29 90 11 44 31 90 42
103 24 25 27 26 48 12z m10704 -245 c26 -14 55 -25 64 -25 10 0 36 -9 57 -21
22 -11 63 -29 90 -39 28 -10 88 -34 135 -54 46 -20 88 -36 93 -36 4 0 32 -11
60 -24 29 -13 81 -36 117 -51 36 -15 84 -36 107 -46 23 -11 48 -19 56 -19 8 0
25 -8 38 -19 13 -10 40 -22 59 -26 19 -4 60 -20 91 -36 31 -16 60 -29 64 -29
4 0 21 -6 38 -14 32 -15 139 -59 232 -97 28 -12 63 -27 78 -35 16 -8 33 -14
38 -14 4 0 33 -11 63 -25 30 -14 57 -25 61 -25 3 0 38 -15 78 -33 40 -18 97
-44 127 -56 134 -56 178 -75 215 -92 22 -10 76 -31 120 -48 44 -16 103 -40
130 -54 28 -13 82 -36 120 -51 39 -15 106 -42 150 -61 44 -18 91 -36 104 -40
14 -4 38 -16 55 -26 17 -11 38 -19 47 -19 9 0 37 -11 63 -25 26 -14 52 -25 58
-25 23 0 95 -86 102 -122 7 -40 -9 -124 -29 -148 -7 -8 -18 -37 -24 -65 -7
-27 -16 -54 -20 -60 -5 -5 -14 -28 -21 -50 -7 -22 -20 -56 -28 -75 -17 -37
-40 -97 -66 -170 -9 -25 -23 -58 -31 -75 -7 -16 -39 -88 -69 -160 -104 -246
-223 -502 -264 -568 -13 -21 -44 -78 -69 -125 -103 -196 -114 -217 -126 -232
-13 -17 -34 -51 -54 -91 -35 -70 -72 -62 -132 29 -59 89 -273 406 -309 457
-15 22 -45 65 -65 95 -69 104 -77 115 -129 187 -29 39 -58 80 -65 90 -68 101
-132 196 -176 261 -29 42 -93 136 -142 207 -49 72 -128 185 -177 253 -48 68
-88 126 -88 129 0 3 -21 35 -47 71 -43 59 -63 89 -98 143 -5 9 -36 54 -68 100
-31 46 -63 93 -71 104 -7 11 -30 45 -50 75 -21 30 -53 78 -71 105 -19 28 -45
64 -58 80 -13 17 -38 54 -57 83 -18 28 -37 52 -40 52 -4 0 -13 14 -21 32 -7
17 -29 50 -48 73 -20 23 -58 77 -86 120 -95 148 -110 171 -158 239 -53 75 -69
123 -46 137 23 14 43 11 93 -16z m-392 -96 c40 -21 167 -139 174 -162 3 -12
15 -31 25 -43 10 -11 43 -56 72 -100 29 -43 94 -140 144 -214 50 -74 106 -160
126 -190 19 -30 77 -114 129 -187 51 -73 107 -153 123 -179 42 -66 72 -110
135 -199 30 -43 85 -123 122 -179 36 -56 85 -126 108 -156 39 -53 116 -163
179 -260 17 -25 44 -65 61 -90 17 -25 58 -83 90 -130 33 -47 78 -112 102 -144
24 -33 48 -68 53 -77 6 -10 33 -49 60 -89 28 -39 59 -86 70 -104 11 -17 41
-59 66 -91 25 -33 52 -71 59 -84 7 -14 17 -30 22 -35 22 -26 208 -296 208
-303 0 -4 11 -18 24 -32 13 -15 43 -60 65 -101 37 -68 41 -82 41 -148 0 -90
-21 -133 -119 -238 -36 -39 -118 -126 -182 -195 -64 -68 -143 -153 -175 -188
-159 -172 -229 -241 -246 -241 -14 0 -32 27 -69 103 -28 56 -59 125 -69 152
-10 28 -41 100 -70 160 -129 275 -170 366 -170 380 0 7 -6 18 -14 24 -8 7 -17
27 -20 45 -4 19 -13 39 -21 46 -8 6 -19 28 -25 48 -7 20 -27 69 -45 107 -69
149 -95 205 -95 210 0 2 -18 44 -41 92 -23 49 -59 129 -81 178 -22 50 -48 108
-58 130 -11 22 -31 67 -46 100 -14 33 -43 96 -64 140 -21 44 -43 96 -50 115
-8 19 -31 70 -52 112 -21 43 -38 82 -38 87 0 6 -32 76 -70 156 -39 80 -79 169
-91 197 -11 29 -36 87 -56 128 -44 93 -65 139 -99 215 -14 33 -34 78 -44 100
-10 22 -27 60 -38 85 -11 25 -41 89 -66 143 -25 54 -46 100 -46 102 0 3 -17
42 -39 87 -21 46 -53 117 -71 158 -18 41 -36 79 -41 84 -5 6 -9 17 -9 25 0 9
-18 52 -40 95 -56 111 -53 136 20 136 15 0 34 7 41 16 11 14 9 20 -18 43 -48
40 -104 81 -140 102 -57 33 -39 65 42 72 82 8 231 0 257 -14z m-6770 -118 c34
-37 79 -117 98 -176 30 -93 145 -185 255 -204 147 -25 428 -48 715 -58 91 -3
173 -10 184 -15 17 -9 18 -19 12 -117 -17 -305 -27 -468 -36 -595 -6 -78 -13
-244 -16 -371 -5 -204 -3 -241 14 -330 11 -55 23 -134 26 -176 3 -41 12 -91
20 -110 8 -19 17 -61 21 -94 4 -33 16 -87 26 -119 11 -32 24 -88 29 -124 6
-36 15 -73 21 -84 6 -10 16 -54 23 -96 14 -80 33 -164 68 -292 11 -41 26 -100
33 -130 23 -97 46 -183 71 -262 13 -43 24 -86 24 -97 0 -11 6 -35 14 -53 26
-63 67 -193 75 -235 4 -23 12 -48 18 -55 6 -7 17 -33 26 -58 15 -45 69 -176
87 -215 11 -24 39 -95 76 -190 14 -38 38 -95 52 -125 28 -63 56 -131 84 -208
10 -30 30 -71 44 -93 35 -56 66 -145 59 -169 -6 -20 -14 -20 -778 -20 -751 0
-1013 -8 -1080 -33 -54 -20 -57 -28 -57 -168 0 -125 6 -167 50 -329 5 -20 34
-66 65 -102 30 -37 55 -76 55 -87 0 -26 -47 -58 -128 -87 -136 -48 -213 -23
-347 112 -49 50 -103 110 -120 133 -16 23 -36 48 -43 56 -7 8 -44 69 -83 136
-68 118 -171 259 -189 259 -5 0 -19 11 -32 24 -13 13 -66 43 -118 67 l-95 43
-160 4 c-184 4 -544 -11 -785 -32 -91 -8 -214 -16 -274 -18 -138 -4 -142 1
-98 97 18 37 32 75 32 85 0 19 53 124 110 220 18 30 57 104 87 164 29 60 57
114 62 120 5 6 36 74 70 151 35 77 71 158 82 181 10 23 19 47 19 54 0 6 7 24
15 38 8 15 31 79 51 142 21 63 44 124 51 135 7 11 13 29 13 40 0 12 11 55 25
95 14 40 25 85 25 100 0 14 6 35 14 45 8 11 20 56 26 100 7 44 21 109 31 145
9 36 20 90 24 120 4 30 14 87 22 125 15 69 27 190 59 555 13 158 15 309 10
1025 -5 738 -3 844 10 870 22 44 104 114 146 125 41 12 226 45 303 55 28 3 84
15 125 25 41 11 104 25 140 31 36 6 81 17 100 25 19 8 59 19 90 24 30 4 78 15
105 23 32 10 80 15 133 13 80 -2 85 -4 114 -35z m1110 -94 c58 -7 114 -19 123
-27 21 -18 55 -84 55 -108 0 -10 -12 -29 -26 -43 -26 -24 -26 -24 -291 -27
-191 -2 -269 0 -279 9 -23 19 -18 104 8 129 12 11 26 20 30 20 5 0 21 9 36 20
49 37 175 46 344 27z m2437 -52 c13 -13 13 -21 2 -57 -7 -24 -17 -68 -23 -98
-6 -30 -16 -62 -23 -70 -7 -8 -15 -35 -19 -59 -4 -24 -19 -79 -34 -123 l-27
-80 -165 7 c-91 3 -210 13 -265 20 -55 8 -147 17 -205 20 -165 10 -204 20
-240 63 -16 20 -33 52 -36 71 -10 50 19 153 63 227 40 67 38 66 142 91 18 4
209 7 424 6 335 -2 393 -5 406 -18z m-5648 -88 c15 -48 30 -109 34 -135 3 -26
15 -76 26 -111 10 -35 19 -84 19 -110 0 -25 9 -95 20 -156 15 -81 22 -179 27
-375 8 -328 4 -348 -70 -412 -51 -44 -151 -88 -198 -88 -12 0 -59 -11 -103
-24 -45 -13 -101 -27 -126 -30 -25 -4 -67 -13 -95 -21 -56 -15 -197 -46 -323
-71 -46 -9 -96 -22 -110 -30 -35 -18 -47 -18 -62 1 -15 18 -17 9 59 220 86
239 97 269 109 290 6 11 18 43 26 70 8 28 29 86 46 130 17 44 36 96 42 115 6
19 17 44 24 55 8 11 14 29 14 40 0 11 11 42 24 70 51 109 69 152 87 207 10 31
44 108 74 173 53 110 59 118 113 153 32 20 89 50 127 66 39 17 84 38 100 48
17 10 43 17 59 16 27 -3 31 -8 57 -91z m8188 -74 c6 -21 15 -69 21 -107 6 -38
13 -73 16 -77 2 -4 8 -43 13 -86 10 -87 41 -282 71 -443 11 -58 24 -141 29
-185 6 -44 17 -109 25 -145 9 -36 16 -85 16 -109 0 -24 9 -80 19 -125 11 -44
25 -125 30 -178 6 -53 16 -109 22 -125 6 -15 15 -64 19 -108 5 -44 16 -114 24
-155 9 -41 20 -118 26 -170 6 -52 17 -117 25 -145 8 -27 19 -89 24 -136 5 -48
17 -113 25 -145 8 -33 20 -104 26 -159 6 -54 17 -124 24 -155 8 -30 17 -89 21
-130 4 -41 13 -99 20 -127 8 -29 19 -99 25 -155 6 -57 17 -125 25 -153 7 -27
19 -90 25 -140 7 -49 20 -126 30 -170 10 -44 21 -111 25 -150 3 -38 11 -87 16
-108 6 -21 14 -71 19 -110 5 -40 20 -137 34 -216 17 -100 22 -150 15 -163 -8
-16 -23 -18 -117 -18 l-107 1 -40 37 c-51 46 -69 100 -85 252 -6 63 -16 142
-21 175 -5 33 -9 87 -9 120 0 33 -8 137 -19 230 -11 94 -25 232 -31 308 -6 75
-17 183 -25 240 -8 56 -19 163 -25 237 -6 74 -17 182 -25 240 -8 58 -15 132
-15 165 0 33 -9 130 -20 215 -11 85 -25 216 -30 290 -6 74 -15 155 -20 180 -5
25 -16 135 -25 245 -8 110 -19 220 -25 245 -5 25 -14 113 -20 195 -5 83 -16
185 -25 227 -8 42 -19 148 -25 235 -6 87 -13 165 -16 174 -8 29 -34 264 -34
316 0 56 13 103 29 103 6 0 15 -17 20 -37z m306 -93 c14 -22 25 -42 25 -45 0
-6 28 -67 105 -230 24 -49 52 -112 64 -140 36 -88 50 -120 60 -135 15 -22 111
-246 111 -258 0 -5 6 -15 14 -21 8 -7 17 -23 20 -37 4 -13 23 -57 42 -97 20
-39 48 -101 63 -137 34 -79 184 -420 210 -475 10 -22 29 -62 41 -90 12 -27 32
-72 45 -100 21 -46 51 -110 104 -226 12 -25 21 -48 21 -51 0 -3 23 -53 50
-111 28 -58 50 -108 50 -112 0 -3 22 -52 49 -108 89 -187 123 -262 143 -314
10 -29 24 -55 29 -58 5 -4 9 -14 9 -24 0 -10 9 -30 20 -44 11 -14 20 -32 20
-40 0 -8 37 -93 81 -189 45 -95 92 -195 105 -223 44 -98 106 -231 135 -291 16
-33 29 -69 29 -80 1 -10 7 -30 15 -44 23 -41 18 -107 -11 -159 -39 -67 -62
-90 -124 -121 -30 -15 -100 -51 -155 -79 -55 -29 -138 -69 -185 -89 -47 -20
-113 -53 -147 -74 -35 -21 -68 -38 -74 -38 -6 0 -37 -13 -68 -29 -187 -97
-216 -106 -239 -78 -5 6 -13 48 -17 92 -4 44 -15 114 -25 155 -10 41 -22 109
-25 150 -4 41 -13 95 -21 120 -8 25 -18 88 -23 140 -5 52 -16 124 -24 160 -9
36 -19 99 -22 140 -4 41 -13 91 -21 112 -7 20 -18 83 -24 140 -7 57 -18 126
-26 153 -7 28 -18 93 -24 145 -6 52 -15 111 -20 130 -5 19 -16 87 -25 150 -8
63 -22 144 -30 180 -8 36 -17 92 -20 125 -4 33 -15 98 -25 145 -10 47 -21 114
-25 150 -4 36 -15 101 -25 145 -10 44 -21 114 -25 155 -4 41 -13 98 -20 125
-7 28 -16 82 -20 120 -4 39 -15 108 -25 155 -10 47 -22 119 -25 160 -4 41 -15
107 -25 145 -10 39 -21 99 -24 135 -4 36 -13 97 -21 135 -8 39 -24 131 -36
205 -41 255 -49 305 -59 355 -5 28 -13 76 -16 108 -6 53 -5 57 14 57 14 0 30
-14 47 -40z m-9694 -17 c13 -34 5 -66 -42 -183 -21 -52 -45 -121 -53 -152 -8
-31 -19 -66 -25 -77 -6 -10 -16 -42 -22 -70 -6 -27 -17 -55 -25 -62 -8 -6 -14
-18 -14 -25 0 -14 -44 -146 -99 -299 -16 -44 -36 -102 -46 -130 -10 -27 -25
-68 -35 -90 -28 -62 -60 -149 -60 -161 0 -18 -57 -185 -75 -221 -36 -72 -112
-113 -210 -113 -73 0 -105 12 -105 38 0 10 35 88 78 173 42 86 85 176 96 200
10 24 23 53 29 64 6 11 107 212 224 447 118 235 219 430 224 433 5 4 9 14 9
25 0 20 83 185 108 213 21 24 31 21 43 -10z m8996 -193 c10 -20 13 -335 13
-1510 0 -817 5 -1724 11 -2015 l12 -530 -27 -53 c-49 -96 -16 -92 -707 -92
-578 0 -596 1 -614 20 -15 17 -16 25 -5 72 7 29 19 62 25 73 7 11 16 38 19 60
4 22 18 76 32 120 14 44 34 109 44 145 11 36 27 88 35 115 9 28 21 68 27 90 6
22 17 60 25 85 41 131 56 181 72 245 33 125 72 259 86 290 12 29 19 53 52 180
8 33 21 74 29 90 7 17 18 50 23 75 6 25 19 71 31 102 11 32 20 64 20 73 0 17
54 189 76 245 8 19 19 61 24 94 5 32 14 63 19 70 6 6 15 34 21 61 6 28 19 73
29 100 10 28 26 79 35 115 41 155 55 202 64 213 5 7 12 33 15 59 4 26 18 75
32 107 14 33 25 70 25 81 0 12 6 33 14 48 7 15 19 54 26 87 7 33 17 71 23 85
6 14 20 61 32 105 12 44 27 94 33 110 6 17 23 73 37 125 15 52 40 137 56 189
16 51 29 101 29 110 0 9 7 25 15 35 8 11 15 29 15 41 0 12 11 55 25 95 14 40
25 84 25 96 0 13 10 42 21 65 33 62 83 75 106 29z m-3027 -135 c30 -9 102 -20
160 -25 57 -5 136 -16 175 -25 38 -8 114 -19 167 -24 54 -4 104 -14 113 -21
24 -20 18 -65 -19 -149 -71 -161 -142 -250 -321 -405 -33 -29 -70 -58 -81 -66
-30 -20 -154 -117 -244 -190 -41 -33 -81 -63 -88 -66 -35 -17 -37 9 -39 479
-2 254 0 472 2 485 5 20 11 22 63 22 31 0 82 -7 112 -15z m-7971 -167 c27 -57
74 -157 106 -223 104 -218 147 -309 170 -360 13 -27 43 -93 68 -145 25 -52 49
-106 53 -120 3 -14 12 -32 18 -40 7 -8 22 -41 34 -74 19 -50 21 -64 11 -100
-14 -54 -24 -64 -69 -76 -40 -11 -209 10 -234 28 -6 5 -42 14 -81 22 -38 7
-93 21 -122 32 -29 10 -66 18 -82 18 -17 0 -50 6 -73 14 -24 8 -63 20 -88 26
-25 7 -50 16 -56 21 -12 10 -9 51 7 84 5 11 13 38 18 60 5 22 21 85 36 140 15
55 34 127 42 160 7 33 22 87 33 120 10 33 22 78 26 100 6 38 32 129 75 260 10
33 19 74 19 92 0 96 31 82 89 -39z m10479 -321 c2 -14 -4 -42 -13 -61 -9 -19
-23 -58 -30 -88 -24 -95 -55 -192 -70 -225 -8 -17 -15 -37 -15 -44 0 -11 -16
-71 -76 -279 -13 -47 -24 -93 -24 -102 0 -9 -8 -32 -19 -50 -10 -18 -24 -60
-31 -93 -7 -33 -18 -69 -26 -80 -7 -11 -17 -48 -23 -82 -5 -34 -14 -71 -20
-82 -6 -11 -17 -46 -25 -78 -8 -32 -22 -80 -31 -108 -9 -27 -27 -86 -40 -130
-13 -44 -35 -116 -49 -161 -14 -45 -26 -92 -26 -105 0 -13 -9 -42 -19 -64 -10
-23 -21 -63 -25 -89 -4 -27 -14 -59 -21 -70 -7 -12 -19 -48 -25 -81 -7 -33
-16 -68 -21 -77 -9 -16 -22 -60 -65 -218 -22 -81 -33 -118 -70 -227 -9 -27
-22 -73 -29 -103 -8 -30 -30 -107 -50 -170 -20 -63 -42 -144 -49 -180 -7 -36
-20 -78 -28 -95 -9 -16 -24 -61 -33 -100 -34 -137 -41 -155 -75 -190 -55 -57
-79 -50 -196 54 -28 25 -80 71 -114 101 -34 30 -86 76 -114 102 -28 26 -85 78
-126 114 -41 37 -100 90 -131 118 -30 28 -91 83 -134 121 -43 39 -84 84 -91
100 -8 21 -11 57 -7 113 5 70 10 89 34 120 60 78 81 109 112 157 18 27 39 57
47 66 8 8 44 57 80 108 36 51 90 125 120 165 31 39 65 85 75 102 44 69 73 110
89 123 9 7 16 19 16 25 0 7 14 25 30 41 17 16 30 32 30 37 0 7 138 197 180
248 12 14 45 59 75 100 29 41 68 93 85 115 18 22 76 101 131 175 54 74 121
162 147 195 27 33 70 91 98 128 90 125 146 198 200 262 22 28 48 64 57 80 8
17 29 44 46 60 18 17 50 55 71 85 117 162 191 251 203 247 7 -2 13 -15 15 -30z
m-660 -319 c22 -22 13 -63 -22 -104 -18 -21 -59 -77 -91 -124 -32 -47 -69 -96
-82 -110 -14 -14 -33 -41 -43 -60 -10 -19 -40 -63 -66 -97 -27 -34 -60 -78
-74 -98 -14 -20 -49 -68 -77 -106 -29 -38 -53 -73 -53 -77 0 -4 -16 -25 -36
-47 -20 -22 -61 -76 -90 -120 -30 -44 -75 -107 -100 -140 -24 -33 -53 -73 -62
-89 -9 -16 -35 -49 -56 -75 -22 -25 -51 -64 -65 -86 -14 -23 -43 -63 -64 -90
-37 -49 -121 -164 -202 -279 -57 -81 -113 -158 -133 -181 -9 -11 -38 -53 -64
-93 -54 -81 -84 -100 -130 -81 -20 8 -31 23 -40 53 -6 22 -15 46 -19 51 -4 6
-21 51 -37 100 -35 106 -51 149 -68 190 -6 17 -19 53 -27 80 -9 28 -26 79 -38
115 -12 36 -24 70 -26 75 -1 6 -7 17 -12 25 -18 31 -71 217 -76 270 -8 78 -44
237 -66 290 -24 63 -42 172 -37 229 8 84 118 209 368 420 l125 106 78 4 c91 4
112 0 159 -33 106 -71 306 -162 393 -177 117 -20 142 -21 242 -5 81 13 125 27
218 70 63 29 124 61 133 70 10 9 21 16 24 16 10 0 112 64 148 92 39 31 50 34
68 16z m-6557 -268 c17 -10 19 -22 19 -143 -1 -115 -4 -138 -23 -177 -32 -65
-49 -69 -337 -70 -229 0 -697 16 -747 26 -41 8 -26 84 17 84 8 0 33 9 54 21
69 37 333 122 416 135 25 3 57 13 72 20 15 8 42 14 60 14 45 0 245 45 373 84
61 18 71 19 96 6z m8023 -132 c3 -18 10 -102 16 -186 6 -84 17 -207 25 -275 8
-67 15 -151 15 -186 0 -35 4 -92 9 -125 28 -176 41 -293 46 -404 3 -68 12
-160 20 -205 8 -45 19 -147 24 -227 6 -80 15 -170 21 -200 5 -30 14 -113 19
-185 6 -71 20 -213 31 -315 20 -185 37 -355 47 -463 7 -86 5 -87 -152 -87 -97
0 -135 4 -143 13 -13 15 -20 2803 -7 2850 10 36 21 34 29 -5z m-11464 -214
c63 -14 147 -37 187 -50 39 -13 85 -24 103 -24 17 0 59 -9 93 -19 34 -11 83
-22 108 -26 26 -3 71 -15 100 -25 30 -11 64 -20 77 -20 34 0 62 -18 62 -40 0
-12 -18 -33 -43 -52 -114 -86 -166 -126 -217 -168 -61 -50 -122 -97 -160 -122
-36 -25 -188 -143 -235 -183 -22 -19 -76 -61 -120 -94 -98 -72 -235 -180 -253
-198 -39 -39 -68 5 -53 80 6 29 15 140 21 247 6 107 15 233 20 280 5 47 14
143 19 213 10 135 28 192 68 212 38 19 109 16 223 -11z m1825 -225 c132 -6
266 -10 298 -9 32 1 109 -4 170 -10 62 -6 299 -15 527 -21 520 -12 538 -14
552 -44 11 -24 -5 -98 -38 -173 -8 -18 -14 -41 -14 -51 0 -9 -11 -51 -25 -91
-14 -40 -25 -85 -25 -100 0 -14 -7 -36 -16 -48 -8 -12 -22 -55 -30 -94 -8 -40
-22 -83 -29 -95 -8 -12 -18 -41 -21 -65 -4 -24 -12 -54 -19 -68 -7 -14 -18
-52 -25 -85 -7 -33 -16 -65 -21 -71 -5 -6 -12 -28 -17 -50 -6 -33 -12 -40 -35
-42 -18 -2 -38 5 -56 20 -16 13 -43 32 -62 43 -41 25 -28 16 -244 159 -99 65
-213 139 -253 165 -40 25 -88 58 -106 74 -19 15 -36 27 -40 27 -3 0 -28 15
-55 34 -26 19 -67 44 -90 55 -22 12 -41 26 -41 31 0 5 -10 12 -21 15 -12 4
-56 30 -98 59 -157 108 -177 121 -193 131 -8 6 -40 26 -69 45 -30 20 -65 41
-79 48 -14 7 -59 37 -100 67 -41 30 -87 60 -102 66 -30 12 -43 38 -33 68 7 24
23 28 105 24 36 -2 173 -8 305 -14z m-1009 -252 c5 -14 -31 -199 -45 -225 -4
-9 -12 -43 -16 -76 -4 -32 -13 -77 -21 -99 -8 -23 -21 -83 -28 -133 -8 -51
-19 -101 -25 -112 -6 -11 -15 -52 -21 -91 -5 -38 -17 -89 -25 -113 -8 -24 -15
-61 -15 -83 -1 -22 -8 -58 -16 -80 -16 -42 -30 -105 -44 -195 -4 -30 -15 -72
-24 -92 -9 -21 -16 -48 -16 -61 0 -13 -10 -59 -21 -103 -12 -43 -27 -116 -34
-160 -7 -45 -18 -90 -23 -100 -5 -11 -13 -46 -17 -79 -8 -63 -53 -179 -89
-228 l-21 -29 -105 4 -106 3 -47 39 c-26 21 -47 43 -47 48 0 11 -56 140 -96
221 -13 27 -24 53 -24 58 0 14 -91 242 -106 266 -8 12 -14 29 -14 38 0 9 -8
32 -19 53 -63 123 -92 276 -71 375 25 122 162 272 385 420 58 39 167 118 206
150 19 15 52 40 74 57 87 64 129 97 170 130 23 19 68 55 99 80 31 25 72 57 90
72 34 28 85 58 99 58 4 0 10 -6 13 -13z m655 -105 c97 -62 214 -138 407 -267
109 -72 146 -96 205 -132 11 -6 31 -21 46 -32 14 -12 55 -40 91 -63 36 -22 81
-51 100 -63 19 -12 107 -70 195 -127 89 -58 174 -113 190 -122 36 -20 118 -77
164 -114 40 -32 71 -90 71 -132 0 -33 -58 -149 -210 -420 -23 -41 -60 -109
-83 -150 -35 -66 -81 -148 -128 -230 -8 -14 -21 -34 -30 -45 -9 -11 -20 -34
-23 -51 -8 -37 -39 -69 -60 -61 -8 3 -32 41 -54 84 -22 43 -90 173 -153 288
-112 208 -156 290 -221 415 -19 36 -58 110 -88 165 -94 174 -159 298 -192 365
-17 36 -37 72 -44 80 -6 8 -31 53 -54 100 -23 47 -47 94 -53 105 -55 99 -117
214 -155 285 -24 47 -51 94 -58 105 -17 24 -18 62 -1 68 24 8 74 -11 138 -51z
m-453 -354 c5 -7 15 -128 21 -268 7 -140 18 -318 26 -395 8 -77 19 -252 25
-390 6 -137 18 -310 26 -382 14 -130 12 -181 -10 -195 -6 -4 -118 -8 -248 -8
-232 0 -237 0 -243 21 -9 26 0 87 30 214 58 249 65 282 65 305 0 14 9 52 19
85 19 58 39 152 66 317 8 43 23 105 34 138 12 33 21 77 21 98 0 20 9 62 19 92
10 31 21 76 25 100 10 65 46 231 57 258 10 24 50 30 67 10z m319 -140 c6 -7
32 -53 58 -103 27 -49 59 -108 71 -130 13 -22 40 -74 60 -115 20 -41 45 -87
55 -101 10 -14 21 -37 24 -51 4 -15 15 -34 26 -44 10 -9 19 -22 19 -27 0 -6
11 -24 24 -42 13 -17 29 -48 34 -68 6 -20 20 -49 31 -63 12 -15 21 -31 21 -35
0 -5 26 -55 58 -112 31 -56 95 -178 141 -272 46 -93 103 -209 127 -257 41 -81
44 -93 44 -165 -1 -43 -7 -96 -15 -118 -8 -22 -15 -55 -15 -72 0 -43 -32 -77
-63 -67 -12 4 -38 17 -57 30 -19 13 -42 24 -50 24 -8 0 -32 11 -52 25 -20 14
-39 25 -42 25 -6 0 -90 41 -273 134 -133 68 -189 113 -197 161 -17 89 -29 230
-41 467 -7 152 -16 291 -19 310 -3 18 -8 49 -12 68 -3 19 -10 141 -14 270 -5
129 -12 250 -15 267 -3 18 -1 42 5 53 12 22 52 27 67 8z"/>
</g>
</svg>
