<?xml version="1.0" standalone="no"?>
<!DOCTYPE svg PUBLIC "-//W3C//DTD SVG 20010904//EN"
 "http://www.w3.org/TR/2001/REC-SVG-20010904/DTD/svg10.dtd">
<svg version="1.0" xmlns="http://www.w3.org/2000/svg"
 width="2333.000000pt" height="2333.000000pt" viewBox="0 0 2333.000000 2333.000000"
 preserveAspectRatio="xMidYMid meet">
<metadata>
Created by potrace 1.16, written by Peter Selinger 2001-2019
</metadata>
<g transform="translate(0.000000,2333.000000) scale(0.100000,-0.100000)"
fill="#000000" stroke="none">
<path d="M12010 22493 c-30 -2 -59 -8 -65 -12 -5 -5 -48 -12 -95 -16 -46 -4
-91 -11 -100 -15 -36 -19 -89 -40 -100 -40 -7 0 -25 -9 -41 -21 -16 -11 -36
-18 -44 -15 -8 3 -17 1 -20 -3 -2 -5 -19 -16 -37 -25 -45 -22 -66 -36 -109
-68 -20 -16 -41 -28 -46 -28 -11 0 -133 -123 -133 -134 0 -4 -22 -32 -49 -61
-49 -54 -91 -123 -91 -150 0 -8 -5 -15 -10 -15 -6 0 -18 -18 -27 -40 -10 -22
-21 -40 -25 -40 -4 0 -10 -16 -14 -35 -3 -19 -10 -38 -15 -41 -5 -3 -9 -16 -9
-30 0 -13 -4 -24 -9 -24 -5 0 -12 -21 -16 -47 -4 -27 -12 -51 -18 -55 -14 -8
-23 -298 -11 -326 4 -9 6 -21 5 -26 -1 -4 2 -13 7 -20 5 -6 13 -28 16 -50 9
-47 20 -67 68 -128 21 -26 38 -51 38 -56 0 -5 7 -15 15 -22 8 -7 15 -15 15
-19 0 -3 -82 -7 -182 -8 -297 -3 -562 -14 -572 -24 -6 -5 -52 -9 -102 -9 -51
0 -95 -4 -98 -9 -3 -5 -23 -7 -45 -4 -23 3 -41 1 -45 -6 -4 -6 -27 -11 -51
-11 -24 0 -47 -5 -50 -10 -4 -6 -28 -11 -53 -10 -72 0 -144 -11 -159 -25 -8
-9 -13 -39 -13 -80 l0 -67 168 7 c92 4 169 11 170 16 5 11 189 12 196 1 3 -5
128 -12 277 -15 166 -4 276 -10 283 -17 6 -6 68 -10 155 -10 l145 0 -27 -28
c-15 -15 -27 -32 -27 -36 0 -4 -17 -28 -39 -54 -32 -40 -45 -61 -56 -92 -9
-26 -18 -48 -25 -61 -5 -9 -12 -33 -15 -53 -4 -20 -11 -39 -16 -42 -5 -3 -9
-16 -9 -30 0 -13 -4 -24 -10 -24 -14 0 -14 -407 1 -415 6 -4 0 -13 -15 -21
-14 -8 -38 -21 -53 -29 -16 -8 -36 -15 -45 -15 -9 0 -20 -4 -23 -10 -3 -5 -13
-10 -22 -10 -8 0 -30 -7 -49 -15 -19 -8 -49 -22 -68 -30 -19 -8 -39 -15 -45
-15 -6 0 -11 -4 -11 -9 0 -5 -12 -12 -27 -15 -36 -9 -229 -103 -268 -131 -34
-24 -98 -55 -114 -55 -6 0 -11 -3 -11 -8 0 -7 -30 -25 -62 -38 -10 -3 -18 -10
-18 -15 0 -5 -5 -9 -11 -9 -24 0 -117 -51 -144 -80 -28 -29 -85 -43 -85 -21 0
5 -13 12 -30 16 -16 4 -32 11 -35 16 -4 5 -19 9 -35 9 -16 0 -31 4 -35 9 -3 6
-27 13 -53 17 -26 3 -53 11 -60 17 -7 5 -44 12 -82 15 -39 2 -73 9 -76 13 -3
5 -20 9 -39 9 -19 0 -36 4 -39 9 -3 5 -30 12 -60 15 -41 6 -63 3 -95 -11 -22
-10 -41 -21 -41 -25 0 -5 -5 -8 -10 -8 -17 0 -110 -44 -110 -52 0 -5 20 -8 44
-8 25 0 47 -4 50 -9 3 -4 16 -6 30 -4 13 3 27 0 30 -6 4 -6 20 -11 36 -11 16
0 31 -4 34 -9 3 -5 22 -12 42 -16 20 -3 44 -10 53 -15 37 -18 68 -29 101 -36
36 -7 43 -10 98 -37 19 -9 42 -17 51 -17 10 0 21 -3 25 -7 4 -5 11 -8 14 -9
12 -1 46 -15 67 -26 81 -44 108 -56 139 -62 20 -4 36 -10 36 -14 0 -4 21 -17
48 -30 61 -29 83 -43 103 -64 24 -26 41 -22 79 17 19 19 38 35 43 35 5 0 26
13 46 28 20 16 56 38 81 50 25 13 70 42 100 67 30 24 61 44 68 45 6 0 12 4 12
9 0 6 33 26 74 46 40 19 82 45 91 55 10 11 22 20 27 20 5 0 19 10 31 23 25 25
54 45 80 53 9 4 17 10 17 13 0 4 19 17 43 29 23 11 58 37 76 56 45 46 59 45
67 -4 4 -22 9 -40 13 -40 7 0 25 -40 36 -80 4 -14 18 -39 31 -57 13 -17 24
-34 24 -38 0 -3 11 -18 25 -33 14 -15 25 -31 25 -36 0 -5 17 -29 38 -55 35
-43 53 -68 69 -101 4 -8 11 -19 15 -25 49 -60 88 -115 88 -122 0 -5 13 -22 29
-37 25 -24 35 -28 63 -22 41 8 88 29 88 38 0 4 6 5 14 2 22 -8 26 10 10 40 -7
16 -14 33 -14 38 0 11 -24 69 -46 110 -8 14 -14 34 -14 45 0 10 -9 29 -19 42
-10 14 -16 31 -14 39 3 8 2 17 -3 21 -12 8 -34 48 -34 62 0 10 -15 48 -42 105
-5 11 -7 39 -5 62 2 24 0 45 -4 48 -5 3 -9 30 -9 60 0 30 -4 54 -10 54 -6 0
-10 38 -10 94 0 53 4 98 10 101 6 3 10 26 10 50 0 24 4 46 8 49 5 3 7 18 4 34
-2 16 1 33 7 36 6 4 11 18 11 32 0 13 4 24 9 24 5 0 12 12 16 27 3 15 15 39
25 53 10 14 22 38 25 53 4 15 11 27 15 27 5 0 11 14 15 30 4 17 13 30 21 30
22 0 86 -37 76 -44 -6 -3 -13 -39 -17 -78 -4 -40 -12 -79 -19 -87 -14 -18 -14
-420 1 -429 6 -4 14 -31 18 -59 4 -29 11 -53 16 -53 5 0 9 -11 9 -24 0 -14 4
-27 9 -30 5 -4 12 -24 16 -46 4 -22 11 -42 16 -46 5 -3 9 -16 9 -30 0 -13 5
-24 11 -24 6 0 8 -7 5 -16 -3 -9 3 -28 14 -44 11 -15 20 -37 20 -47 0 -11 7
-28 15 -39 8 -10 15 -31 15 -46 0 -16 4 -28 9 -28 5 0 11 -17 15 -39 3 -21 13
-51 21 -67 8 -16 15 -35 15 -41 0 -7 3 -13 8 -13 7 0 42 -72 42 -88 0 -4 9
-14 19 -22 11 -7 18 -17 16 -20 -3 -4 4 -15 15 -25 11 -10 20 -22 20 -28 0
-12 343 -356 373 -373 12 -7 29 -16 37 -20 8 -4 17 -10 20 -14 7 -9 76 -40 89
-40 6 0 11 -4 11 -9 0 -4 -88 -10 -196 -13 -127 -3 -199 -9 -207 -17 -6 -6
-30 -11 -53 -11 -24 0 -45 -4 -48 -9 -3 -4 -33 -11 -66 -14 -33 -3 -66 -10
-73 -16 -7 -5 -32 -13 -55 -17 -23 -4 -42 -10 -42 -15 0 -5 -11 -9 -24 -9 -14
0 -27 -4 -30 -9 -3 -5 -22 -12 -41 -15 -19 -4 -35 -10 -35 -14 0 -8 -74 -42
-90 -42 -6 0 -10 -4 -10 -10 0 -5 -4 -10 -9 -10 -15 0 -53 -18 -96 -45 -22
-14 -47 -28 -55 -32 -8 -4 -24 -17 -36 -30 -12 -13 -26 -23 -31 -23 -5 0 -18
-9 -28 -20 -10 -11 -23 -20 -28 -20 -5 0 -34 -20 -63 -45 -28 -25 -56 -45 -62
-45 -5 0 -17 -9 -27 -20 -10 -11 -22 -20 -28 -20 -5 0 -18 -11 -29 -25 -11
-14 -25 -25 -31 -25 -7 0 -48 -36 -92 -80 -81 -81 -105 -95 -105 -61 0 11 -4
23 -10 26 -5 3 -10 19 -10 35 0 16 -4 31 -9 34 -5 3 -12 46 -16 96 -4 49 -11
90 -15 90 -4 0 -11 57 -14 128 -4 70 -9 143 -11 162 -2 19 -4 45 -4 58 -1 30
-21 28 -100 -10 -112 -53 -121 -62 -121 -118 0 -27 -4 -51 -9 -54 -4 -3 -12
-61 -16 -128 -4 -68 -12 -129 -18 -137 -9 -10 -12 -225 -12 -818 l0 -803 -52
0 c-29 0 -53 -4 -53 -10 0 -12 -586 -14 -594 -2 -5 9 -146 25 -198 23 -15 -1
-29 3 -33 9 -3 5 -31 10 -61 10 -30 0 -54 5 -54 10 0 6 -17 10 -37 10 -64 -2
-183 12 -183 21 0 5 -22 9 -49 9 -28 0 -52 4 -55 9 -4 5 -29 12 -56 16 -27 4
-52 11 -56 16 -3 5 -14 9 -25 9 -18 0 -19 -8 -19 -169 0 -94 4 -172 9 -175 5
-3 12 -53 16 -111 4 -58 11 -108 16 -111 5 -3 9 -29 9 -59 0 -30 4 -56 9 -59
4 -3 7 -26 6 -51 -1 -25 2 -48 7 -51 4 -3 8 -29 8 -59 0 -30 4 -56 9 -59 5 -3
12 -46 16 -96 4 -50 11 -93 16 -96 5 -3 9 -25 9 -49 0 -24 4 -46 9 -49 5 -4
12 -44 16 -91 4 -47 11 -88 16 -90 4 -3 11 -41 15 -85 3 -44 11 -83 15 -86 5
-3 9 -25 9 -49 0 -24 4 -46 9 -49 5 -4 12 -49 16 -101 4 -52 11 -95 16 -95 5
0 9 -17 9 -38 0 -21 3 -42 7 -46 4 -4 6 -24 4 -45 -1 -22 2 -42 8 -46 6 -3 11
-24 11 -46 0 -21 4 -39 9 -39 5 0 12 -36 16 -80 4 -44 11 -80 16 -80 5 0 9
-18 9 -39 0 -22 5 -43 11 -47 6 -3 9 -20 7 -36 -3 -16 -1 -31 4 -34 4 -3 8
-18 8 -34 0 -16 4 -31 9 -34 5 -3 12 -33 16 -66 4 -33 11 -63 16 -66 5 -3 9
-18 9 -35 0 -16 4 -29 9 -29 5 0 12 -25 16 -55 3 -30 10 -55 15 -55 4 0 11
-25 15 -55 3 -30 10 -55 13 -55 8 0 42 -74 42 -90 0 -6 4 -10 9 -10 5 0 12
-10 16 -22 4 -13 9 -25 10 -28 1 -3 6 -14 10 -25 9 -25 252 -255 280 -265 11
-4 29 -17 39 -29 11 -11 24 -21 30 -21 6 0 20 -10 31 -22 20 -23 47 -42 75
-55 8 -3 31 -19 50 -35 19 -16 40 -32 46 -36 29 -20 50 -33 64 -39 8 -4 17 -9
20 -12 7 -8 38 -27 88 -51 23 -12 42 -26 42 -30 0 -5 13 -11 29 -15 16 -3 35
-13 42 -22 8 -8 37 -26 65 -39 29 -13 54 -27 56 -32 4 -9 131 -72 147 -72 6 0
11 -3 11 -8 0 -8 73 -42 90 -42 5 0 29 -11 54 -25 25 -14 54 -25 65 -25 12 0
21 -4 21 -9 0 -5 12 -12 27 -16 15 -3 39 -15 53 -25 14 -10 38 -22 53 -25 15
-4 27 -11 27 -15 0 -4 12 -11 27 -15 15 -3 39 -15 53 -25 14 -10 38 -22 53
-25 15 -4 27 -11 27 -16 0 -5 5 -9 11 -9 6 0 25 -6 42 -14 18 -8 39 -17 47
-20 8 -3 33 -17 55 -31 43 -27 81 -45 96 -45 5 0 9 -4 9 -9 0 -5 13 -12 29
-16 16 -3 35 -13 42 -21 7 -8 46 -31 88 -51 42 -20 90 -46 106 -58 17 -12 41
-26 55 -30 14 -4 27 -11 30 -14 7 -10 76 -41 89 -41 6 0 11 -4 11 -9 0 -5 8
-12 18 -15 18 -7 41 -20 87 -51 56 -37 70 -46 88 -51 9 -4 17 -10 17 -14 0 -4
12 -11 27 -15 15 -3 39 -15 53 -25 14 -10 38 -22 53 -25 15 -4 27 -11 27 -15
0 -4 12 -11 27 -15 14 -3 49 -25 77 -48 56 -46 80 -62 114 -77 12 -5 22 -14
22 -19 0 -5 8 -11 18 -15 9 -3 31 -15 47 -26 17 -11 37 -23 45 -27 8 -3 22
-14 30 -22 16 -17 46 -37 70 -48 8 -3 31 -19 51 -35 20 -15 40 -28 44 -28 4 0
21 -11 39 -25 17 -14 36 -29 42 -33 25 -17 50 -33 64 -39 8 -3 31 -19 51 -35
20 -15 40 -28 44 -28 4 0 20 -11 37 -25 16 -14 38 -25 49 -25 10 0 19 -4 19
-9 0 -12 -31 -25 -54 -22 -10 2 -22 -1 -25 -6 -8 -12 -76 -43 -94 -43 -9 0
-19 -4 -22 -10 -3 -5 -15 -10 -25 -10 -10 0 -30 -14 -45 -32 -25 -30 -27 -37
-21 -92 3 -33 10 -62 14 -65 7 -5 19 -27 27 -51 6 -18 20 -47 27 -55 4 -5 19
-25 34 -42 l26 -33 108 0 c60 0 111 4 114 8 3 5 42 12 87 15 89 7 95 4 179
-78 14 -14 30 -25 36 -25 5 0 25 -16 44 -35 l34 -35 123 0 c103 0 123 -2 123
-15 0 -8 -4 -15 -9 -15 -5 0 -12 -14 -16 -30 -4 -17 -11 -30 -16 -30 -5 0 -9
-5 -9 -11 0 -6 -7 -26 -15 -45 -8 -19 -22 -49 -30 -68 -8 -19 -15 -39 -15 -45
0 -6 -4 -11 -9 -11 -7 0 -22 -36 -20 -49 0 -2 -3 -7 -8 -10 -12 -9 -33 -49
-33 -63 0 -7 -17 -47 -39 -89 -21 -42 -41 -89 -45 -105 -4 -15 -16 -40 -26
-54 -10 -14 -22 -38 -25 -53 -4 -15 -11 -27 -15 -27 -7 0 -23 -38 -21 -52 0
-4 -22 -50 -49 -103 -28 -54 -50 -106 -50 -116 0 -10 -4 -19 -10 -19 -5 0 -10
-4 -10 -10 0 -17 -34 -90 -42 -90 -4 0 -11 -18 -14 -40 -4 -22 -10 -40 -14
-40 -5 0 -11 -14 -15 -30 -4 -17 -10 -30 -13 -30 -8 0 -42 -74 -42 -90 0 -6
-4 -10 -10 -10 -5 0 -10 -9 -10 -19 0 -11 -18 -55 -39 -98 -22 -43 -43 -87
-47 -98 -4 -11 -8 -22 -9 -25 -2 -3 -6 -15 -10 -27 -4 -13 -11 -23 -15 -23 -4
0 -11 -12 -15 -27 -3 -15 -15 -39 -26 -54 -10 -15 -19 -33 -19 -41 0 -7 -20
-53 -45 -103 -24 -49 -45 -96 -45 -103 0 -14 -21 -54 -33 -63 -5 -3 -9 -10 -9
-15 -2 -23 -11 -44 -19 -44 -5 0 -12 -18 -15 -40 -4 -22 -10 -40 -14 -40 -4 0
-11 -10 -15 -23 -4 -12 -9 -24 -10 -27 -1 -3 -6 -15 -10 -28 -4 -12 -11 -22
-15 -22 -5 0 -11 -14 -15 -30 -4 -17 -11 -30 -16 -30 -5 0 -9 -8 -9 -18 0 -10
-22 -61 -49 -115 -27 -53 -52 -109 -56 -124 -3 -15 -16 -41 -28 -57 -12 -17
-22 -33 -21 -36 2 -12 -9 -40 -16 -40 -4 0 -10 -18 -14 -39 -3 -22 -10 -41
-14 -43 -9 -3 -72 -129 -72 -144 0 -16 -24 -64 -32 -64 -5 0 -8 -5 -8 -11 0
-5 -11 -35 -25 -65 -22 -48 -28 -54 -55 -54 -16 0 -30 4 -30 9 0 4 -62 11
-137 15 -76 4 -142 11 -147 17 -6 5 -29 9 -53 9 -24 0 -43 5 -43 10 0 6 13 10
28 10 19 0 40 12 67 40 21 22 44 40 50 40 5 0 27 18 48 40 20 22 41 40 45 40
4 0 25 18 47 40 21 21 51 42 67 45 15 4 28 10 28 13 0 8 74 42 90 42 6 0 10 5
10 10 0 6 -4 10 -10 10 -7 0 -10 152 -10 435 0 241 4 435 9 435 5 0 12 104 16
230 4 127 11 233 16 236 5 3 9 88 9 190 0 101 4 184 8 184 5 0 12 298 16 662
4 405 10 666 16 672 6 6 10 53 10 106 0 53 3 99 6 103 4 3 6 51 5 107 -1 65 2
100 8 100 6 0 11 5 11 10 0 6 -11 10 -25 10 -14 0 -25 5 -25 10 0 6 -6 10 -13
10 -7 0 -29 9 -50 20 -20 11 -46 20 -56 20 -11 0 -21 3 -23 8 -3 7 -139 76
-148 75 -3 0 -17 8 -32 18 -14 10 -29 19 -33 19 -3 0 -21 10 -38 23 -48 34
-51 35 -354 188 -156 78 -283 145 -283 150 0 4 -13 10 -29 14 -16 3 -36 13
-43 22 -7 9 -26 22 -43 30 -31 14 -66 34 -75 43 -3 3 -54 30 -115 60 -60 30
-123 64 -140 76 -16 11 -37 24 -45 28 -19 9 -47 26 -85 51 -56 37 -70 46 -87
51 -10 4 -18 10 -18 14 0 5 -33 25 -72 45 -77 37 -110 56 -118 66 -3 4 -16 10
-30 14 -14 4 -43 22 -65 40 -22 17 -47 35 -55 38 -17 8 -52 29 -60 37 -14 14
-70 50 -78 50 -5 0 -17 9 -27 20 -10 11 -27 22 -39 26 -11 3 -29 13 -38 21
-18 16 -61 41 -120 70 -21 10 -38 21 -38 26 0 4 -10 12 -22 18 -36 16 -61 32
-105 67 -22 17 -44 32 -48 32 -7 0 -54 37 -102 80 -12 11 -26 20 -31 20 -5 0
-17 9 -27 20 -10 11 -22 20 -28 20 -5 0 -35 22 -67 50 -32 28 -62 50 -67 50
-4 0 -67 59 -138 130 -71 71 -126 130 -122 130 5 0 -1 13 -12 29 -12 16 -21
37 -21 46 0 9 -7 31 -16 48 -30 57 -33 64 -40 103 -3 22 -10 44 -14 49 -5 6
-11 28 -15 50 -6 38 -17 69 -36 108 -5 9 -12 38 -16 62 -3 25 -10 48 -14 51
-5 3 -9 18 -9 34 0 16 -4 31 -9 34 -4 3 -6 16 -4 30 3 13 0 27 -6 30 -6 4 -11
20 -11 37 0 16 -4 29 -9 29 -5 0 -13 29 -16 65 -4 36 -11 65 -16 65 -5 0 -9
18 -9 39 0 22 -4 42 -9 46 -5 3 -8 17 -5 30 2 14 0 25 -6 25 -5 0 -10 18 -10
39 0 22 -4 42 -9 45 -5 3 -12 39 -16 81 -4 41 -11 77 -16 81 -5 3 -9 23 -9 45
0 21 -5 39 -11 39 -6 0 -9 15 -8 34 2 19 0 38 -4 42 -4 4 -7 27 -7 50 0 24 -4
45 -9 48 -5 3 -12 46 -16 96 -4 50 -11 93 -16 96 -5 3 -9 25 -9 49 0 24 -4 46
-9 49 -5 3 -12 46 -16 96 -4 50 -11 93 -16 96 -5 3 -9 24 -9 48 0 23 -3 46 -7
50 -4 4 -6 24 -4 45 1 22 -2 42 -8 46 -6 3 -11 28 -11 55 0 26 -4 50 -10 52
-5 2 -12 54 -16 116 -4 62 -11 115 -16 118 -4 3 -8 36 -8 74 0 38 -5 72 -11
75 -6 4 -9 34 -8 71 1 35 -1 67 -4 71 -4 3 -7 34 -7 69 0 34 -4 64 -9 66 -5 2
-12 56 -16 121 l-7 117 60 0 c34 0 64 -4 67 -10 6 -9 117 -15 126 -6 6 6 -16
308 -23 326 -4 8 -9 62 -12 119 -3 57 -10 109 -16 115 -5 5 -10 29 -10 53 0
24 -4 43 -9 43 -7 0 -17 69 -24 167 -1 12 -5 25 -9 29 -5 4 -8 27 -8 50 0 24
-4 45 -9 48 -5 3 -12 33 -16 66 -4 33 -10 62 -15 65 -4 3 -11 34 -15 70 -3 36
-11 67 -16 70 -5 4 -9 19 -9 36 0 16 -5 29 -11 29 -8 0 -10 14 -6 40 3 22 1
40 -4 40 -5 0 -9 9 -9 20 0 11 -4 28 -9 38 -26 51 -33 71 -27 81 6 10 4 18
-23 69 -6 13 -9 27 -6 32 3 5 1 11 -5 15 -5 3 -10 17 -10 31 0 13 -4 32 -9 42
-11 23 -41 145 -41 170 0 11 -6 22 -12 24 -10 4 -13 47 -13 174 0 157 2 172
23 207 12 21 22 43 22 50 0 7 6 24 14 39 8 15 17 40 21 57 4 17 10 31 13 31 8
0 32 48 32 64 1 6 9 29 20 51 11 22 19 50 20 63 0 12 5 22 10 22 6 0 10 9 10
19 0 11 5 23 10 26 13 8 13 96 1 127 -19 47 -24 63 -23 71 1 4 -2 7 -7 7 -13
0 -221 -221 -221 -235 0 -6 -11 -22 -25 -35 -14 -13 -25 -28 -25 -33 0 -5 -13
-26 -28 -46 -16 -20 -35 -51 -43 -68 -8 -18 -17 -33 -21 -33 -3 0 -9 -13 -13
-30 -4 -16 -11 -30 -15 -30 -5 0 -12 -17 -16 -37 -4 -21 -11 -41 -16 -44 -21
-13 -36 -393 -16 -405 4 -3 8 -20 8 -39 0 -19 5 -37 11 -40 5 -4 9 -17 8 -28
-1 -12 1 -31 5 -42 12 -31 27 -68 36 -86 5 -9 12 -34 16 -54 4 -21 13 -50 20
-64 8 -14 14 -32 14 -39 0 -14 21 -54 34 -63 5 -4 5 -12 2 -18 -4 -6 2 -24 13
-40 12 -16 21 -43 21 -59 0 -17 5 -34 11 -37 6 -4 9 -22 7 -40 -1 -19 1 -37 5
-41 4 -4 7 -20 7 -35 0 -15 5 -31 11 -34 6 -4 9 -24 8 -46 -2 -21 0 -41 4 -45
4 -4 7 -25 7 -46 0 -21 5 -38 10 -38 6 0 10 -30 10 -70 0 -70 -7 -83 -30 -55
-7 8 -17 15 -22 15 -14 0 -45 28 -163 145 -119 120 -195 202 -195 213 0 4 -20
28 -45 52 -25 24 -45 48 -45 53 0 5 -25 34 -56 65 -72 72 -124 136 -124 151 0
6 -5 11 -12 11 -7 0 -29 16 -48 35 l-37 36 -86 -86 c-86 -84 -99 -110 -74
-137 17 -19 35 -49 48 -78 13 -32 316 -335 349 -350 42 -18 64 -33 120 -80 56
-47 83 -66 113 -76 9 -3 17 -10 17 -14 0 -5 14 -11 30 -15 17 -4 30 -10 30
-15 0 -4 8 -10 18 -14 9 -3 31 -15 47 -26 17 -11 37 -23 45 -27 8 -3 17 -9 20
-13 9 -10 77 -40 93 -40 9 0 19 -4 22 -10 3 -5 15 -10 26 -10 17 0 19 -8 19
-95 0 -95 0 -95 -25 -95 -14 0 -25 5 -25 11 0 5 -5 7 -11 3 -10 -6 -29 1 -81
27 -10 5 -23 9 -29 9 -11 0 -66 22 -101 41 -9 5 -35 12 -58 15 -22 4 -40 10
-40 14 0 5 -14 12 -32 15 -17 4 -51 18 -74 31 -24 13 -52 24 -63 24 -11 0 -22
4 -26 9 -3 5 -19 12 -35 16 -17 4 -30 11 -30 16 0 5 -11 9 -24 9 -13 0 -26 3
-28 8 -4 9 -192 102 -206 102 -6 0 -12 3 -14 8 -3 8 -130 72 -143 72 -4 0 -15
8 -24 19 -9 10 -27 22 -41 26 -14 4 -44 23 -67 41 -23 19 -45 34 -50 34 -5 0
-22 14 -38 30 -16 17 -33 30 -38 30 -12 0 -277 266 -277 278 0 5 -11 19 -25
32 -14 13 -25 30 -25 37 0 8 -7 16 -15 19 -8 4 -15 12 -15 18 0 7 -11 23 -25
36 -14 13 -25 29 -25 35 0 7 -9 20 -20 30 -11 10 -20 22 -20 27 0 15 -48 58
-64 58 -8 0 -18 -4 -21 -10 -3 -5 -19 -10 -36 -10 -16 0 -29 -4 -29 -10 0 -5
-11 -10 -25 -10 -14 0 -33 -4 -43 -9 -9 -6 -47 -24 -84 -41 -70 -33 -120 -76
-103 -88 12 -8 32 -39 45 -70 5 -12 16 -25 24 -28 8 -3 18 -18 21 -34 3 -16
13 -34 21 -41 8 -6 14 -17 14 -23 0 -14 242 -256 256 -256 6 0 19 -9 29 -20
10 -11 24 -20 32 -20 7 0 16 -6 19 -14 3 -8 13 -17 22 -20 21 -7 45 -22 93
-58 20 -16 41 -28 47 -28 5 0 15 -6 21 -14 7 -8 51 -33 99 -56 48 -22 96 -46
106 -52 11 -6 39 -21 62 -34 24 -13 49 -24 57 -24 8 0 35 -11 61 -25 26 -14
56 -25 67 -25 10 0 19 -4 19 -9 0 -5 14 -12 30 -16 17 -4 30 -11 30 -16 0 -5
10 -9 23 -9 13 0 32 -7 43 -15 10 -8 29 -15 42 -15 12 0 22 -4 22 -10 0 -5 16
-12 35 -16 19 -3 38 -10 41 -15 3 -5 16 -9 30 -9 13 0 24 -5 24 -10 0 -6 6
-10 13 -9 19 3 77 -13 83 -22 3 -5 12 -9 21 -9 14 0 66 -20 105 -41 9 -5 35
-12 58 -15 22 -4 40 -10 40 -15 0 -4 25 -11 55 -14 30 -4 55 -11 55 -16 0 -5
15 -9 34 -9 48 0 192 -74 248 -128 26 -25 45 -49 42 -53 -2 -4 5 -24 16 -45
12 -20 19 -38 16 -41 -7 -7 -96 8 -96 17 0 4 -18 10 -40 14 -23 3 -50 11 -60
16 -11 6 -29 15 -40 20 -11 6 -25 10 -32 10 -7 0 -25 6 -39 14 -31 16 -80 30
-96 27 -7 -1 -13 3 -13 9 0 5 -11 10 -24 10 -14 0 -27 4 -30 9 -4 5 -24 12
-46 16 -22 4 -42 11 -46 16 -12 21 -83 2 -114 -31 -3 -3 -18 -12 -35 -20 -16
-8 -46 -26 -65 -40 -19 -14 -52 -34 -72 -45 -21 -11 -38 -23 -38 -26 0 -4 -14
-11 -32 -14 -47 -11 -434 -394 -473 -470 -16 -30 -32 -55 -36 -55 -4 0 -10
-12 -14 -27 -3 -15 -16 -40 -28 -57 -36 -50 -97 -178 -103 -216 -6 -36 -12
-55 -33 -101 -7 -14 -12 -32 -10 -40 2 -14 -6 -41 -21 -70 -4 -9 -11 -41 -15
-73 -4 -31 -11 -59 -16 -62 -5 -3 -9 -50 -9 -104 0 -55 -4 -102 -10 -105 -14
-8 -14 -335 0 -335 6 0 10 -28 10 -64 0 -36 4 -67 8 -70 5 -3 12 -43 15 -90 3
-46 10 -93 16 -103 15 -28 24 -57 22 -70 -1 -6 3 -14 9 -18 5 -3 10 -19 10
-35 0 -16 4 -31 9 -35 6 -3 13 -26 17 -50 3 -25 10 -45 15 -45 5 0 9 -11 9
-24 0 -14 5 -28 10 -31 6 -4 10 -12 9 -18 -2 -13 11 -49 20 -57 13 -11 41 -69
41 -83 0 -9 3 -17 8 -19 6 -2 51 -88 57 -108 7 -22 20 -46 29 -52 6 -4 43 -8
83 -8 39 0 75 -4 78 -10 3 -5 42 -10 85 -10 l80 0 -6 -32 c-3 -18 -10 -50 -16
-70 -6 -21 -9 -77 -6 -130 5 -93 6 -95 42 -130 22 -22 33 -39 27 -43 -6 -3
-11 -19 -11 -35 0 -16 -4 -31 -9 -35 -5 -3 -8 -19 -6 -35 2 -16 0 -32 -6 -35
-5 -4 -9 -24 -9 -46 0 -21 -4 -39 -9 -39 -5 0 -12 -36 -16 -80 -4 -44 -11 -83
-16 -86 -5 -3 -9 -20 -9 -38 0 -18 -3 -36 -7 -40 -4 -4 -6 -22 -5 -41 2 -18
-1 -36 -7 -40 -6 -3 -11 -21 -11 -40 0 -19 -4 -36 -9 -39 -5 -4 -12 -40 -16
-81 -4 -42 -11 -78 -16 -81 -5 -3 -9 -20 -9 -39 0 -19 -4 -36 -9 -39 -5 -3
-12 -39 -16 -81 -4 -41 -10 -77 -15 -80 -4 -3 -11 -41 -15 -85 -4 -44 -11 -80
-16 -80 -5 0 -9 -18 -9 -40 0 -22 -4 -40 -9 -40 -5 0 -12 -36 -16 -80 -4 -44
-11 -80 -16 -80 -5 0 -9 -18 -9 -39 0 -22 -5 -43 -10 -46 -6 -4 -8 -16 -4 -27
3 -11 1 -30 -4 -42 -11 -21 -27 -131 -23 -153 1 -7 -3 -13 -9 -13 -5 0 -10
-18 -10 -39 0 -22 -4 -43 -10 -46 -5 -3 -10 -21 -10 -40 0 -19 -5 -37 -11 -41
-6 -3 -9 -17 -6 -30 6 -33 -4 -37 -44 -17 -19 10 -38 17 -44 18 -13 0 -148 67
-155 76 -3 4 -18 11 -34 15 -17 4 -41 13 -55 20 -14 8 -31 14 -38 14 -7 0 -27
8 -46 19 -18 10 -48 22 -65 26 -18 3 -32 11 -32 16 0 5 -10 9 -23 9 -13 0 -32
7 -43 15 -10 8 -28 15 -39 15 -11 0 -29 7 -39 15 -11 8 -37 15 -57 15 -21 0
-41 5 -44 10 -3 6 -19 10 -35 10 -16 0 -32 5 -36 11 -3 6 -17 8 -29 5 -13 -3
-27 -2 -30 4 -3 5 -21 10 -40 10 -19 0 -36 4 -39 9 -3 5 -33 12 -66 16 -33 4
-60 11 -60 16 0 5 -22 9 -49 9 -28 0 -52 4 -55 9 -3 5 -45 12 -93 16 -49 4
-94 12 -102 19 -21 17 -613 16 -619 -1 -2 -9 -25 -13 -68 -13 -35 0 -64 -4
-64 -8 0 -5 -25 -7 -55 -4 -37 3 -55 1 -55 -7 0 -6 -13 -11 -29 -11 -17 0 -32
-4 -35 -9 -3 -4 -28 -11 -55 -15 -28 -4 -53 -11 -56 -16 -3 -6 -19 -10 -34
-10 -15 0 -31 -3 -35 -7 -4 -4 -17 -8 -29 -8 -23 -2 -51 -10 -79 -26 -10 -5
-23 -9 -30 -9 -21 0 -342 -162 -368 -186 -74 -67 -118 -104 -125 -104 -4 0
-21 -14 -37 -30 -15 -17 -33 -30 -39 -30 -6 0 -25 -16 -42 -35 -17 -19 -36
-35 -42 -35 -6 0 -24 -13 -40 -30 -16 -16 -34 -30 -41 -30 -17 0 -211 -191
-223 -220 -10 -23 -26 -50 -44 -74 -39 -54 -87 -129 -87 -136 0 -6 -5 -10 -11
-10 -5 0 -8 -4 -5 -9 3 -4 -3 -16 -14 -26 -11 -10 -20 -22 -20 -28 0 -5 -12
-26 -28 -46 -31 -41 -49 -69 -59 -91 -4 -8 -14 -22 -23 -30 -9 -8 -20 -22 -23
-30 -4 -8 -18 -35 -32 -59 -14 -24 -25 -52 -25 -63 0 -10 -4 -18 -9 -18 -5 0
-11 -18 -15 -40 -3 -23 -10 -49 -15 -58 -15 -28 -24 -56 -22 -69 1 -6 -3 -14
-9 -18 -5 -3 -10 -17 -10 -31 0 -13 -5 -24 -11 -24 -6 0 -8 -7 -5 -15 3 -9 2
-23 -3 -33 -5 -9 -14 -30 -21 -47 -7 -16 -16 -37 -20 -46 -5 -9 -12 -34 -16
-55 -3 -22 -10 -43 -14 -49 -5 -5 -11 -27 -15 -48 -4 -20 -11 -40 -16 -43 -5
-3 -9 -16 -9 -30 0 -13 -4 -24 -9 -24 -5 0 -7 -8 -4 -19 3 -10 0 -22 -6 -25
-6 -4 -11 -20 -11 -36 0 -16 -4 -31 -9 -34 -5 -4 -13 -56 -16 -116 -4 -61 -12
-113 -16 -116 -5 -3 -9 -34 -9 -69 0 -35 -4 -66 -9 -69 -5 -3 -12 -62 -16
-131 -4 -69 -11 -125 -15 -125 -18 0 -37 -545 -18 -556 4 -3 8 -77 8 -165 0
-87 4 -159 9 -159 4 0 10 -92 13 -205 3 -137 9 -210 16 -217 7 -7 12 -27 12
-44 0 -18 4 -35 9 -38 5 -3 12 -39 16 -81 4 -41 11 -77 16 -81 5 -3 9 -22 9
-42 0 -21 7 -64 15 -95 8 -32 15 -70 15 -85 0 -16 4 -32 10 -38 5 -5 12 -46
16 -92 4 -45 11 -82 15 -82 5 0 9 -17 9 -38 0 -21 3 -42 7 -45 3 -4 8 -19 9
-34 11 -95 17 -123 25 -123 5 0 9 -11 9 -24 0 -14 4 -27 10 -31 5 -3 7 -12 4
-19 -3 -8 -1 -17 5 -21 6 -3 11 -14 11 -24 0 -10 7 -32 15 -47 8 -16 15 -39
15 -51 0 -12 4 -24 9 -27 5 -3 12 -22 15 -42 4 -19 15 -50 25 -68 10 -18 22
-48 26 -67 4 -19 11 -38 15 -44 4 -5 11 -27 14 -49 7 -37 11 -47 33 -91 6 -12
14 -35 18 -53 3 -18 11 -32 16 -32 5 0 9 -11 9 -24 0 -14 4 -27 9 -30 5 -4 12
-25 16 -49 4 -23 11 -46 15 -52 4 -5 11 -26 15 -45 4 -19 11 -41 16 -50 6 -12
15 -35 24 -60 3 -9 17 -44 29 -72 6 -16 14 -28 18 -28 3 0 9 -14 13 -30 4 -17
11 -30 16 -30 5 0 9 -7 9 -15 0 -8 9 -32 20 -52 11 -21 20 -43 20 -50 0 -7 3
-13 8 -13 4 0 21 -29 37 -65 17 -36 34 -65 39 -65 4 0 6 -6 3 -14 -3 -8 -3
-16 1 -18 9 -4 74 -136 70 -140 -2 -2 7 -17 20 -35 12 -17 22 -36 22 -42 0 -6
5 -11 11 -11 6 0 9 -6 6 -14 -3 -8 -3 -16 1 -18 9 -4 72 -132 72 -147 0 -6 5
-11 10 -11 6 0 10 -6 10 -12 0 -7 9 -24 19 -37 10 -14 17 -31 14 -38 -3 -7 -1
-13 5 -13 9 0 25 -37 23 -52 -1 -5 2 -8 7 -8 4 0 13 -15 21 -32 8 -18 26 -49
41 -68 14 -19 34 -52 44 -72 9 -21 21 -38 25 -38 5 0 11 -8 15 -18 3 -9 15
-30 26 -47 11 -16 23 -38 26 -47 4 -10 10 -18 14 -18 4 0 10 -8 14 -17 7 -22
23 -47 62 -98 17 -22 33 -48 37 -58 3 -9 11 -17 17 -17 5 0 10 -7 10 -15 0 -9
10 -26 23 -38 13 -12 27 -29 31 -37 14 -31 32 -57 69 -101 20 -26 37 -50 37
-56 0 -5 11 -20 25 -33 14 -13 25 -30 25 -37 0 -8 7 -16 15 -19 8 -4 15 -12
15 -18 0 -7 11 -23 25 -36 14 -13 25 -29 25 -36 0 -7 18 -28 40 -47 22 -19 40
-39 40 -44 0 -6 18 -28 40 -49 22 -22 40 -44 40 -49 0 -6 18 -29 40 -50 22
-21 40 -44 40 -51 0 -6 23 -32 50 -58 28 -26 50 -50 50 -54 0 -4 127 -133 283
-287 397 -392 431 -425 443 -425 6 0 23 -14 39 -30 16 -17 33 -30 37 -30 5 0
23 -13 41 -30 18 -16 36 -30 40 -30 4 0 21 -16 38 -35 17 -19 36 -35 41 -35 6
0 27 -15 48 -32 55 -49 84 -72 95 -78 36 -19 85 -53 85 -60 0 -4 8 -10 18 -14
9 -3 31 -15 47 -26 17 -11 38 -23 48 -26 9 -4 17 -10 17 -14 0 -4 8 -10 18
-14 19 -6 41 -20 92 -56 19 -14 49 -32 65 -40 17 -8 32 -18 35 -21 8 -9 93
-58 113 -65 9 -4 17 -10 17 -14 0 -5 14 -11 30 -15 17 -4 30 -10 30 -15 0 -4
19 -18 43 -30 47 -24 79 -42 87 -50 9 -10 137 -70 149 -70 6 0 11 -4 11 -10 0
-5 8 -10 17 -10 10 0 49 -15 88 -34 136 -65 162 -76 178 -76 9 0 19 -4 22 -10
3 -5 17 -10 31 -10 13 0 24 -5 24 -11 0 -6 7 -8 15 -5 9 3 25 1 35 -4 11 -6
28 -14 38 -19 10 -5 33 -12 52 -16 19 -4 41 -11 50 -15 31 -15 118 -40 138
-40 12 0 23 -4 26 -9 3 -5 33 -12 66 -16 33 -4 63 -11 66 -16 3 -5 16 -9 29
-9 13 0 26 -4 29 -9 3 -5 33 -12 66 -16 33 -4 63 -11 66 -16 3 -5 20 -9 38 -9
17 0 38 -6 44 -12 19 -19 925 -19 943 0 7 6 32 12 55 12 24 0 45 4 48 9 3 4
32 11 64 13 32 3 68 11 80 17 52 26 62 30 98 37 22 3 44 10 49 14 6 5 27 11
48 15 20 4 40 11 43 16 3 5 16 9 29 9 22 0 124 46 135 61 3 4 18 11 33 14 15
4 27 11 27 16 0 5 7 9 15 9 8 0 32 9 52 20 21 11 43 20 50 20 7 0 13 5 13 10
0 6 9 10 20 10 12 0 40 18 62 40 23 22 46 40 50 40 5 0 22 16 39 35 17 19 36
35 43 35 6 0 24 14 40 30 16 17 34 30 39 30 5 0 42 29 82 65 40 36 77 65 82
65 5 0 22 13 38 30 16 16 33 30 38 30 4 0 23 16 41 35 19 19 38 35 45 35 6 0
11 6 11 13 0 7 9 19 19 27 11 7 18 17 16 20 -3 4 4 15 15 25 11 10 20 22 20
28 0 5 13 26 28 46 16 20 32 43 36 51 14 31 32 57 69 101 20 26 37 49 37 54 0
4 11 21 25 39 38 46 61 81 71 106 4 8 24 36 45 62 22 26 39 56 39 67 0 12 4
21 9 21 5 0 12 20 15 45 4 24 11 47 17 50 5 4 9 15 9 27 0 11 7 34 16 51 30
57 33 64 40 103 4 22 10 41 13 44 14 12 31 52 37 90 4 22 10 40 15 40 5 0 9
10 9 23 0 13 7 32 15 43 8 10 15 29 15 42 0 12 4 22 9 22 5 0 11 18 15 40 3
22 14 54 24 72 11 19 18 51 17 76 0 24 3 46 7 48 4 3 8 29 8 59 0 30 4 56 9
59 4 3 7 24 5 46 -1 22 2 42 7 45 5 4 9 30 9 60 0 30 5 57 10 60 6 3 10 31 10
61 0 30 5 54 10 54 6 0 10 14 10 30 0 28 2 30 40 30 22 0 40 -5 40 -11 0 -7
52 -9 166 -7 91 2 167 0 170 -4 3 -4 38 -8 79 -8 41 0 76 -4 79 -9 3 -4 67
-11 143 -15 76 -4 142 -11 147 -17 6 -5 40 -9 77 -9 37 0 70 -3 72 -7 3 -5 51
-7 106 -6 57 1 101 -3 101 -8 0 -5 31 -9 69 -9 39 0 73 -4 76 -10 3 -5 23 -17
43 -27 20 -9 40 -21 43 -26 3 -5 10 -9 15 -9 22 -2 44 -11 44 -18 0 -4 12 -11
27 -14 14 -4 44 -22 67 -40 41 -32 163 -96 185 -96 6 0 20 -4 31 -10 11 -5 29
-14 40 -20 26 -13 260 -13 260 0 0 6 11 10 24 10 14 0 28 5 31 10 3 6 17 10
30 10 13 0 27 5 30 10 4 6 10 8 15 5 5 -3 11 -1 15 5 3 5 15 10 27 10 11 0 32
6 46 14 43 23 99 46 111 46 6 0 11 3 11 8 0 7 73 42 89 42 5 0 11 7 15 15 3 8
11 15 17 15 7 0 20 7 30 16 19 17 60 41 122 71 20 10 37 21 37 25 0 5 5 8 12
8 7 0 25 12 40 27 24 23 28 35 28 80 0 29 -4 53 -9 53 -5 0 -12 13 -16 30 -4
16 -10 30 -13 30 -4 0 -12 12 -18 28 -7 15 -14 34 -18 42 -3 8 -15 29 -26 45
-11 17 -23 37 -27 45 -3 8 -17 29 -30 46 -13 17 -23 34 -23 38 0 4 -18 26 -40
48 -22 23 -40 46 -40 51 0 4 -14 21 -31 37 l-32 28 8 86 c4 47 11 86 16 86 5
0 9 15 9 34 0 19 4 37 8 40 5 3 7 18 4 34 -2 16 1 33 7 36 6 4 11 25 11 46 0
22 5 40 13 43 9 3 12 65 12 265 0 195 -3 264 -12 273 -7 7 -13 30 -13 51 0 21
-5 38 -11 38 -7 0 -9 10 -7 25 3 14 1 28 -3 31 -5 3 -9 23 -9 45 0 21 -4 39
-10 39 -5 0 -10 15 -10 34 0 19 -13 61 -30 93 -16 31 -30 63 -30 70 0 7 -4 13
-10 13 -5 0 -10 6 -10 13 0 6 -6 23 -14 37 -7 14 -25 47 -40 74 -14 27 -26 57
-26 66 0 10 -7 23 -15 30 -8 7 -15 18 -15 25 0 7 -7 15 -15 19 -8 3 -15 12
-15 19 0 8 -9 22 -20 32 -11 10 -17 21 -15 26 3 4 -3 14 -12 21 -19 14 -33 34
-59 85 -8 17 -40 57 -70 87 -30 31 -54 60 -54 64 0 4 -22 30 -50 57 -27 27
-50 55 -50 62 0 7 -6 13 -13 13 -7 0 -50 38 -97 85 -47 47 -90 85 -97 85 -7 0
-13 4 -13 9 0 5 -11 12 -25 15 -14 4 -25 11 -25 16 0 6 -5 10 -11 10 -6 0 -28
14 -49 30 -21 17 -42 30 -48 30 -5 0 -16 7 -23 16 -7 9 -23 20 -36 25 -14 5
-23 17 -23 29 0 24 32 100 42 100 4 0 10 17 14 38 4 20 12 48 19 62 7 14 24
49 39 77 14 29 26 62 26 73 0 11 4 20 10 20 5 0 12 17 16 38 4 20 10 39 13 42
13 9 41 78 41 98 0 11 3 22 8 24 12 5 42 68 42 89 0 10 4 19 9 19 5 0 12 13
16 30 4 16 10 30 15 30 7 0 22 33 24 57 1 6 5 15 9 19 4 4 7 16 7 26 0 10 5
18 12 18 6 0 8 3 5 6 -4 4 2 19 13 34 11 16 20 38 20 49 0 12 5 21 10 21 6 0
10 6 10 13 0 7 9 29 20 50 11 20 20 44 20 53 0 9 9 28 19 43 11 15 23 40 27
57 4 16 18 49 31 73 12 24 23 52 23 62 0 11 4 19 9 19 5 0 12 12 16 27 3 15
15 39 26 54 10 15 19 33 19 41 1 7 9 31 20 53 11 22 19 45 20 51 0 16 24 64
32 64 3 0 9 13 13 30 4 16 11 32 16 35 5 4 9 13 9 22 0 15 13 49 55 138 20 43
32 72 40 95 1 3 8 19 15 35 7 17 14 35 15 40 2 14 17 49 24 55 11 10 31 50 31
63 0 7 9 29 20 50 11 20 20 46 20 57 0 11 3 20 8 20 7 0 42 73 42 89 0 5 16
40 35 77 19 37 35 72 35 78 1 6 9 29 20 51 11 22 19 46 20 53 0 6 5 12 10 12
6 0 10 11 10 25 0 14 4 25 9 25 5 0 12 14 16 30 4 17 10 30 13 30 8 0 32 48
32 64 1 6 9 29 20 51 11 22 19 46 20 53 0 6 5 12 10 12 6 0 10 9 10 19 0 11 4
22 9 26 5 3 12 19 16 35 4 17 11 30 16 30 5 0 9 9 9 20 0 11 9 37 20 57 11 21
20 48 20 60 0 13 4 23 8 23 5 0 14 16 22 35 8 19 18 35 23 35 5 0 6 7 3 16 -3
9 2 28 13 42 10 15 22 38 25 52 4 14 14 41 22 60 9 19 19 44 24 55 36 88 57
120 83 123 15 2 27 8 27 13 0 5 24 9 53 9 40 0 58 5 70 18 10 10 17 22 17 26
0 4 15 22 33 39 19 18 37 39 40 47 4 8 16 29 27 45 11 17 23 38 26 48 9 23 20
21 29 -5 4 -13 9 -25 10 -28 1 -3 6 -15 10 -27 4 -13 11 -23 15 -23 5 0 11
-14 15 -30 4 -17 10 -30 13 -30 13 0 43 -81 37 -99 -3 -10 -13 -26 -23 -37
-22 -26 -39 -53 -52 -81 -5 -13 -14 -23 -19 -23 -5 0 -11 -8 -15 -17 -3 -10
-15 -31 -26 -48 -11 -16 -23 -37 -27 -45 -3 -8 -21 -33 -40 -56 -18 -23 -33
-45 -33 -49 0 -4 -16 -28 -36 -51 -19 -24 -32 -44 -29 -44 4 0 -5 -15 -19 -33
-41 -51 -42 -51 -49 -67 -4 -8 -16 -28 -26 -45 -11 -16 -22 -49 -26 -72 -4
-24 -11 -43 -15 -43 -4 0 -10 -18 -14 -40 -3 -23 -10 -49 -15 -58 -9 -18 -24
-54 -37 -87 -4 -11 -6 -25 -5 -32 1 -6 -3 -14 -9 -18 -5 -3 -10 -17 -10 -31 0
-13 -4 -24 -9 -24 -5 0 -12 -20 -15 -45 -4 -24 -11 -47 -16 -50 -5 -3 -12 -26
-16 -50 -3 -25 -10 -48 -15 -51 -5 -3 -9 -14 -9 -25 0 -10 -4 -19 -9 -19 -5 0
-11 -19 -15 -42 -4 -23 -11 -47 -15 -53 -12 -14 -23 -71 -25 -127 -1 -26 -5
-50 -9 -54 -4 -4 -7 -33 -7 -64 0 -31 -3 -60 -7 -64 -5 -4 -9 -29 -10 -54 -7
-125 -16 -202 -24 -202 -5 0 -9 -28 -9 -63 0 -37 -5 -68 -12 -76 -17 -16 -15
-858 1 -874 7 -7 11 -68 11 -163 0 -91 4 -155 10 -159 6 -3 10 -26 10 -50 0
-24 4 -46 9 -50 5 -3 7 -20 4 -39 -3 -19 -1 -36 6 -40 6 -4 11 -25 11 -46 0
-21 4 -41 8 -44 5 -3 7 -18 4 -34 -2 -16 1 -33 7 -36 6 -4 11 -27 11 -51 0
-24 4 -46 9 -49 5 -4 12 -40 16 -81 4 -42 11 -78 16 -81 5 -3 9 -20 9 -39 0
-19 4 -36 9 -39 5 -3 12 -44 16 -91 4 -47 11 -87 16 -91 5 -3 9 -17 9 -31 0
-26 26 -144 38 -173 3 -8 7 -19 7 -25 2 -13 16 -50 44 -117 6 -13 13 -39 17
-58 3 -19 10 -41 14 -50 21 -40 40 -90 40 -103 0 -9 4 -18 10 -22 5 -3 7 -12
4 -19 -3 -8 -1 -17 5 -21 6 -3 11 -17 11 -31 0 -13 5 -24 10 -24 6 0 10 -11
10 -25 0 -14 4 -25 9 -25 5 0 12 -18 16 -41 4 -22 13 -53 21 -67 8 -15 14 -35
14 -44 0 -9 4 -19 9 -23 6 -3 13 -26 17 -50 3 -25 10 -45 15 -45 5 0 9 -9 9
-20 0 -11 4 -28 9 -38 10 -19 23 -51 26 -67 6 -30 18 -55 27 -55 5 0 9 -8 8
-17 -3 -25 10 -63 21 -63 5 0 9 -6 9 -12 0 -7 7 -26 16 -43 26 -48 70 -137 85
-172 8 -18 17 -33 21 -33 5 0 8 -6 8 -12 0 -7 6 -24 14 -38 25 -46 64 -125 97
-195 18 -38 35 -72 39 -75 4 -3 21 -36 39 -75 61 -130 86 -180 91 -185 5 -5
54 -101 56 -110 4 -21 22 -51 51 -87 19 -24 31 -43 27 -43 -3 0 5 -15 20 -34
14 -19 26 -39 26 -44 0 -5 9 -17 20 -27 11 -10 17 -21 15 -26 -3 -4 3 -14 13
-21 11 -7 23 -24 27 -38 4 -14 18 -38 32 -55 36 -46 59 -81 70 -105 3 -8 22
-35 42 -60 35 -43 53 -70 67 -100 4 -8 17 -24 28 -36 24 -23 42 -49 55 -79 5
-11 18 -29 30 -39 11 -11 21 -25 21 -31 0 -7 7 -15 15 -19 8 -3 15 -11 15 -19
0 -7 11 -24 25 -37 14 -13 25 -27 25 -32 0 -5 15 -25 34 -46 102 -110 136
-150 136 -157 0 -5 18 -26 40 -46 22 -21 40 -41 40 -46 0 -5 20 -29 45 -53 25
-24 45 -49 45 -55 0 -6 41 -51 90 -100 50 -49 90 -94 90 -100 0 -13 272 -285
285 -285 6 0 35 -25 65 -55 30 -30 60 -55 66 -55 7 0 25 -15 41 -32 15 -18 55
-55 88 -83 33 -27 62 -53 63 -57 2 -5 8 -8 14 -8 10 0 72 -51 128 -106 14 -13
30 -24 36 -24 5 0 25 -16 44 -35 19 -19 38 -35 43 -35 5 0 31 -18 57 -40 26
-22 51 -40 55 -40 4 0 24 -13 44 -28 20 -16 43 -32 51 -35 8 -4 29 -16 45 -27
17 -11 37 -23 45 -27 8 -4 20 -13 25 -20 11 -15 49 -39 78 -49 9 -3 17 -10 17
-15 0 -5 10 -14 23 -19 12 -6 38 -20 57 -32 72 -43 97 -57 168 -94 39 -20 72
-40 72 -43 0 -3 15 -12 33 -20 31 -13 145 -66 292 -137 39 -18 82 -36 98 -40
15 -3 27 -10 27 -15 0 -4 16 -11 35 -15 19 -3 38 -10 41 -15 3 -5 16 -9 29 -9
13 0 26 -4 29 -9 3 -5 22 -12 42 -16 20 -3 45 -11 55 -16 11 -5 28 -14 39 -19
12 -6 25 -8 30 -5 5 3 11 1 15 -5 3 -5 16 -10 29 -10 12 0 27 -5 32 -10 6 -6
34 -13 62 -17 29 -3 52 -10 52 -14 0 -5 13 -9 29 -9 17 0 32 -4 36 -9 3 -5 30
-13 60 -16 31 -4 58 -11 60 -15 3 -5 34 -12 70 -15 36 -4 65 -11 65 -16 0 -5
17 -9 38 -9 21 0 43 -5 50 -12 15 -15 856 -26 874 -11 7 6 38 9 70 6 33 -2 59
0 63 7 3 5 33 10 65 10 32 0 61 4 65 9 3 6 26 13 50 17 25 3 45 10 45 14 0 4
18 10 40 14 23 3 49 10 58 15 45 23 101 43 131 47 27 3 214 94 219 106 2 4 9
8 15 8 7 1 30 9 52 20 22 11 47 19 56 20 9 0 35 20 58 45 23 25 45 45 50 45 5
0 23 13 39 30 17 16 34 30 38 30 3 0 24 15 45 32 21 18 55 47 75 63 21 17 54
45 75 63 20 17 40 32 44 32 7 0 38 26 128 105 15 14 32 25 38 25 5 0 15 11 21
25 6 14 14 25 18 25 4 0 10 8 14 18 3 9 15 31 26 47 11 17 23 37 27 45 4 8 24
36 45 61 21 25 38 49 38 53 0 4 4 12 10 19 44 54 60 76 60 82 0 4 14 24 30 44
41 48 45 54 53 71 4 8 16 29 27 45 11 17 24 40 29 52 6 12 19 28 31 35 11 7
20 23 20 35 0 13 4 23 9 23 5 0 11 18 15 40 3 22 14 54 24 72 11 18 17 38 15
45 -2 6 1 14 6 18 6 3 11 17 11 31 0 13 4 24 9 24 5 0 13 14 16 32 7 31 11 41
36 89 6 12 8 23 5 26 -2 3 4 19 14 37 9 18 21 47 25 65 4 18 13 44 21 59 8 15
14 37 14 50 0 12 5 22 10 22 6 0 10 11 10 25 0 14 4 25 9 25 13 0 22 39 23 93
0 26 4 47 9 47 5 0 9 24 9 54 0 30 4 57 9 60 4 3 12 51 15 106 4 55 11 102 16
105 4 3 11 54 15 115 4 61 11 113 16 116 5 3 9 27 9 53 0 26 5 52 11 58 14 14
13 543 -1 557 -6 6 -10 103 -10 237 0 125 -4 230 -9 233 -5 3 -12 43 -16 88
-4 46 -11 88 -16 94 -4 5 -11 47 -15 92 -4 45 -11 82 -15 82 -5 0 -9 18 -9 39
0 22 -5 43 -11 46 -6 4 -9 24 -8 46 2 21 0 41 -4 45 -4 4 -7 25 -7 46 0 21 -4
38 -9 38 -5 0 -12 21 -15 48 -13 109 -32 221 -38 228 -5 4 -8 27 -8 50 0 24
-5 46 -11 49 -6 4 -8 13 -5 21 3 7 1 16 -4 19 -6 4 -10 17 -10 30 0 13 -5 27
-10 30 -6 4 -8 10 -5 15 5 9 3 16 -23 66 -6 12 -14 38 -17 58 -4 20 -11 39
-16 42 -5 3 -9 13 -9 23 0 10 -7 32 -15 47 -8 16 -15 39 -15 51 0 12 -4 24 -9
28 -6 3 -13 26 -17 50 -3 25 -10 45 -15 45 -5 0 -9 11 -9 24 0 14 -4 27 -9 30
-5 4 -12 24 -16 46 -4 22 -10 40 -15 40 -4 0 -11 20 -14 45 -4 24 -11 47 -17
50 -5 4 -9 17 -9 30 0 13 -4 26 -9 29 -5 3 -12 23 -16 43 -4 21 -10 43 -15 48
-9 12 -24 67 -21 79 1 5 -2 12 -6 15 -11 7 -43 75 -43 90 0 6 -4 11 -9 11 -5
0 -12 10 -16 23 -4 12 -9 24 -10 27 -1 3 -6 15 -10 27 -4 13 -11 23 -15 23 -5
0 -11 13 -15 30 -4 16 -11 30 -16 30 -5 0 -9 7 -9 15 0 8 -4 15 -9 15 -5 0
-12 16 -15 35 -4 19 -11 35 -15 35 -5 0 -12 12 -16 27 -3 15 -15 39 -25 53
-10 14 -22 38 -25 53 -4 15 -11 27 -16 27 -5 0 -9 7 -9 15 0 8 -5 15 -11 15
-6 0 -9 6 -6 13 2 6 -4 23 -13 37 -10 14 -21 36 -25 50 -4 14 -11 27 -14 30
-3 3 -19 32 -36 65 -16 33 -33 63 -38 66 -5 4 -6 12 -3 18 4 6 3 11 -1 11 -9
0 -43 72 -43 90 0 6 -3 10 -8 10 -4 0 -15 18 -25 40 -9 22 -21 40 -26 40 -5 0
-11 8 -15 18 -3 9 -15 31 -26 47 -11 17 -23 38 -26 48 -4 9 -10 17 -14 17 -4
0 -10 8 -14 18 -6 19 -20 41 -56 92 -14 19 -32 49 -40 65 -8 17 -26 46 -40 65
-14 19 -32 49 -40 65 -8 17 -23 37 -33 45 -18 15 -37 45 -56 86 -5 12 -18 28
-28 36 -19 14 -37 40 -52 73 -5 11 -18 29 -30 39 -11 11 -21 24 -21 30 0 6 -9
17 -21 24 -12 7 -19 16 -16 19 3 3 -5 17 -19 31 -13 15 -24 32 -24 38 0 6 -29
43 -65 82 -36 38 -65 74 -65 79 0 5 -18 27 -40 48 -22 21 -40 43 -40 47 0 5
-22 31 -50 58 -27 27 -50 53 -50 58 0 4 -18 26 -40 47 -22 21 -40 44 -40 50 0
6 -83 93 -185 193 -102 100 -185 186 -185 192 0 5 -4 10 -9 10 -5 0 -47 37
-94 83 -159 153 -294 277 -300 277 -4 0 -25 18 -47 40 -22 22 -44 40 -48 40
-4 0 -26 18 -47 40 -21 22 -43 40 -48 40 -5 0 -48 35 -96 78 -83 75 -109 95
-141 109 -8 4 -17 9 -20 13 -13 16 -106 76 -132 86 -10 3 -18 10 -18 15 0 5
-10 14 -22 19 -33 14 -57 30 -112 75 -28 22 -52 40 -55 41 -16 2 -49 19 -76
39 -16 12 -50 31 -75 44 -50 24 -82 43 -90 52 -3 3 -21 13 -40 23 -58 30 -99
53 -112 63 -7 5 -29 16 -48 23 -19 7 -47 21 -61 31 -14 10 -37 21 -52 24 -15
4 -27 11 -27 16 0 5 -6 9 -12 9 -10 0 -169 74 -260 121 -9 5 -35 12 -58 15
-22 4 -40 10 -40 14 0 8 -50 20 -82 21 -10 0 -18 4 -18 8 0 8 -47 23 -77 25
-6 1 -15 5 -19 9 -4 4 -14 7 -22 7 -7 0 -26 8 -40 19 -15 10 -52 22 -82 26
-30 4 -60 11 -66 16 -7 6 -35 12 -63 16 -28 3 -51 10 -51 14 0 5 -9 9 -19 9
-11 0 -22 4 -25 9 -3 4 -26 11 -52 15 -26 3 -52 10 -58 15 -12 10 -120 19
-218 20 -34 0 -58 4 -58 10 0 7 -26 11 -64 11 -36 0 -67 4 -70 8 -8 13 -373
15 -381 3 -3 -6 -35 -11 -71 -11 -35 0 -64 -4 -64 -10 0 -5 -8 -9 -17 -8 -35
4 -223 -15 -223 -22 0 -7 -21 -12 -95 -23 -22 -4 -52 -14 -75 -27 -9 -4 -40
-11 -70 -15 -30 -4 -62 -12 -71 -18 -23 -14 -47 -2 -59 28 -5 14 -14 25 -19
25 -5 0 -11 8 -15 18 -3 9 -11 26 -18 36 -18 27 -81 125 -93 145 -24 39 -50
76 -55 81 -3 3 -14 22 -23 43 -10 20 -21 37 -25 37 -4 0 -16 22 -27 50 -11 27
-23 50 -26 50 -4 0 -10 13 -14 30 l-7 30 -167 0 c-148 0 -170 2 -183 18 -8 9
-47 82 -87 162 -73 146 -91 181 -102 190 -8 8 -39 77 -39 89 0 6 -4 11 -9 11
-5 0 -12 12 -16 27 -3 15 -14 38 -24 52 -10 14 -22 37 -26 51 -4 14 -10 27
-14 30 -9 8 -27 39 -63 110 -18 36 -36 66 -40 68 -5 2 -8 9 -8 15 0 15 -47
108 -83 164 -14 23 -29 53 -33 67 -3 14 -10 26 -15 26 -5 0 -9 5 -9 11 0 6 -9
23 -19 38 -11 15 -23 39 -26 54 -4 15 -11 27 -16 27 -5 0 -9 5 -9 11 0 16 -31
80 -52 108 -16 21 -46 80 -79 159 -8 17 -17 32 -20 32 -4 0 -10 12 -14 27 -3
15 -10 30 -13 33 -9 7 -26 35 -54 90 -13 25 -26 46 -30 48 -5 2 -8 9 -8 15 0
6 -23 58 -51 115 l-52 103 22 23 c11 12 21 26 21 30 0 5 12 25 28 45 15 20 32
45 38 56 10 17 23 20 99 23 49 2 96 0 104 -4 9 -4 32 -8 51 -9 19 -1 97 -6
173 -10 l138 -8 60 59 c32 32 59 62 59 65 0 4 29 38 65 76 38 40 60 70 52 72
-6 2 -26 19 -44 38 -17 18 -35 33 -39 33 -4 0 -21 12 -36 27 l-28 27 37 18
c21 9 43 17 49 18 15 0 112 50 149 76 34 24 157 84 171 84 5 0 62 27 127 59
64 32 129 62 144 66 15 3 31 11 34 17 3 5 25 12 48 15 42 6 43 5 122 -73 43
-43 79 -83 79 -88 0 -5 45 -54 100 -108 55 -55 101 -105 102 -111 1 -12 656
-661 756 -750 29 -26 57 -47 61 -47 5 0 31 -22 57 -50 26 -27 53 -50 60 -50 6
0 25 -16 41 -35 17 -19 35 -35 42 -35 6 0 11 -5 11 -10 0 -6 16 -24 35 -41 19
-17 35 -36 35 -43 0 -7 18 -30 40 -51 22 -21 40 -44 40 -49 0 -6 19 -30 43
-54 40 -42 41 -44 23 -58 -12 -9 -44 -14 -83 -14 -35 0 -63 -4 -63 -10 0 -5
-13 -10 -29 -10 -17 0 -33 -5 -37 -11 -3 -6 -17 -8 -29 -5 -13 3 -27 2 -30 -4
-3 -5 -28 -10 -55 -10 -45 0 -50 -2 -56 -26 -8 -30 1 -95 14 -103 5 -3 12 -16
16 -28 4 -12 39 -54 77 -93 l70 -70 127 1 c70 0 150 4 177 9 100 18 120 23
125 30 3 4 21 9 41 13 35 5 40 2 125 -84 l89 -90 205 2 c113 1 212 5 220 9 8
4 25 12 37 18 13 7 29 12 36 12 7 0 24 11 37 24 12 14 35 28 51 31 16 4 29 10
29 15 0 5 13 11 29 15 16 3 35 13 42 21 16 20 84 52 125 60 18 3 40 14 49 24
10 11 29 22 44 25 17 4 31 17 40 38 8 18 24 46 36 62 12 17 25 37 29 45 4 8
12 24 19 35 16 27 220 231 238 238 10 4 10 6 2 6 -9 1 -13 23 -13 76 0 55 -4
75 -13 75 -7 0 -33 20 -57 45 -24 25 -50 45 -57 45 -7 0 -13 5 -13 10 0 6 -9
10 -19 10 -10 0 -21 7 -25 15 -3 8 -12 15 -20 15 -30 0 -55 49 -62 121 -4 38
-11 72 -15 75 -5 3 -9 21 -9 40 0 19 -9 51 -20 71 -11 21 -20 43 -20 50 0 7
-4 13 -10 13 -5 0 -10 7 -10 15 0 8 -3 15 -8 15 -4 0 -13 19 -20 43 -19 61
-101 226 -134 268 -15 20 -28 40 -28 44 0 6 -16 28 -60 82 -6 7 -10 16 -10 21
0 4 -13 21 -30 37 -16 16 -30 34 -30 41 0 6 -16 26 -35 43 -19 17 -35 35 -35
41 0 5 -4 10 -8 10 -5 0 -40 32 -78 71 -38 39 -78 75 -89 80 -18 8 -39 21 -69
41 -6 4 -27 20 -46 35 -19 15 -51 37 -70 47 -19 11 -37 22 -40 26 -3 3 -22 14
-42 23 -21 10 -38 22 -38 26 0 5 -18 11 -40 15 -22 3 -40 11 -40 16 0 6 -11
10 -25 10 -14 0 -25 4 -25 10 0 5 -18 13 -40 16 -22 4 -40 10 -40 14 0 9 -50
25 -64 21 -9 -2 -30 6 -76 29 -9 4 -35 11 -58 15 -23 4 -42 10 -42 15 0 10
-54 21 -97 21 -18 -1 -35 4 -38 9 -3 6 -17 10 -30 10 -13 0 -26 4 -29 9 -3 5
-33 12 -66 16 -33 4 -63 11 -66 16 -3 5 -36 9 -75 9 -39 0 -69 4 -69 10 0 6
-6 10 -13 10 -13 0 -67 93 -67 115 0 9 -43 105 -61 135 -5 8 -12 22 -16 30 -3
8 -16 29 -28 45 -11 17 -31 50 -44 75 -27 56 -64 123 -71 130 -3 3 -13 21 -23
40 -32 65 -73 136 -85 151 -39 47 -62 78 -62 84 0 4 -20 31 -45 59 -25 29 -45
57 -45 63 0 5 -11 19 -25 31 -14 12 -25 28 -25 36 0 8 -3 16 -7 18 -10 4 -63
74 -63 83 0 3 -28 35 -62 71 -35 36 -67 72 -71 80 -12 20 -176 184 -185 184
-5 0 -26 18 -47 40 -21 22 -44 40 -50 40 -6 0 -29 18 -50 40 -21 22 -43 40
-49 40 -5 0 -31 18 -57 40 -26 22 -51 40 -55 40 -12 0 -136 113 -142 129 -3 9
-8 18 -11 21 -5 4 -53 96 -57 110 -13 41 -18 50 -24 50 -4 0 -11 12 -15 27 -3
15 -10 30 -14 33 -4 3 -17 25 -29 50 -12 25 -35 68 -52 95 -17 28 -33 58 -36
68 -4 9 -10 17 -14 17 -4 0 -11 12 -15 27 -3 15 -14 34 -23 43 -19 17 -34 39
-58 87 -9 18 -22 37 -30 44 -8 6 -14 16 -14 21 0 6 -18 37 -40 70 -22 33 -40
62 -40 65 0 2 -10 19 -23 36 -32 46 -42 63 -86 152 -22 44 -49 89 -60 99 -12
11 -21 23 -21 28 0 12 -78 107 -107 131 -13 10 -23 24 -23 30 0 7 36 48 79 92
68 68 78 82 67 95 -7 8 -23 36 -35 62 -12 25 -29 52 -37 58 -7 7 -14 18 -14
26 0 7 -6 17 -13 21 -12 8 -23 30 -98 188 -18 39 -36 72 -39 75 -3 3 -15 26
-28 52 -13 26 -28 50 -33 54 -19 11 -130 -7 -136 -23 -5 -13 42 -121 58 -133
3 -3 9 -22 13 -42 4 -21 11 -38 16 -38 4 0 11 -13 15 -30 4 -16 11 -32 16 -35
5 -4 9 -21 9 -40 0 -19 5 -37 10 -40 6 -3 7 -17 4 -30 -3 -12 -1 -26 5 -29 6
-4 11 -40 11 -84 l0 -77 -188 -188 c-103 -103 -192 -187 -197 -187 -6 0 -31
-22 -57 -48 -48 -49 -70 -66 -103 -81 -11 -5 -29 -18 -39 -30 -11 -11 -23 -21
-29 -21 -5 0 -26 -13 -46 -28 -20 -16 -51 -35 -68 -43 -18 -8 -33 -17 -33 -21
0 -14 -45 -7 -75 13 -16 10 -37 22 -45 26 -8 3 -17 9 -20 12 -13 15 -182 101
-199 101 -5 0 -11 4 -13 8 -1 5 -32 23 -68 41 -36 17 -72 36 -80 41 -27 15
-88 40 -99 40 -6 0 -11 3 -11 8 0 7 -37 25 -80 37 -14 4 -27 11 -30 14 -8 11
-77 41 -93 41 -9 0 -18 4 -21 9 -3 5 -22 12 -41 15 -19 4 -35 11 -35 16 0 6
61 10 150 10 93 0 150 4 150 10 0 6 13 10 29 10 17 0 33 5 36 10 4 6 15 8 24
5 10 -3 24 1 31 10 7 8 18 15 24 15 6 0 18 9 26 20 8 11 20 20 26 20 20 0 44
59 44 107 0 30 5 45 15 48 27 9 39 15 70 34 17 11 37 20 46 20 22 1 29 30 29
119 0 40 5 82 12 95 6 12 14 29 18 37 5 10 26 16 66 18 32 2 63 7 69 11 5 5
54 12 107 16 64 4 101 12 109 21 6 8 18 14 27 14 12 0 14 12 8 76 -4 42 -11
83 -16 92 -11 23 -24 55 -25 67 0 6 -8 26 -17 45 -49 104 -64 252 -30 283 10
10 22 17 26 17 4 0 20 9 35 19 15 11 40 23 57 27 16 4 44 16 62 26 18 10 38
18 45 18 7 0 25 13 40 28 l27 28 0 176 0 175 48 7 c26 4 74 9 107 12 56 5 103
20 150 46 66 38 108 58 121 58 9 0 30 11 48 25 18 14 38 25 44 25 7 0 12 5 12
11 0 6 18 31 40 56 22 25 40 51 40 58 0 7 7 18 15 25 8 7 15 27 15 46 0 18 5
36 10 39 6 3 10 39 10 80 0 41 -4 77 -10 80 -5 3 -10 24 -10 45 0 21 -4 41 -9
44 -4 3 -11 35 -14 72 -4 36 -11 71 -15 78 -9 10 -20 54 -25 101 -3 28 -119
259 -138 275 -3 3 -9 14 -14 25 -4 11 -9 22 -10 25 -2 3 -6 15 -10 28 -4 12
-11 22 -15 22 -4 0 -11 12 -15 27 -3 15 -10 30 -13 33 -12 8 -62 78 -62 85 0
4 -13 24 -28 44 -15 20 -34 49 -42 65 -8 17 -54 73 -102 127 -48 53 -84 100
-81 103 3 3 -3 9 -13 12 -10 4 -70 56 -131 116 -62 59 -119 108 -126 108 -8 0
-24 11 -37 25 -13 14 -27 25 -32 25 -5 0 -14 4 -21 10 -7 5 -28 22 -47 37 -19
16 -52 37 -72 48 -21 11 -38 22 -38 26 0 4 -8 9 -17 13 -18 5 -53 26 -63 36
-19 19 -81 60 -92 60 -7 1 -31 9 -53 20 -22 11 -45 19 -52 20 -6 0 -13 3 -15
8 -6 13 -112 62 -135 62 -12 0 -24 4 -28 9 -3 6 -26 13 -50 17 -25 3 -45 10
-45 14 0 4 -20 11 -45 14 -24 4 -47 11 -50 17 -4 5 -21 9 -40 9 -19 0 -36 4
-39 9 -3 5 -32 12 -63 16 -32 4 -64 12 -72 18 -14 12 -564 19 -691 10z m113
-301 c7 -5 40 -13 75 -17 34 -4 65 -11 68 -16 3 -5 21 -9 40 -9 22 0 48 -9 67
-24 18 -13 43 -27 57 -31 14 -4 27 -10 30 -14 5 -7 59 -36 130 -72 25 -12 47
-26 50 -29 3 -4 16 -11 30 -15 22 -7 50 -28 137 -105 12 -11 26 -20 31 -20 5
0 17 -9 27 -20 10 -11 22 -20 28 -20 5 0 35 -22 67 -50 32 -27 63 -50 69 -50
6 0 11 -6 11 -13 0 -7 29 -42 65 -77 36 -35 65 -68 65 -71 0 -4 32 -38 71 -76
39 -37 75 -77 80 -88 13 -30 32 -56 55 -79 11 -12 24 -28 28 -36 17 -37 94
-141 117 -160 4 -3 10 -35 13 -72 4 -38 12 -68 17 -68 5 0 9 -15 9 -34 0 -19
5 -38 10 -41 6 -4 10 -14 8 -23 -1 -10 1 -23 5 -29 5 -7 5 -19 0 -25 -4 -7 -8
-17 -8 -23 -1 -12 -13 -43 -24 -65 -5 -9 -12 -30 -16 -48 -3 -18 -9 -32 -13
-32 -10 0 -42 33 -42 43 0 5 -10 20 -22 31 -25 24 -43 50 -57 81 -5 11 -18 29
-30 39 -11 11 -21 25 -21 31 0 7 -7 15 -15 19 -8 3 -15 11 -15 19 0 7 -18 31
-40 52 -22 21 -40 43 -40 48 0 4 -16 23 -35 41 -19 19 -35 38 -35 43 0 5 -13
22 -30 38 -16 16 -30 35 -30 42 0 7 -6 13 -13 13 -7 0 -59 47 -117 105 -58 58
-108 105 -113 105 -5 0 -25 18 -46 40 -20 22 -42 40 -47 40 -5 0 -32 23 -59
50 -27 28 -53 50 -58 50 -5 0 -26 14 -47 30 -21 17 -41 30 -45 30 -7 0 -54 35
-92 70 -12 11 -25 20 -29 20 -10 0 -138 63 -144 71 -10 13 -185 99 -202 99 -9
0 -20 5 -23 10 -3 6 -13 10 -22 10 -8 0 -31 7 -51 16 -63 27 -76 33 -102 39
-41 11 -130 56 -130 66 0 5 -5 9 -12 9 -18 0 -88 71 -88 90 0 23 31 38 92 45
29 4 62 11 73 15 11 5 34 11 50 14 50 7 225 -1 238 -12z m-570 -484 c48 -25
57 -28 78 -28 11 0 35 -10 52 -23 43 -30 63 -42 117 -68 25 -12 61 -35 81 -51
20 -15 41 -28 46 -28 6 0 18 -9 28 -20 10 -11 24 -20 32 -20 7 0 16 -7 19 -15
4 -8 11 -15 18 -15 6 0 52 -40 101 -90 49 -49 94 -90 99 -90 14 0 356 -325
356 -338 0 -5 9 -17 20 -27 11 -10 20 -22 20 -28 0 -5 20 -32 45 -59 25 -28
43 -54 40 -58 -3 -5 -1 -11 5 -15 5 -3 10 -13 10 -21 0 -16 -55 -20 -64 -5 -3
5 -37 12 -76 16 -38 4 -70 10 -70 15 0 4 -18 10 -40 14 -23 3 -50 11 -60 16
-11 6 -29 15 -40 20 -11 6 -25 10 -32 10 -16 0 -137 59 -173 85 -16 12 -47 30
-67 40 -21 11 -38 23 -38 27 0 5 -6 8 -13 8 -7 0 -31 18 -52 40 -21 22 -44 40
-49 40 -13 0 -286 271 -286 283 0 5 -11 23 -25 41 -14 17 -29 36 -34 42 -5 6
-12 21 -16 35 -4 13 -15 35 -25 49 -10 14 -21 36 -25 50 -4 14 -12 28 -18 32
-12 7 -22 110 -14 133 8 18 20 19 50 3z m911 -3677 c3 -5 38 -12 77 -16 39 -4
83 -13 98 -21 14 -8 33 -14 41 -14 8 0 26 -9 40 -20 14 -11 33 -20 42 -20 20
0 170 -76 218 -110 37 -27 66 -45 90 -56 8 -4 22 -15 30 -23 18 -19 44 -36 85
-55 17 -7 50 -34 75 -60 24 -25 50 -46 57 -46 7 0 13 -5 13 -12 0 -7 17 -29
37 -50 36 -37 40 -38 105 -38 50 0 68 -4 68 -13 0 -20 57 -127 80 -152 11 -12
20 -25 20 -29 0 -4 11 -17 25 -30 14 -13 25 -28 25 -33 0 -5 11 -20 25 -33 14
-13 25 -28 25 -33 0 -5 20 -34 45 -63 25 -28 45 -56 45 -61 0 -5 16 -24 35
-43 19 -19 35 -38 35 -43 0 -6 25 -34 55 -63 30 -30 55 -57 55 -61 0 -5 54
-62 120 -128 83 -83 120 -127 120 -142 0 -13 4 -23 9 -23 8 0 21 -29 25 -55 3
-21 218 -444 231 -455 8 -6 17 -25 20 -41 4 -16 11 -29 15 -29 5 0 17 -17 26
-37 10 -21 33 -57 51 -80 19 -24 31 -43 28 -43 -3 0 9 -19 27 -42 39 -50 54
-75 68 -105 5 -12 18 -28 30 -35 11 -7 20 -18 20 -24 0 -6 11 -21 25 -34 14
-13 25 -28 25 -33 0 -5 12 -24 28 -42 15 -17 34 -43 42 -56 24 -38 212 -229
226 -229 7 0 17 -6 21 -12 9 -15 41 -36 66 -44 26 -9 20 -22 -15 -29 -17 -4
-47 -16 -65 -26 -18 -10 -33 -15 -33 -11 0 4 -4 2 -8 -4 -8 -12 -75 -44 -91
-44 -6 0 -11 -4 -11 -10 0 -5 -7 -10 -17 -10 -19 0 -303 -139 -303 -149 0 -3
-15 -12 -32 -20 -18 -8 -49 -26 -68 -41 -19 -15 -42 -30 -50 -33 -24 -11 -54
-31 -70 -48 -8 -8 -22 -19 -30 -22 -8 -4 -28 -16 -45 -27 -16 -11 -38 -23 -47
-26 -10 -4 -18 -10 -18 -15 0 -11 -717 -12 -722 -1 -1 4 -26 26 -55 50 -42 34
-59 42 -92 42 -22 0 -42 -4 -45 -9 -3 -5 -33 -12 -66 -16 -33 -4 -63 -11 -66
-16 -3 -5 -18 -9 -35 -9 -22 0 -29 -5 -29 -19 0 -11 4 -22 9 -26 5 -3 12 -19
16 -35 4 -17 10 -30 15 -30 4 0 11 -10 15 -22 4 -13 9 -25 10 -28 1 -3 6 -15
10 -27 4 -13 11 -23 15 -23 5 0 11 -13 15 -30 4 -16 10 -30 13 -30 8 0 42 -74
42 -90 0 -6 4 -10 9 -10 5 0 12 -13 16 -30 4 -16 10 -30 13 -30 8 0 42 -74 42
-90 0 -6 6 -10 12 -10 7 0 -18 -30 -55 -68 -37 -37 -67 -72 -67 -78 0 -5 -29
-39 -65 -74 -36 -35 -65 -68 -65 -72 0 -4 -25 -30 -55 -59 l-55 -52 0 -113 0
-114 -409 0 c-263 0 -412 4 -416 10 -6 10 -807 15 -816 5 -3 -2 105 -115 241
-250 l246 -245 629 0 630 0 18 -40 c9 -22 21 -40 27 -40 5 0 10 -6 10 -13 0
-7 18 -31 40 -52 22 -21 40 -43 40 -49 0 -5 25 -37 56 -70 30 -34 81 -89 112
-123 31 -34 62 -63 68 -63 6 0 21 -11 34 -25 13 -14 28 -25 33 -25 6 0 60 -49
121 -108 101 -99 141 -130 187 -148 13 -4 17 -27 21 -122 4 -73 10 -118 17
-120 6 -2 11 -16 11 -31 0 -15 5 -32 11 -38 6 -6 9 -26 7 -44 l-3 -34 -204 -3
-204 -2 -114 57 c-63 32 -123 62 -134 68 -10 5 -19 13 -19 17 0 5 -4 8 -9 8
-15 0 -52 17 -96 44 -22 14 -60 35 -85 48 -25 12 -58 32 -75 43 -54 36 -70 45
-87 51 -10 4 -18 10 -18 15 0 5 -4 9 -10 9 -17 0 -90 34 -90 42 0 5 -5 8 -11
8 -13 0 -141 61 -149 71 -3 3 -16 10 -30 14 -14 4 -34 15 -45 25 -11 10 -35
21 -52 25 -18 3 -33 11 -33 16 0 5 -4 9 -10 9 -17 0 -90 34 -90 42 0 5 -5 8
-11 8 -24 0 -144 66 -173 96 -17 17 -38 34 -46 38 -41 19 -70 40 -136 100 -40
36 -76 66 -81 66 -5 0 -27 18 -48 40 -21 22 -43 40 -48 40 -5 0 -25 18 -46 40
-20 22 -42 40 -47 40 -6 0 -25 16 -44 35 -19 19 -38 35 -43 35 -9 0 -64 43
-103 81 -20 20 -49 39 -84 55 -8 4 -98 90 -199 191 -101 101 -191 183 -199
183 -9 0 -26 10 -39 22 -19 18 -23 32 -23 79 0 32 5 61 10 64 6 3 10 30 10 60
0 30 5 57 11 60 6 4 9 27 8 51 -2 24 0 46 4 50 4 4 7 31 7 60 0 29 4 55 9 58
5 3 12 58 16 121 4 63 11 118 16 121 5 3 9 30 9 60 0 30 4 54 9 54 5 0 12 53
16 118 3 64 10 126 15 137 5 11 12 75 16 143 3 67 10 125 15 128 12 7 12 264
-1 264 -5 0 -12 17 -15 38 -3 20 -10 45 -16 54 -5 10 -9 29 -9 43 0 28 -31
105 -42 105 -5 0 -8 6 -8 13 0 7 -13 26 -30 42 -16 16 -30 34 -30 40 0 6 -18
29 -40 50 -22 21 -40 44 -40 51 0 6 -10 15 -22 19 -13 4 -25 9 -28 10 -3 1
-15 6 -27 10 -12 4 -24 13 -27 21 -3 9 -20 14 -45 14 -22 0 -43 5 -46 10 -3 6
-19 10 -36 10 l-29 0 0 -144 c0 -86 -4 -147 -10 -151 -6 -4 -10 -210 -10 -585
0 -375 4 -581 10 -585 6 -3 10 -26 10 -50 0 -24 4 -46 9 -49 5 -3 12 -44 16
-91 4 -47 11 -85 16 -85 5 0 9 -18 9 -39 0 -22 5 -43 11 -46 6 -4 8 -13 5 -21
-3 -7 -1 -16 4 -19 6 -4 10 -17 10 -31 0 -13 4 -24 9 -24 5 0 12 -12 16 -27 3
-15 10 -30 13 -33 13 -10 63 -80 57 -80 -11 0 -87 64 -154 130 -59 58 -85 89
-116 139 -5 9 -22 32 -36 51 -27 38 -59 101 -59 119 0 6 -4 19 -9 29 -5 9 -12
26 -16 37 -9 27 -10 193 -2 202 4 3 7 39 7 79 0 40 5 76 10 79 6 4 10 160 10
435 0 275 -4 431 -10 435 -6 4 -10 72 -10 170 0 99 -4 166 -10 170 -6 3 -8 17
-6 30 3 14 0 27 -5 30 -5 4 -9 24 -9 46 0 21 -4 39 -9 39 -5 0 -12 29 -16 65
-3 36 -11 65 -16 65 -5 0 -9 32 -9 70 0 56 3 70 15 70 8 0 15 5 15 10 0 6 10
10 23 10 12 0 31 7 41 15 11 8 30 15 43 15 13 0 23 5 23 10 0 6 11 10 25 10
14 0 25 5 25 10 0 6 -4 10 -9 10 -5 0 -13 45 -17 100 -3 55 -11 103 -15 106
-5 3 -9 157 -9 343 l0 338 144 137 c79 75 148 136 153 136 5 0 27 18 48 40 21
22 44 40 49 40 5 0 27 18 47 40 21 22 42 40 46 40 5 0 20 11 33 25 13 14 28
25 33 25 5 0 26 12 46 28 48 36 72 51 94 58 9 4 17 10 17 14 0 9 281 150 300
150 8 0 26 9 40 20 14 11 32 20 40 20 8 0 28 7 44 15 16 8 46 18 67 21 22 4
39 10 39 15 0 5 11 9 24 9 14 0 27 4 30 9 3 5 23 12 43 16 21 4 43 11 50 16 6
6 43 13 82 16 40 3 74 10 77 14 7 12 271 11 278 0z m4561 -3242 c4 -6 22 -9
40 -7 19 1 37 -1 41 -5 4 -4 22 -7 40 -7 18 0 35 -4 38 -9 3 -5 18 -12 33 -15
38 -10 83 -30 83 -37 0 -4 17 -9 38 -13 45 -7 251 -108 272 -134 8 -10 22 -21
30 -25 8 -4 29 -16 45 -27 17 -11 37 -23 45 -26 8 -3 45 -38 82 -77 37 -40 98
-106 137 -148 39 -41 71 -79 71 -83 0 -5 11 -22 25 -40 14 -17 29 -35 33 -41
4 -5 11 -17 15 -25 4 -8 11 -22 16 -30 15 -24 41 -87 41 -99 0 -6 5 -11 10
-11 6 0 10 -7 10 -15 0 -12 -8 -14 -42 -9 -24 4 -47 10 -52 15 -6 5 -27 9 -48
9 -21 0 -38 4 -38 9 0 4 -24 11 -54 14 -29 3 -63 10 -75 16 -11 6 -30 15 -40
21 -11 5 -29 7 -40 5 -11 -2 -23 0 -26 6 -4 5 -17 9 -31 9 -13 0 -24 4 -24 9
0 5 -45 12 -100 16 -55 3 -102 11 -105 16 -4 5 -24 9 -45 9 -21 0 -42 5 -45
10 -3 6 -26 10 -50 10 -40 0 -44 2 -50 30 -4 17 -11 30 -16 30 -5 0 -9 5 -9
11 0 15 -32 83 -42 90 -14 9 -166 317 -173 349 -4 16 -10 30 -13 30 -7 0 -25
38 -37 78 -3 12 -10 22 -15 22 -5 0 -11 14 -15 30 -4 17 -11 30 -16 30 -5 0
-9 5 -9 10 0 13 57 13 65 -1z m-8393 -1766 c-3 -38 -8 -69 -13 -71 -5 -2 -9
-32 -9 -67 0 -35 -4 -66 -9 -69 -5 -4 -9 -52 -9 -109 0 -56 -1 -106 -1 -112
-1 -13 -201 386 -201 403 0 6 -3 12 -7 12 -9 0 -33 49 -33 67 0 10 32 13 143
13 l143 0 -4 -67z m-754 24 c6 -6 13 -24 17 -40 4 -15 10 -27 14 -27 4 0 22
-29 41 -65 19 -36 37 -65 41 -65 4 0 9 -10 13 -22 3 -13 6 -25 7 -28 1 -3 11
-18 22 -35 18 -24 21 -41 18 -95 -1 -36 -7 -69 -12 -74 -5 -6 -9 -40 -9 -77 0
-37 -5 -71 -11 -74 -6 -4 -9 -31 -8 -61 2 -29 0 -57 -4 -61 -4 -3 -7 -37 -7
-74 0 -37 -4 -70 -9 -73 -5 -3 -12 -67 -16 -141 -4 -74 -11 -135 -16 -135 -5
0 -9 -31 -9 -68 0 -37 -4 -72 -9 -77 -5 -6 -13 -70 -17 -142 -4 -73 -10 -133
-14 -133 -4 0 -11 -61 -15 -135 -4 -74 -11 -135 -16 -135 -5 0 -9 -34 -9 -75
0 -41 -4 -75 -9 -75 -4 0 -11 -55 -15 -122 -4 -68 -9 -125 -12 -127 -2 -2 -12
3 -22 12 -10 10 -22 17 -26 17 -8 0 -86 58 -96 71 -3 3 -16 10 -30 14 -14 4
-34 15 -45 25 -11 10 -31 23 -45 29 -25 11 -61 32 -70 41 -3 3 -14 10 -25 16
-21 11 -35 74 -16 74 5 0 13 32 17 70 4 39 11 73 15 76 5 3 9 20 9 39 0 19 4
36 9 39 5 4 8 22 7 41 -2 20 1 38 5 41 5 3 9 20 9 39 0 19 4 36 9 39 5 3 12
39 16 81 4 41 11 77 16 81 5 3 9 23 9 44 0 21 5 42 11 46 6 3 9 15 6 25 -3 10
-1 22 4 25 5 3 9 23 9 44 0 21 4 41 9 44 5 4 12 40 16 81 4 42 11 78 16 81 5
3 9 20 9 39 0 19 4 36 9 39 5 3 12 39 16 81 4 41 11 77 16 81 5 3 9 23 9 44 0
21 4 41 9 44 5 3 7 15 4 25 -3 10 0 22 6 25 6 4 11 25 11 46 0 21 4 41 9 44 5
4 12 40 16 81 4 42 11 78 16 81 5 3 9 20 9 39 0 19 5 37 11 41 7 4 9 21 6 40
-3 19 -1 36 4 39 5 4 9 21 9 40 0 19 4 36 9 39 4 3 11 37 15 76 7 70 14 81 34
57z m413 -710 c13 -32 34 -64 74 -114 14 -17 25 -35 23 -40 -1 -4 8 -29 20
-55 12 -26 22 -51 22 -55 0 -15 24 -63 32 -63 3 0 9 -13 13 -30 4 -16 10 -30
15 -30 4 0 10 -18 14 -40 3 -22 11 -40 16 -40 6 0 10 -10 10 -22 0 -13 7 -32
15 -42 8 -11 15 -30 15 -43 0 -13 4 -23 9 -23 11 0 24 -38 21 -67 0 -11 4 -24
9 -28 6 -3 11 -19 11 -34 0 -15 5 -32 10 -37 6 -6 13 -47 17 -92 3 -45 10 -82
14 -82 5 0 9 -24 9 -54 0 -30 5 -58 10 -61 7 -4 10 -65 9 -167 0 -88 2 -162 5
-165 3 -4 6 -84 6 -179 0 -104 4 -175 10 -179 6 -4 10 -63 10 -146 l0 -139 53
0 c28 0 142 -3 253 -7 146 -4 203 -3 208 6 5 7 47 11 121 11 63 0 116 4 120 9
3 6 37 13 75 17 39 3 70 10 70 14 0 4 55 10 122 14 67 4 125 9 129 12 4 2 10
56 14 119 4 63 11 118 16 121 5 3 9 24 9 48 0 23 4 46 10 52 5 5 12 46 16 92
4 45 11 82 15 82 5 0 9 18 9 39 0 22 4 42 10 46 5 3 7 12 4 19 -3 8 -1 17 5
21 6 3 11 17 11 31 0 13 4 24 9 24 5 0 11 18 15 40 3 23 11 50 16 60 6 11 15
29 20 40 6 12 8 25 5 30 -3 5 -1 11 5 15 5 3 10 17 10 31 0 13 4 24 9 24 5 0
12 13 16 29 3 15 24 64 46 107 21 43 39 83 39 89 0 17 24 65 33 65 4 0 7 4 7
10 0 17 34 90 43 90 4 0 28 -21 54 -47 42 -44 64 -61 103 -79 8 -4 29 -18 46
-31 17 -13 34 -23 39 -23 4 0 29 -18 54 -41 61 -53 64 -55 92 -64 13 -4 56
-36 95 -71 39 -35 75 -64 81 -64 5 0 24 -16 43 -35 19 -19 41 -35 49 -35 12 0
12 -3 3 -12 -7 -7 -12 -27 -12 -44 0 -18 -4 -35 -9 -38 -5 -3 -12 -39 -16 -78
-4 -40 -11 -77 -15 -83 -8 -10 -17 -63 -22 -122 -2 -17 -6 -35 -10 -39 -5 -4
-8 -22 -8 -40 0 -18 -4 -35 -9 -38 -5 -4 -12 -44 -16 -91 -4 -47 -11 -88 -16
-91 -5 -3 -9 -38 -9 -79 0 -41 -5 -77 -11 -80 -6 -4 -9 -39 -8 -86 1 -44 -1
-82 -5 -86 -3 -3 -6 -41 -6 -83 0 -47 -5 -81 -12 -89 -10 -9 -13 -162 -13
-696 l0 -684 -62 61 c-35 35 -63 67 -63 72 0 5 -31 40 -70 77 -38 38 -70 73
-70 77 0 4 -18 26 -40 47 -22 21 -40 43 -40 48 0 11 -55 75 -127 149 -45 46
-67 77 -79 111 -5 14 -19 17 -83 17 -73 0 -77 1 -88 27 -7 15 -13 44 -13 64 0
21 -5 41 -11 44 -6 4 -8 13 -5 21 3 7 1 16 -4 19 -6 4 -10 19 -10 35 0 16 -4
31 -9 35 -6 3 -13 26 -17 50 -7 47 -22 57 -44 30 -7 -8 -16 -15 -21 -15 -5 0
-27 -12 -48 -27 -34 -24 -40 -33 -41 -65 0 -20 4 -39 9 -43 5 -3 13 -34 16
-70 4 -36 11 -68 16 -71 5 -3 9 -18 9 -33 0 -15 4 -31 9 -37 16 -17 22 -74 7
-74 -12 0 -104 -44 -151 -73 -11 -7 -71 -63 -133 -124 -101 -100 -152 -135
-152 -104 0 5 -25 13 -55 16 -30 4 -55 11 -55 16 0 5 -8 9 -18 9 -18 0 -231
104 -242 118 -7 10 -42 32 -62 38 -10 4 -18 10 -18 13 0 4 -19 17 -42 30 -61
31 -74 41 -124 90 -42 42 -44 46 -44 102 0 32 4 60 9 63 5 3 12 46 16 96 4 50
11 93 16 96 5 3 9 24 9 48 0 23 3 46 7 50 4 4 6 23 4 42 -1 19 2 34 8 34 6 0
11 13 11 29 0 17 4 32 9 35 5 3 12 33 16 66 4 33 11 63 16 66 5 3 9 18 9 34 0
16 5 32 10 35 6 4 8 10 5 15 -3 5 -1 17 4 27 18 35 41 91 41 102 0 11 5 24 29
69 6 13 9 27 6 32 -4 6 -66 10 -141 10 l-134 0 0 -63 c0 -98 -10 -97 -110 4
-48 49 -92 89 -97 89 -5 0 -22 14 -38 30 -16 17 -33 30 -38 30 -5 0 -42 29
-82 65 -40 36 -76 65 -82 65 -5 0 -24 16 -43 35 -19 19 -39 35 -44 35 -6 0
-20 11 -31 23 -11 13 -30 29 -42 36 -18 9 -23 20 -23 51 0 21 5 42 10 45 6 3
10 35 10 70 0 35 5 67 10 70 6 4 11 30 11 58 -1 80 10 201 19 212 4 6 11 67
15 138 4 70 11 130 16 133 5 3 9 36 9 74 0 38 5 72 11 75 6 4 9 31 8 61 -2 29
0 57 4 61 4 3 7 37 7 74 0 37 4 70 9 73 5 4 12 65 16 136 4 72 12 133 16 136
5 3 9 34 9 70 0 36 4 64 10 64 6 0 10 29 10 66 0 66 11 77 31 31z m7006 -974
c11 -10 23 -25 27 -33 11 -23 29 -53 53 -87 25 -34 23 -37 -32 -63 -16 -8 -42
-27 -57 -42 -15 -15 -31 -28 -36 -28 -4 0 -21 -13 -37 -30 -16 -16 -33 -30
-38 -30 -4 0 -38 -26 -74 -57 -61 -54 -77 -64 -79 -45 -2 15 -17 49 -56 128
-22 44 -38 89 -36 100 2 10 17 25 33 33 17 7 39 22 50 32 11 9 32 21 48 24 15
4 27 10 27 14 0 4 19 17 43 30 51 27 80 44 87 52 6 7 31 17 46 18 6 1 20 -7
31 -16z m-9522 -163 c3 -5 21 -10 40 -10 19 0 36 -4 39 -9 3 -4 43 -12 88 -16
46 -4 88 -10 93 -15 6 -4 37 -10 69 -13 32 -3 64 -11 69 -16 6 -6 23 -11 38
-11 15 0 30 -4 33 -9 3 -4 28 -11 55 -15 28 -4 53 -10 55 -15 3 -5 32 -12 63
-16 32 -4 70 -16 84 -26 15 -10 32 -19 39 -19 7 0 26 -6 43 -14 28 -12 61 -25
77 -31 16 -6 49 -19 77 -31 17 -8 36 -14 42 -14 6 0 19 -4 29 -9 34 -18 90
-41 101 -41 6 0 11 -4 11 -9 0 -5 12 -12 27 -16 15 -3 39 -15 54 -26 15 -10
32 -19 38 -19 14 0 15 -67 1 -75 -5 -3 -10 -24 -10 -45 0 -21 -4 -41 -8 -44
-5 -3 -7 -19 -6 -35 1 -17 -2 -34 -7 -37 -5 -3 -9 -23 -9 -45 0 -21 -4 -39 -9
-39 -5 0 -12 -36 -16 -80 -4 -44 -11 -80 -16 -80 -5 0 -9 -18 -9 -39 0 -22 -4
-42 -9 -46 -6 -3 -8 -19 -6 -35 2 -16 -1 -32 -6 -35 -5 -4 -9 -24 -9 -45 0
-21 -4 -41 -9 -44 -5 -4 -12 -40 -16 -81 -4 -41 -11 -75 -16 -75 -5 0 -9 -16
-9 -35 0 -19 -5 -35 -11 -35 -6 0 -9 -15 -8 -34 2 -19 0 -38 -4 -42 -4 -4 -7
-25 -7 -46 0 -21 -4 -38 -9 -38 -5 0 -12 -34 -16 -75 -4 -41 -11 -77 -16 -81
-5 -3 -9 -23 -9 -44 0 -21 -4 -41 -9 -44 -5 -4 -12 -40 -16 -81 -4 -41 -11
-75 -16 -75 -5 0 -9 -17 -9 -38 0 -21 -3 -42 -7 -46 -4 -4 -6 -23 -4 -42 1
-19 -2 -34 -8 -34 -6 0 -11 -18 -11 -39 0 -22 -4 -42 -9 -45 -5 -4 -12 -40
-16 -81 -4 -42 -11 -78 -16 -81 -5 -3 -9 -20 -9 -39 0 -19 -5 -37 -11 -41 -7
-4 -9 -21 -6 -40 3 -19 1 -36 -4 -39 -5 -4 -9 -21 -9 -40 0 -19 -4 -36 -9 -39
-5 -3 -12 -39 -16 -81 -4 -41 -11 -77 -16 -81 -5 -3 -9 -23 -9 -45 0 -21 -4
-39 -9 -39 -5 0 -12 -36 -16 -80 -4 -44 -11 -80 -15 -80 -4 0 -11 -34 -15 -75
-4 -41 -11 -77 -16 -81 -5 -3 -9 -23 -9 -44 0 -21 -4 -41 -9 -44 -5 -4 -12
-40 -16 -81 -4 -41 -11 -75 -16 -75 -5 0 -9 -17 -9 -38 0 -21 -3 -42 -7 -46
-4 -4 -6 -23 -4 -42 1 -19 -2 -34 -8 -34 -6 0 -11 -18 -11 -39 0 -22 -4 -42
-9 -45 -5 -4 -12 -40 -16 -81 -4 -42 -11 -78 -16 -81 -5 -3 -9 -20 -9 -39 0
-19 -5 -37 -11 -40 -6 -4 -9 -22 -7 -40 1 -19 -1 -37 -5 -41 -4 -4 -7 -22 -7
-40 0 -18 -4 -35 -9 -38 -5 -3 -12 -39 -16 -81 -4 -41 -11 -77 -16 -81 -5 -3
-9 -23 -9 -45 0 -21 -4 -39 -9 -39 -5 0 -12 -36 -16 -80 -4 -44 -11 -80 -15
-80 -4 0 -11 -34 -15 -75 -4 -41 -11 -77 -16 -81 -5 -3 -9 -22 -9 -42 0 -26
-8 -44 -29 -67 -56 -58 -71 -98 -71 -185 0 -47 4 -80 10 -80 6 0 10 -13 10
-28 0 -16 3 -32 8 -36 4 -4 8 -11 8 -14 6 -27 18 -52 25 -52 5 0 9 -5 9 -12 0
-16 51 -68 67 -68 7 0 13 -4 13 -9 0 -13 58 -41 86 -41 13 0 26 -4 29 -10 8
-13 132 -13 140 0 3 6 18 10 32 10 16 0 46 18 83 50 53 46 62 50 109 50 28 0
51 -4 51 -9 0 -5 43 -12 95 -16 52 -4 95 -11 95 -16 0 -5 24 -9 54 -9 30 0 57
-4 60 -9 3 -5 46 -12 96 -16 50 -4 93 -11 96 -16 3 -5 29 -9 57 -9 l53 0 -4
-72 c-2 -40 -8 -77 -13 -83 -5 -5 -9 -41 -9 -80 0 -58 5 -80 25 -116 14 -24
28 -51 31 -59 4 -8 17 -28 29 -45 12 -16 28 -45 36 -62 8 -18 18 -33 22 -33 5
0 6 -4 3 -9 -3 -4 3 -16 14 -26 11 -10 20 -24 20 -31 0 -7 12 -26 26 -43 14
-17 22 -31 17 -31 -8 0 -33 -47 -33 -63 0 -5 -6 -23 -14 -40 -12 -28 -25 -61
-31 -77 -6 -16 -19 -49 -31 -77 -8 -17 -14 -35 -14 -40 0 -15 -25 -63 -32 -63
-5 0 -8 -10 -8 -23 0 -13 -7 -32 -15 -43 -8 -10 -15 -27 -15 -37 0 -11 -6 -31
-14 -45 -25 -48 -46 -100 -46 -115 0 -9 -4 -19 -10 -22 -16 -10 -12 -109 7
-146 20 -41 116 -137 150 -150 13 -5 42 -9 63 -9 21 0 42 -5 45 -10 3 -6 37
-10 74 -10 37 0 71 -3 75 -7 10 -10 17 -11 254 -18 119 -4 222 -11 227 -15 6
-5 79 -11 163 -15 84 -4 155 -12 158 -16 3 -5 43 -9 89 -9 46 0 86 -4 89 -9 3
-5 86 -12 183 -16 98 -4 183 -11 188 -15 6 -4 94 -11 198 -15 103 -4 187 -11
187 -16 0 -5 47 -9 104 -9 58 0 107 -4 110 -9 3 -5 90 -12 193 -15 104 -4 197
-11 208 -16 20 -9 218 -21 332 -21 34 0 65 -4 68 -10 4 -5 49 -9 101 -9 56 0
94 -4 94 -10 0 -5 13 -10 29 -10 l30 0 3 -85 c2 -47 0 -85 -4 -85 -5 0 -8 -16
-8 -35 0 -19 -4 -35 -9 -35 -5 0 -12 -27 -16 -60 -4 -33 -11 -63 -16 -66 -5
-3 -9 -18 -9 -34 0 -16 -4 -31 -9 -34 -4 -3 -11 -33 -15 -66 -4 -33 -11 -60
-15 -60 -5 0 -11 -23 -14 -52 -4 -28 -11 -56 -17 -62 -5 -5 -10 -23 -10 -38 0
-15 -4 -28 -9 -28 -5 0 -13 -25 -16 -55 -4 -30 -11 -55 -15 -55 -4 0 -11 -10
-15 -22 -4 -13 -9 -25 -10 -28 -1 -3 -6 -15 -10 -27 -4 -13 -11 -23 -15 -23
-5 0 -11 -14 -15 -30 -4 -17 -10 -30 -15 -30 -4 0 -11 -10 -15 -22 -4 -13 -9
-25 -10 -28 -1 -3 -6 -15 -10 -27 -4 -13 -11 -23 -16 -23 -5 0 -9 -9 -9 -21 0
-11 -10 -35 -23 -52 -31 -45 -45 -68 -61 -103 -8 -17 -19 -34 -24 -38 -6 -4
-22 -30 -36 -59 -13 -28 -36 -63 -50 -76 -14 -14 -26 -29 -26 -34 0 -5 -16
-24 -35 -43 -19 -18 -35 -37 -35 -41 0 -5 -13 -22 -30 -38 -16 -16 -30 -35
-30 -42 0 -7 -5 -13 -12 -13 -6 0 -69 -56 -139 -125 -69 -68 -137 -129 -150
-135 -37 -17 -62 -32 -106 -68 -22 -17 -45 -32 -50 -32 -5 0 -20 -11 -33 -25
-13 -14 -30 -25 -38 -25 -15 0 -143 -60 -152 -71 -3 -3 -16 -10 -30 -14 -14
-4 -37 -16 -52 -27 -15 -11 -45 -22 -65 -25 -21 -3 -42 -9 -48 -13 -5 -5 -27
-11 -48 -15 -20 -4 -40 -11 -43 -16 -3 -5 -16 -9 -30 -9 -13 0 -24 -4 -24 -9
0 -5 -19 -11 -42 -15 -23 -4 -49 -12 -57 -19 -19 -16 -891 -17 -912 -1 -8 6
-52 14 -99 18 -47 4 -89 11 -94 16 -6 6 -22 10 -37 10 -15 0 -30 4 -33 9 -3 4
-34 12 -68 15 -35 4 -67 11 -73 15 -5 5 -29 11 -52 15 -24 3 -58 15 -76 25
-18 10 -48 22 -65 26 -18 3 -32 11 -32 16 0 5 -10 9 -22 9 -13 0 -32 7 -42 15
-11 8 -30 15 -43 15 -13 0 -23 5 -23 10 0 6 -4 10 -10 10 -17 0 -90 34 -90 42
0 5 -5 8 -11 8 -13 0 -141 61 -149 71 -3 3 -16 10 -30 14 -14 4 -37 16 -51 26
-14 10 -37 21 -52 24 -15 4 -27 11 -27 15 0 4 -12 11 -27 15 -16 3 -41 17 -58
29 -16 12 -47 30 -67 40 -21 9 -38 20 -38 24 0 4 -17 15 -37 25 -62 30 -103
54 -122 71 -10 9 -21 16 -25 16 -5 0 -25 13 -45 28 -20 16 -43 32 -51 35 -24
11 -54 31 -70 48 -8 8 -22 18 -30 22 -25 12 -53 30 -102 69 -26 21 -50 38 -54
38 -7 0 -89 72 -171 150 -22 22 -45 40 -50 40 -5 0 -31 23 -58 50 -27 28 -54
50 -60 50 -13 0 -645 632 -645 646 0 5 -13 23 -30 39 -17 16 -30 33 -30 38 0
5 -16 24 -35 43 -19 18 -35 37 -35 41 0 5 -13 22 -30 38 -16 16 -30 33 -30 38
0 5 -25 37 -55 70 -30 34 -55 67 -55 73 0 6 -11 21 -25 34 -14 13 -25 28 -25
33 0 5 -10 20 -22 31 -25 24 -43 50 -57 81 -5 11 -18 29 -30 39 -11 11 -21 25
-21 31 0 7 -7 15 -15 19 -8 3 -15 11 -15 19 0 7 -11 24 -25 37 -14 13 -25 27
-25 32 0 5 -4 14 -10 21 -44 54 -60 76 -60 82 0 4 -13 24 -28 44 -16 20 -36
53 -46 73 -9 21 -21 38 -25 38 -5 0 -11 8 -15 18 -7 21 -56 105 -66 112 -3 3
-10 12 -14 20 -4 8 -12 24 -19 35 -18 29 -41 69 -43 75 -1 3 -5 15 -9 28 -4
12 -11 22 -15 22 -4 0 -11 12 -15 27 -3 15 -15 38 -25 52 -10 14 -18 28 -19
31 -1 3 -4 15 -7 27 -4 13 -10 23 -15 23 -5 0 -9 4 -9 10 0 16 -34 90 -42 90
-3 0 -9 13 -13 30 -4 16 -11 30 -16 30 -5 0 -9 4 -9 10 0 17 -34 90 -42 90 -5
0 -8 5 -8 11 0 13 -61 141 -71 149 -3 3 -10 16 -14 30 -4 14 -16 36 -25 50
-10 14 -18 27 -19 30 -1 3 -4 15 -7 28 -4 12 -10 22 -15 22 -5 0 -9 5 -9 11 0
6 -7 26 -15 45 -8 19 -22 49 -30 68 -8 19 -15 41 -15 49 0 9 -4 18 -9 21 -5 4
-12 24 -16 46 -4 22 -11 42 -16 46 -5 3 -9 16 -9 30 0 13 -4 24 -9 24 -5 0
-11 18 -15 40 -3 22 -11 40 -16 40 -6 0 -10 11 -10 24 0 14 -5 28 -10 31 -6 4
-8 10 -5 15 3 5 1 18 -5 30 -5 11 -14 29 -20 40 -5 10 -13 37 -16 60 -4 22
-10 40 -15 40 -5 0 -9 10 -9 23 0 12 -7 31 -15 41 -8 11 -15 30 -15 43 0 13
-4 23 -9 23 -5 0 -11 18 -15 40 -3 23 -11 50 -16 60 -6 11 -14 28 -19 39 -5
10 -13 36 -17 57 -3 22 -10 44 -15 49 -4 6 -11 38 -15 73 -3 34 -11 65 -15 68
-5 3 -9 23 -9 45 0 21 -4 39 -9 39 -6 0 -13 32 -17 70 -3 39 -11 70 -15 70 -5
0 -9 18 -9 39 0 22 -5 43 -10 46 -6 3 -7 17 -4 30 3 12 1 26 -5 29 -6 4 -11
25 -11 47 0 21 -4 39 -9 39 -4 0 -12 31 -15 70 -4 38 -11 72 -17 75 -5 4 -9
21 -9 39 0 17 -5 37 -11 43 -7 7 -13 67 -16 145 -3 73 -9 138 -13 143 -4 6
-11 103 -15 218 -4 114 -11 210 -16 213 -12 7 -12 351 0 358 5 3 12 62 16 131
4 69 11 125 15 125 4 0 10 60 14 133 4 72 12 136 17 142 5 5 9 35 9 66 0 32 4
60 9 63 4 3 11 26 14 51 6 43 10 52 35 102 7 12 9 29 6 38 -3 8 -1 15 5 15 6
0 11 11 11 24 0 14 4 27 9 30 5 4 12 24 16 46 4 22 11 42 16 46 5 3 9 16 9 30
0 13 4 24 9 24 5 0 11 18 15 40 3 23 10 49 15 58 17 30 24 57 22 75 -1 9 3 17
8 17 6 0 11 11 11 25 0 14 4 25 9 25 5 0 11 18 15 40 3 22 10 40 15 40 5 0 11
8 15 18 7 21 22 45 61 97 17 21 31 42 31 45 8 31 18 50 30 54 8 3 14 12 14 19
0 8 9 22 20 32 11 10 20 24 20 32 0 7 6 16 14 19 8 3 17 17 21 32 3 14 17 39
31 56 13 17 28 36 32 41 4 6 11 17 15 25 21 43 39 67 83 111 27 27 53 49 59
49 6 0 24 14 40 30 16 17 33 30 38 30 4 0 23 16 41 35 19 19 38 35 43 35 5 0
27 18 48 40 21 22 43 40 48 40 6 0 42 29 82 64 39 36 84 68 98 71 15 4 27 11
27 16 0 5 5 9 11 9 13 0 82 31 89 41 3 3 16 10 30 14 14 4 37 16 51 26 14 10
38 21 55 25 16 4 34 10 39 15 6 4 30 11 53 15 23 4 42 10 42 15 0 5 13 9 29 9
17 0 32 4 35 9 3 4 25 11 48 15 23 4 48 12 55 17 7 6 58 13 113 16 55 3 103
10 106 14 3 5 41 9 85 9 46 0 79 4 79 10 0 6 65 10 174 10 106 0 177 -4 181
-10z m11139 -179 c3 -5 53 -12 111 -16 58 -4 108 -11 111 -16 3 -5 32 -9 64
-9 32 0 62 -5 65 -10 4 -6 15 -8 25 -5 10 3 21 2 24 -3 3 -6 31 -13 62 -17 32
-4 65 -11 76 -16 10 -5 27 -13 38 -19 11 -5 29 -10 39 -10 11 0 23 -4 26 -10
3 -5 18 -10 33 -10 15 0 40 -7 56 -15 15 -8 33 -15 38 -15 11 0 69 -24 110
-46 14 -8 33 -14 41 -14 8 0 28 -7 43 -15 16 -8 37 -15 47 -15 9 0 17 -4 17
-10 0 -5 8 -10 18 -10 9 0 44 -14 77 -30 33 -16 65 -30 72 -30 6 0 13 -4 15
-8 2 -4 53 -32 113 -62 110 -54 167 -88 173 -102 2 -5 8 -8 14 -8 6 0 25 -10
42 -23 17 -12 45 -29 61 -37 17 -8 44 -24 60 -35 51 -34 69 -45 100 -59 17 -8
39 -24 49 -35 11 -12 23 -21 28 -21 5 0 31 -18 57 -40 26 -22 52 -40 57 -40 6
0 21 -11 34 -25 13 -14 29 -25 37 -25 7 0 13 -4 13 -8 0 -10 86 -72 99 -72 5
0 11 -3 13 -7 2 -5 41 -42 88 -83 47 -41 89 -81 93 -87 4 -7 14 -13 20 -13 7
0 35 -22 62 -50 27 -27 53 -50 58 -50 5 0 81 -72 169 -160 87 -88 166 -160
174 -160 8 0 14 -7 14 -16 0 -9 77 -92 170 -185 94 -92 170 -172 170 -177 0
-5 11 -19 25 -32 13 -12 23 -26 22 -29 -1 -4 10 -20 24 -37 73 -81 99 -112 99
-121 0 -5 16 -24 35 -43 19 -19 35 -38 35 -43 0 -6 12 -22 28 -38 28 -29 67
-80 67 -90 0 -3 19 -28 43 -56 23 -28 42 -55 42 -61 0 -5 7 -16 16 -23 14 -12
70 -90 100 -141 6 -10 21 -29 33 -42 11 -12 21 -28 21 -34 0 -7 5 -12 10 -12
6 0 10 -4 10 -9 0 -5 18 -36 40 -69 22 -33 40 -63 40 -67 0 -4 15 -27 34 -50
19 -23 38 -54 41 -68 4 -14 13 -31 21 -38 8 -6 14 -17 14 -23 0 -6 9 -17 21
-24 12 -7 18 -16 15 -19 -3 -4 1 -14 9 -24 9 -9 53 -90 99 -180 45 -90 87
-173 94 -184 6 -11 34 -67 61 -125 28 -58 57 -116 65 -130 8 -14 36 -70 62
-125 26 -55 51 -102 55 -105 4 -3 11 -18 14 -33 4 -15 11 -27 15 -27 5 0 11
-22 15 -50 4 -27 11 -50 16 -50 5 0 9 -11 9 -24 0 -14 4 -27 9 -30 5 -4 12
-24 16 -46 4 -22 11 -42 16 -46 5 -3 9 -16 9 -30 0 -13 5 -24 10 -24 6 0 9 -3
8 -7 -1 -9 9 -39 21 -63 5 -9 12 -31 15 -50 7 -34 19 -66 38 -103 5 -10 6 -22
3 -27 -3 -5 -1 -11 5 -15 5 -3 10 -17 10 -31 0 -13 4 -24 10 -24 5 0 12 -16
16 -35 3 -19 10 -38 15 -41 5 -3 9 -16 9 -30 0 -13 4 -24 9 -24 5 0 12 -20 15
-45 4 -25 11 -45 17 -45 5 0 9 -10 9 -22 0 -13 7 -36 15 -52 8 -15 15 -46 15
-67 0 -21 4 -40 9 -43 8 -5 17 -49 24 -118 1 -15 6 -30 10 -34 4 -4 7 -24 7
-45 0 -21 4 -40 9 -44 5 -3 7 -21 4 -40 -4 -23 -2 -35 6 -35 6 0 11 -17 11
-39 0 -22 4 -42 9 -45 5 -3 12 -39 16 -81 4 -41 11 -77 16 -81 5 -3 9 -23 9
-45 0 -21 4 -39 9 -39 5 0 12 -34 16 -75 4 -41 10 -77 15 -80 4 -2 11 -190 15
-417 4 -232 11 -418 17 -425 5 -7 5 -13 -1 -17 -5 -3 -12 -62 -16 -131 -4 -69
-11 -128 -16 -131 -5 -3 -9 -31 -9 -63 0 -32 -3 -61 -7 -65 -4 -3 -6 -29 -4
-57 1 -27 -2 -55 -7 -62 -6 -7 -13 -39 -16 -72 -14 -157 -23 -222 -33 -240
-13 -23 -26 -55 -28 -70 -1 -5 -4 -17 -7 -25 -3 -8 -13 -42 -24 -75 -10 -33
-21 -67 -25 -75 -24 -50 -39 -90 -39 -103 0 -9 -4 -18 -9 -22 -6 -3 -13 -26
-17 -50 -3 -25 -10 -45 -14 -45 -4 0 -10 -18 -14 -40 -3 -23 -10 -49 -15 -58
-8 -15 -18 -39 -35 -82 -4 -8 -15 -28 -26 -45 -11 -16 -23 -37 -27 -45 -3 -8
-14 -22 -23 -30 -9 -8 -20 -22 -24 -30 -11 -24 -29 -53 -56 -90 -27 -37 -45
-66 -56 -90 -4 -8 -15 -22 -24 -30 -9 -8 -20 -22 -23 -30 -4 -8 -16 -28 -27
-45 -11 -16 -23 -37 -27 -45 -3 -8 -17 -29 -30 -46 -13 -17 -23 -36 -23 -42 0
-7 -6 -12 -13 -12 -7 0 -26 -13 -42 -30 -16 -17 -34 -30 -41 -30 -6 0 -26 -16
-43 -35 -17 -19 -34 -35 -39 -35 -4 0 -26 -18 -47 -40 -21 -22 -44 -40 -50
-40 -6 0 -24 -13 -40 -30 -16 -16 -33 -30 -38 -30 -5 0 -24 -16 -43 -35 -18
-19 -37 -35 -41 -35 -5 0 -27 -18 -48 -40 -21 -22 -45 -40 -52 -40 -19 0 -93
-34 -93 -42 0 -5 -5 -8 -11 -8 -15 0 -142 -62 -150 -73 -3 -4 -23 -10 -45 -14
-21 -3 -44 -9 -49 -14 -6 -4 -30 -11 -53 -15 -23 -4 -42 -10 -42 -15 0 -5 -10
-9 -23 -9 -13 0 -27 -3 -31 -7 -13 -13 -89 -35 -151 -44 -33 -4 -94 -13 -135
-19 -46 -7 -180 -9 -350 -7 -300 5 -364 8 -376 19 -4 5 -31 8 -61 8 -32 0 -53
4 -53 11 0 7 -12 9 -30 7 -17 -3 -33 -1 -36 4 -3 4 -14 8 -25 8 -18 0 -27 3
-74 27 -12 6 -45 14 -75 18 -30 4 -60 12 -67 17 -7 5 -17 7 -22 4 -5 -4 -12
-2 -16 4 -3 5 -17 10 -31 10 -13 0 -24 5 -24 10 0 6 -11 10 -24 10 -14 0 -27
4 -30 9 -3 5 -22 12 -41 15 -19 4 -35 11 -35 15 0 5 -18 11 -40 15 -23 3 -49
10 -58 15 -9 5 -38 18 -64 28 -27 10 -48 21 -48 26 0 4 -6 7 -13 7 -11 0 -108
47 -192 93 -16 9 -36 17 -42 17 -7 0 -13 5 -13 12 0 6 -3 9 -6 5 -3 -3 -22 4
-42 15 -67 39 -87 48 -99 48 -7 0 -13 4 -13 10 0 5 -17 17 -37 26 -21 10 -51
27 -68 38 -51 35 -69 46 -87 52 -10 4 -18 10 -18 14 0 4 -8 10 -17 14 -24 8
-50 24 -105 68 -26 21 -51 38 -56 38 -4 0 -19 11 -32 25 -13 14 -30 25 -37 25
-8 0 -16 7 -19 15 -4 8 -12 15 -18 15 -7 0 -23 11 -36 25 -13 14 -29 25 -35
25 -6 0 -22 11 -35 25 -12 13 -25 23 -29 22 -3 -1 -26 20 -51 46 -25 26 -50
47 -55 47 -6 0 -33 23 -60 50 -27 28 -53 50 -58 50 -5 0 -31 22 -58 49 -27 27
-53 51 -58 53 -6 1 -41 33 -79 70 -38 38 -74 68 -78 68 -13 0 -324 313 -324
326 0 6 -36 46 -80 88 -44 43 -80 81 -80 85 0 4 -16 24 -35 44 -19 20 -35 41
-35 45 0 5 -13 21 -30 37 -16 16 -30 33 -30 39 0 6 -11 22 -24 36 -53 54 -106
118 -106 127 0 5 -11 20 -25 33 -14 13 -25 29 -25 35 0 7 -11 21 -25 31 -14
10 -25 24 -25 30 0 6 -9 19 -20 29 -11 10 -20 24 -20 31 0 8 -9 19 -20 26 -11
7 -20 18 -20 24 0 6 -10 19 -21 30 -12 10 -25 28 -31 39 -18 40 -35 65 -56 83
-12 11 -19 21 -17 24 3 3 -4 13 -15 23 -11 10 -20 22 -20 28 0 5 -12 26 -27
46 -37 48 -52 72 -59 93 -4 10 -10 18 -15 18 -5 0 -9 4 -9 9 0 13 -52 91 -61
91 -4 0 -10 13 -14 29 -3 16 -13 35 -21 42 -8 6 -14 17 -14 24 0 7 -7 18 -15
25 -8 7 -56 96 -107 199 -51 102 -96 188 -100 189 -5 2 -8 9 -8 15 0 15 -113
241 -122 245 -5 2 -8 9 -8 14 0 16 -112 242 -122 246 -4 2 -8 8 -8 13 0 6 -10
31 -22 57 -12 26 -22 52 -23 57 -1 6 -5 19 -9 30 -15 40 -28 70 -36 86 -5 9
-12 34 -16 55 -4 22 -13 48 -20 59 -8 11 -14 30 -14 42 0 13 -4 23 -9 23 -5 0
-11 18 -15 40 -3 23 -10 49 -15 58 -15 30 -30 66 -36 92 -4 14 -14 41 -23 60
-9 19 -15 43 -13 53 1 9 -3 17 -8 17 -6 0 -11 11 -11 24 0 14 -4 27 -9 30 -5
4 -12 24 -16 46 -4 22 -11 42 -16 46 -5 3 -9 16 -9 30 0 13 -5 24 -11 24 -6 0
-9 9 -6 20 3 11 1 20 -4 20 -5 0 -9 13 -9 29 0 17 -4 33 -10 36 -5 3 -10 24
-10 45 0 21 -5 42 -11 46 -7 4 -9 21 -6 40 3 19 2 34 -4 34 -5 0 -9 18 -9 39
0 22 -4 43 -10 46 -5 3 -10 16 -10 28 0 43 -12 107 -21 113 -5 3 -9 20 -9 39
0 19 -4 37 -10 40 -5 3 -9 16 -9 28 1 30 -11 98 -21 122 -11 26 -21 83 -21
117 0 15 -4 30 -9 33 -6 4 -10 23 -10 44 0 21 -3 40 -6 44 -3 3 -5 69 -5 146
1 93 -2 141 -9 141 -6 0 -10 50 -10 144 0 86 -4 147 -10 151 -6 4 -10 87 -10
215 0 128 4 211 10 215 6 3 10 42 10 85 0 48 4 82 11 86 8 5 10 30 5 80 -3 46
-2 74 4 74 6 0 10 34 10 79 0 44 4 82 9 85 4 3 11 48 14 99 3 52 9 103 15 113
5 11 14 29 20 40 6 12 14 38 17 58 4 20 11 39 16 41 4 3 11 26 15 50 3 25 10
45 13 45 7 0 13 23 38 143 3 15 9 27 14 27 4 0 11 20 15 45 3 25 10 48 15 51
5 3 9 14 9 25 0 10 4 19 9 19 5 0 11 18 15 40 6 36 47 127 64 140 10 7 32 42
38 63 4 9 10 17 15 17 4 0 16 17 25 38 10 20 30 53 46 73 15 20 28 41 28 46 0
6 9 18 20 28 11 10 22 27 26 39 3 11 16 31 27 44 l21 22 18 -37 c9 -21 17 -44
18 -50 0 -7 5 -13 10 -13 6 0 10 -5 10 -11 0 -21 110 -252 123 -257 4 -2 7 -9
7 -15 0 -15 113 -241 123 -245 4 -2 7 -9 7 -15 0 -16 113 -241 122 -245 5 -2
8 -9 8 -16 0 -10 82 -179 118 -241 6 -11 34 -67 61 -125 28 -58 57 -116 65
-130 35 -62 326 -657 326 -667 0 -6 3 -13 8 -15 14 -6 352 -696 352 -718 0 -6
4 -10 9 -10 5 0 12 -13 16 -30 4 -16 11 -30 16 -30 5 0 9 -4 9 -10 0 -17 34
-90 42 -90 5 0 8 -5 8 -11 0 -16 63 -143 72 -147 5 -2 8 -8 8 -14 0 -15 63
-142 72 -146 5 -2 8 -8 8 -14 0 -18 33 -83 47 -91 7 -4 13 -14 13 -22 0 -8 9
-20 20 -27 11 -7 20 -20 20 -28 0 -17 150 -168 220 -221 25 -19 55 -46 68 -61
23 -27 58 -51 95 -64 9 -3 17 -10 17 -15 0 -4 17 -16 38 -26 20 -9 50 -32 66
-50 16 -18 34 -33 40 -33 5 0 17 -7 27 -16 10 -9 32 -24 51 -34 l33 -17 0 -92
c0 -50 3 -91 8 -91 4 0 7 -8 7 -18 0 -33 37 -91 100 -154 l62 -63 76 -3 c69
-3 80 -1 105 20 15 13 27 33 27 45 0 12 5 23 12 25 22 8 11 122 -17 174 -14
26 -25 52 -25 59 0 6 -11 22 -25 35 -14 13 -25 28 -25 34 0 16 -49 66 -64 66
-8 0 -16 7 -20 15 -3 8 -15 15 -27 15 -12 0 -44 21 -72 48 -78 72 -575 570
-633 632 -45 49 -114 169 -114 199 0 6 -3 11 -8 11 -7 0 -42 73 -42 89 0 5 -4
11 -8 13 -10 4 -72 130 -72 146 0 7 -4 12 -9 12 -7 0 -19 28 -19 47 0 3 -4 9
-9 12 -11 8 -113 213 -113 228 0 7 -18 46 -40 88 -22 42 -40 80 -40 85 0 16
-34 90 -42 90 -3 0 -9 14 -13 30 -4 17 -11 30 -16 30 -5 0 -9 11 -9 25 0 14
-4 25 -10 25 -5 0 -10 6 -10 13 0 6 -14 39 -30 72 -16 33 -30 68 -30 78 0 9
-4 17 -10 17 -5 0 -10 5 -10 11 0 5 -13 38 -29 72 -49 106 -61 135 -61 146 0
6 -4 11 -9 11 -8 0 -21 29 -25 55 0 6 -15 39 -32 75 -46 94 -64 137 -64 149 0
6 -4 11 -9 11 -5 0 -12 14 -16 30 -4 17 -22 60 -41 96 -19 36 -34 70 -34 75 0
16 -34 89 -42 89 -4 0 -10 17 -14 38 -4 20 -10 39 -14 42 -9 7 -70 134 -70
147 0 6 -15 39 -34 75 -19 36 -37 79 -41 97 -3 17 -10 31 -13 31 -9 0 -42 75
-42 94 0 8 -4 17 -9 21 -5 3 -12 19 -16 35 -4 17 -10 30 -13 30 -8 0 -32 49
-32 64 0 6 -14 38 -30 71 -16 33 -30 68 -30 78 0 9 -4 17 -9 17 -5 0 -12 14
-16 30 -4 17 -10 30 -15 30 -4 0 -11 10 -15 23 -4 12 -9 24 -10 27 -1 3 -6 15
-10 28 -4 12 -11 22 -15 22 -5 0 -11 14 -15 30 -4 17 -10 30 -13 30 -8 0 -42
74 -42 89 0 12 -66 139 -81 158 -6 7 -9 13 -5 13 3 0 -3 15 -13 33 l-18 32 48
43 c26 23 50 42 55 42 4 0 30 20 58 45 28 25 64 57 79 70 15 14 31 25 35 25 5
0 23 16 42 35 18 19 46 37 62 40 15 4 28 11 28 16 0 23 37 2 53 -31 12 -24 30
-53 55 -87 12 -17 22 -34 22 -38 0 -4 12 -24 28 -44 36 -47 48 -68 69 -113 10
-21 21 -38 26 -38 4 0 12 -10 18 -22 15 -35 31 -60 64 -103 17 -22 39 -57 50
-77 11 -21 22 -38 26 -38 4 0 9 -8 13 -17 5 -18 14 -32 51 -88 31 -46 44 -69
51 -87 3 -10 10 -18 15 -18 5 0 18 -19 29 -42 27 -58 43 -81 58 -91 6 -4 12
-13 12 -19 0 -5 11 -23 25 -40 14 -16 25 -35 25 -42 0 -7 9 -21 20 -31 11 -10
20 -22 20 -27 0 -9 40 -69 52 -78 3 -3 10 -18 13 -33 4 -15 15 -33 24 -40 10
-6 20 -19 24 -27 4 -8 16 -28 27 -45 11 -16 23 -38 26 -47 4 -10 10 -18 15
-18 5 0 17 -17 27 -37 9 -21 23 -44 30 -51 6 -7 12 -20 12 -28 0 -8 5 -14 10
-14 6 0 14 -8 17 -17 5 -16 21 -38 62 -89 5 -6 12 -21 16 -35 4 -13 11 -26 14
-29 16 -12 77 -105 87 -132 3 -10 10 -18 13 -18 4 0 17 -19 30 -42 32 -63 45
-82 59 -91 6 -4 12 -13 12 -19 0 -6 12 -27 27 -47 16 -20 27 -39 26 -43 -1 -3
4 -12 12 -18 8 -7 15 -18 15 -25 0 -6 9 -20 20 -30 11 -10 22 -27 26 -39 3
-11 16 -31 27 -43 11 -13 17 -23 13 -23 -4 0 4 -14 18 -31 14 -17 26 -35 26
-41 0 -5 15 -28 33 -51 19 -23 37 -49 40 -57 7 -16 21 -38 52 -85 25 -37 42
-65 51 -85 4 -8 21 -33 38 -55 17 -21 32 -42 32 -45 8 -30 18 -50 25 -50 5 0
14 -11 19 -25 5 -14 17 -28 25 -31 8 -4 15 -14 15 -25 0 -10 6 -22 13 -26 8
-4 17 -15 20 -23 4 -8 16 -28 27 -45 11 -16 23 -37 27 -45 3 -8 16 -24 27 -36
24 -23 42 -50 56 -81 5 -12 18 -27 30 -33 11 -6 20 -16 20 -23 0 -7 18 -31 40
-52 22 -21 40 -43 40 -48 0 -16 84 -109 223 -247 75 -75 137 -141 137 -146 0
-5 66 -75 147 -156 l147 -147 -3 -95 c-2 -60 1 -96 8 -101 6 -3 9 -10 6 -15
-11 -18 38 -99 93 -152 63 -61 88 -71 167 -72 39 -1 56 4 78 23 15 13 27 34
27 47 0 12 5 24 12 26 14 5 13 125 -1 142 -5 6 -12 28 -16 48 -4 21 -18 49
-31 63 -13 14 -24 30 -24 34 0 4 -24 31 -52 60 -34 33 -61 51 -77 51 -17 0
-48 24 -105 81 -44 45 -85 89 -91 99 -21 38 -73 98 -156 185 -153 160 -199
212 -199 223 0 6 -10 19 -23 29 -12 10 -38 38 -57 63 -19 25 -51 61 -70 80
-20 19 -42 49 -50 65 -8 17 -24 44 -36 60 -12 17 -25 41 -29 54 -4 14 -15 33
-24 43 -10 10 -27 37 -40 60 -12 24 -31 57 -41 73 -11 17 -23 37 -27 45 -3 8
-9 17 -12 20 -8 7 -26 37 -52 88 -13 23 -26 42 -30 42 -3 0 -9 8 -13 18 -6 18
-18 39 -52 87 -12 17 -25 41 -29 55 -4 14 -16 32 -25 40 -9 8 -21 26 -25 40
-4 14 -18 38 -31 53 -13 16 -24 35 -24 43 0 8 -4 14 -8 14 -5 0 -18 19 -31 43
-26 50 -39 72 -67 112 -11 17 -28 47 -38 68 -9 20 -21 37 -25 37 -7 0 -18 26
-20 46 0 3 -11 19 -25 35 -15 17 -26 36 -26 43 0 7 -9 21 -20 31 -11 10 -18
20 -15 23 3 3 -6 19 -18 36 -13 17 -30 46 -38 64 -8 17 -17 32 -21 32 -5 0 -8
7 -8 15 0 7 -6 18 -13 22 -7 4 -21 24 -30 43 -20 40 -65 119 -96 170 -12 19
-24 43 -27 53 -4 9 -10 17 -14 17 -4 0 -10 8 -14 18 -5 17 -26 52 -36 62 -8 8
-27 40 -51 88 -13 23 -26 42 -30 42 -4 0 -10 13 -14 30 -4 16 -15 36 -24 42
-10 7 -22 24 -26 38 -4 14 -15 34 -25 45 -10 11 -26 38 -36 60 -10 22 -29 56
-44 75 -15 19 -34 52 -44 73 -9 20 -20 37 -24 37 -4 0 -13 15 -21 33 -8 17
-25 46 -38 63 -12 17 -21 33 -18 36 3 3 -4 13 -15 23 -11 10 -20 24 -20 31 0
7 -12 26 -26 43 -14 17 -23 31 -19 31 4 0 -5 14 -19 31 -14 17 -26 35 -26 41
0 6 -7 19 -16 29 -16 17 -34 49 -71 119 -10 19 -21 37 -26 38 -4 2 -16 22 -27
45 -22 45 -42 79 -51 87 -3 3 -8 12 -12 20 -8 18 -25 45 -53 85 -12 17 -25 41
-29 55 -4 14 -13 28 -19 33 -16 10 12 27 47 27 15 0 27 5 27 10 0 6 8 10 18
10 20 0 148 29 177 41 20 8 154 25 188 23 9 0 17 3 17 8 0 11 467 10 474 -1z
m-9509 -432 c17 -10 41 -24 55 -30 14 -5 34 -19 45 -29 11 -10 31 -21 45 -25
13 -4 33 -18 43 -31 10 -13 24 -24 31 -24 7 0 23 -11 36 -25 13 -14 28 -25 32
-25 5 0 25 -12 45 -27 l35 -27 -7 -121 c-4 -66 -11 -124 -16 -129 -5 -6 -9
-40 -9 -76 0 -37 -3 -70 -7 -74 -5 -4 -9 -32 -9 -62 -1 -30 -4 -58 -8 -61 -3
-4 -6 -37 -6 -74 0 -37 -4 -70 -9 -73 -4 -3 -12 -64 -16 -136 -4 -71 -11 -132
-16 -136 -5 -3 -9 -36 -9 -74 0 -38 -4 -71 -9 -74 -4 -3 -12 -64 -16 -136 -4
-71 -11 -132 -16 -136 -5 -3 -9 -36 -9 -73 0 -37 -3 -71 -7 -74 -4 -4 -6 -32
-4 -61 1 -30 -2 -57 -8 -61 -6 -3 -11 -37 -11 -75 0 -38 -4 -71 -9 -74 -5 -3
-12 -67 -16 -141 -4 -74 -11 -135 -16 -135 -5 0 -9 -31 -9 -69 0 -39 -4 -72
-8 -75 -4 -2 -7 -32 -6 -65 1 -34 -2 -64 -7 -67 -5 -3 -9 -36 -9 -75 0 -38 -4
-69 -9 -69 -5 0 -12 -61 -16 -135 -4 -74 -11 -138 -16 -141 -5 -3 -9 -36 -9
-74 0 -38 -4 -72 -10 -75 -5 -3 -10 -35 -10 -71 0 -61 -1 -64 -24 -64 -14 0
-28 -4 -31 -10 -3 -5 -19 -10 -35 -10 -16 0 -31 -4 -35 -9 -3 -5 -19 -12 -35
-16 -17 -4 -30 -11 -30 -16 0 -5 -5 -9 -12 -9 -17 0 -88 -71 -88 -87 0 -8 -7
-16 -15 -19 -8 -4 -15 -11 -15 -16 0 -13 -32 -81 -41 -88 -3 -3 -10 -16 -14
-30 -4 -14 -12 -28 -18 -31 -5 -4 -12 -67 -15 -141 l-5 -135 36 -74 c26 -53
55 -93 105 -142 l68 -68 -1 -57 -1 -57 -104 -3 c-59 -1 -114 2 -125 8 -11 5
-67 11 -125 12 l-105 3 -3 53 c-2 28 -7 52 -11 52 -8 0 -24 37 -22 52 1 13
-91 108 -105 108 -8 0 -14 4 -14 9 0 5 -14 12 -31 16 l-31 7 7 77 c4 42 11 80
16 86 5 5 9 24 9 41 0 18 4 35 9 38 5 3 12 39 16 81 4 41 11 77 16 81 5 3 9
23 9 44 0 21 4 41 8 44 5 3 7 18 4 34 -2 16 1 33 7 36 6 4 11 25 11 47 0 21 4
39 9 39 6 0 13 32 17 70 3 39 11 70 15 70 5 0 9 18 9 39 0 22 5 43 11 47 6 3
9 22 7 40 -2 19 0 34 4 34 4 0 8 18 8 39 0 22 4 42 9 45 5 3 12 39 16 81 4 41
11 77 16 81 5 3 9 23 9 45 0 21 4 39 9 39 6 0 13 32 17 70 3 39 10 70 14 70 4
0 11 36 15 80 4 44 11 80 16 80 5 0 9 18 9 39 0 22 4 42 9 45 5 4 12 40 16 81
4 42 11 78 16 81 5 3 9 20 9 39 0 19 5 37 11 41 6 3 8 17 5 29 -3 13 -2 27 4
30 5 3 10 24 10 46 0 21 4 39 9 39 5 0 12 36 16 80 4 44 11 80 16 80 5 0 9 18
9 39 0 22 5 43 11 47 6 3 9 20 7 36 -3 16 -1 31 4 34 4 3 8 23 8 44 0 21 4 41
9 44 5 3 12 35 16 71 3 36 11 67 16 70 5 4 9 24 9 46 0 21 5 39 11 39 6 0 9
15 8 34 -2 19 0 38 4 42 4 4 7 25 7 46 0 21 5 38 10 38 6 0 10 17 10 38 0 21
3 42 7 46 4 4 6 23 4 42 -1 19 2 34 8 34 6 0 11 18 11 39 0 22 4 42 9 45 5 3
12 35 16 71 3 36 11 67 16 70 5 4 9 24 9 45 0 21 4 41 8 44 5 3 7 19 6 35 -1
17 2 34 7 37 5 3 9 23 9 45 0 21 4 39 9 39 5 0 12 36 16 80 4 44 11 80 16 80
5 0 9 18 9 39 0 22 5 43 11 47 6 3 9 20 7 36 -3 16 -1 31 4 34 4 3 8 23 8 45
0 21 4 39 9 39 4 0 11 26 15 59 9 79 12 82 61 50z m741 -546 c56 -51 106 -93
111 -93 4 0 75 -67 157 -149 l149 -149 -8 -47 c-3 -27 -10 -55 -15 -64 -26
-53 -32 -71 -27 -85 3 -8 2 -18 -3 -21 -6 -4 -10 -19 -10 -36 0 -16 -4 -29 -9
-29 -6 0 -13 -32 -17 -70 -4 -39 -11 -73 -15 -76 -5 -3 -9 -18 -9 -34 0 -16
-4 -31 -9 -34 -5 -4 -12 -30 -16 -59 -4 -28 -11 -57 -16 -63 -4 -5 -11 -54
-15 -107 -4 -54 -11 -100 -15 -103 -13 -8 -11 -212 2 -219 6 -4 9 -20 7 -36
-2 -24 8 -39 57 -89 33 -33 63 -60 69 -60 5 0 19 -11 32 -25 13 -14 27 -25 32
-25 5 0 19 -11 32 -25 13 -14 28 -25 33 -25 5 0 26 -14 46 -30 48 -41 54 -45
71 -53 18 -8 53 -30 60 -37 5 -5 35 -26 89 -62 14 -10 36 -22 49 -28 12 -5 22
-14 22 -19 0 -5 8 -11 18 -15 21 -7 45 -22 96 -61 44 -33 69 -49 104 -64 12
-6 22 -15 22 -20 0 -5 8 -11 18 -15 9 -3 29 -14 43 -23 72 -49 84 -58 89 -64
3 -4 18 -11 33 -14 15 -4 27 -11 27 -15 0 -4 46 -31 103 -59 l102 -51 -5 -183
-5 -182 -974 -3 -973 -2 7 127 c4 71 11 130 15 133 4 3 11 65 15 138 4 73 11
135 16 138 5 3 9 36 9 75 0 38 4 69 9 69 5 0 12 61 16 135 4 74 11 138 16 141
5 3 9 32 9 64 0 32 5 62 11 65 6 4 9 34 8 71 -1 35 1 67 4 71 4 3 7 32 7 64 0
32 4 60 9 63 5 3 12 67 16 141 4 74 11 135 16 135 5 0 9 31 9 68 0 37 4 72 9
77 5 6 13 70 17 143 4 72 10 132 14 132 5 0 11 61 15 135 4 74 11 135 16 135
5 0 9 29 9 64 0 36 4 67 9 70 4 3 12 64 16 136 4 71 11 132 16 136 5 3 9 30 9
60 0 53 0 54 23 42 12 -7 68 -55 123 -105z m1431 -2911 c3 -9 35 -50 71 -89
l64 -73 206 0 c205 0 207 0 262 -27 30 -15 57 -31 60 -34 3 -3 16 -10 30 -14
14 -4 36 -15 49 -24 14 -9 33 -14 43 -13 13 2 18 -3 18 -22 0 -14 5 -26 10
-26 6 0 10 -11 10 -24 0 -14 4 -27 9 -31 6 -3 13 -26 17 -50 3 -25 10 -45 15
-45 5 0 9 -10 9 -23 0 -13 7 -32 15 -43 8 -10 15 -29 15 -41 0 -13 4 -23 9
-23 5 0 12 -20 15 -45 4 -24 11 -47 17 -50 5 -4 9 -21 9 -39 0 -17 5 -37 11
-43 6 -6 9 -21 7 -34 -2 -19 -10 -25 -35 -27 -18 -2 -33 1 -33 7 0 5 -32 13
-70 17 -39 4 -73 11 -76 15 -3 5 -18 9 -34 9 -16 0 -31 4 -35 9 -3 5 -31 12
-63 16 -31 3 -64 10 -73 15 -9 4 -41 11 -72 15 -32 4 -57 11 -57 16 0 5 -18 9
-39 9 -22 0 -42 4 -45 9 -3 5 -33 12 -66 16 -33 4 -62 10 -65 15 -3 4 -34 11
-70 15 -36 3 -67 11 -70 16 -4 5 -19 9 -35 9 -16 0 -31 4 -34 9 -3 5 -35 12
-71 16 -36 3 -67 11 -70 16 -4 5 -19 9 -35 9 -16 0 -31 4 -34 9 -3 5 -20 8
-37 7 -16 -1 -32 1 -35 6 -3 4 -18 8 -34 8 -16 0 -31 4 -35 9 -3 6 -37 13 -75
17 -39 3 -70 11 -70 15 0 5 -13 9 -29 9 -17 0 -32 4 -36 9 -3 6 -37 13 -75 17
-39 3 -70 10 -70 14 0 5 -27 11 -60 15 -33 4 -63 11 -66 16 -3 5 -23 9 -44 9
-21 0 -41 4 -44 9 -3 5 -33 12 -66 16 -33 4 -60 10 -60 15 0 4 -31 11 -70 14
-38 4 -72 11 -75 17 -4 5 -19 9 -36 9 -16 0 -29 4 -29 9 0 4 -31 12 -70 15
-38 4 -72 11 -75 17 -4 5 -19 9 -35 9 -34 0 -45 15 -41 52 2 20 -8 41 -33 71
-20 24 -36 48 -36 54 0 5 -13 22 -30 38 -16 16 -30 34 -30 41 0 7 -9 19 -20
27 -11 8 -17 17 -13 20 3 4 372 7 820 7 764 0 814 -1 820 -18z m1613 -191 c0
-88 4 -162 9 -165 5 -3 12 -150 16 -326 4 -176 11 -320 15 -320 4 0 11 -143
15 -317 l7 -318 26 -27 c14 -16 31 -28 37 -28 6 0 22 -11 35 -25 13 -14 29
-25 37 -25 7 0 13 -5 13 -10 0 -6 11 -15 24 -20 19 -7 26 -19 31 -54 4 -26 11
-46 16 -46 5 0 9 -10 9 -23 0 -13 5 -28 12 -35 8 -8 11 -48 9 -124 -2 -96 -5
-116 -22 -134 -10 -11 -19 -25 -19 -31 0 -6 -12 -26 -27 -44 -16 -18 -28 -35
-27 -38 2 -14 -9 -41 -17 -41 -5 0 -9 -7 -9 -15 0 -10 11 -15 35 -15 19 0 35
-4 35 -9 0 -13 58 -41 85 -41 13 0 28 -7 35 -15 7 -8 17 -15 22 -15 5 0 19
-10 31 -23 12 -13 42 -33 67 -44 25 -11 54 -30 64 -42 11 -12 24 -21 31 -21 6
0 24 -13 40 -30 16 -16 34 -30 41 -30 9 0 14 -21 16 -67 l3 -68 110 -57 c61
-31 117 -60 125 -64 20 -10 40 -31 35 -35 -2 -3 -43 -1 -92 3 -48 3 -123 7
-165 7 -42 1 -79 5 -82 10 -3 5 -82 12 -176 16 -94 4 -173 11 -176 16 -3 5
-43 9 -89 9 -46 0 -87 4 -90 10 -3 6 -14 10 -24 10 -11 0 -19 6 -18 13 0 6 -1
110 -1 230 l-2 217 -67 0 -67 0 -63 62 c-35 34 -63 68 -63 75 0 7 -4 13 -9 13
-5 0 -12 13 -16 30 -4 16 -11 32 -16 35 -12 8 -12 225 0 225 5 0 10 28 13 63
3 46 10 72 27 96 23 32 24 40 22 175 -1 77 -6 143 -12 144 -5 2 -9 67 -9 147
0 79 -4 146 -9 149 -5 3 -12 128 -16 278 -4 150 -11 278 -15 283 -4 6 -11 139
-15 298 l-7 287 136 0 136 0 0 -159z m530 149 c0 -5 24 -10 54 -10 30 0 57 -4
60 -9 3 -4 51 -12 106 -15 55 -4 102 -11 105 -16 3 -4 36 -11 75 -15 38 -4 70
-11 70 -16 0 -5 -4 -9 -9 -9 -5 0 -11 -17 -14 -38 -4 -20 -36 -95 -72 -166
-36 -71 -65 -137 -65 -147 0 -11 -4 -19 -9 -19 -5 0 -13 -14 -16 -32 -4 -17
-16 -47 -26 -65 -11 -19 -19 -38 -19 -44 0 -6 -7 -27 -16 -47 -9 -21 -23 -51
-30 -69 -8 -17 -14 -38 -14 -47 0 -9 -5 -16 -11 -16 -6 0 -30 -16 -53 -35
l-43 -35 -157 0 -156 0 0 430 0 430 120 0 c73 0 120 -4 120 -10z m998 -290 c2
-5 13 -10 24 -10 10 0 41 -18 67 -40 26 -22 52 -40 57 -40 5 0 56 -47 114
-105 58 -58 110 -105 117 -105 7 0 13 -6 13 -13 0 -8 11 -24 25 -37 14 -13 25
-29 25 -35 0 -6 30 -45 68 -86 70 -78 89 -103 98 -131 4 -10 10 -18 14 -18 6
0 70 -113 70 -125 0 -3 -13 -5 -29 -5 -17 0 -32 -4 -35 -9 -3 -5 -30 -12 -61
-16 -30 -3 -57 -11 -60 -16 -4 -5 -19 -9 -35 -9 -16 0 -31 -4 -34 -9 -3 -5
-33 -12 -66 -16 -33 -4 -62 -11 -65 -16 -3 -4 -28 -11 -56 -15 -27 -4 -52 -11
-55 -15 -3 -5 -18 -9 -34 -9 -16 0 -31 -4 -34 -9 -3 -5 -33 -12 -66 -16 -33
-4 -60 -11 -60 -15 0 -4 -25 -11 -55 -15 -57 -7 -69 -21 -40 -45 8 -7 15 -17
15 -23 0 -6 -13 2 -30 18 -16 16 -30 33 -30 38 0 4 -16 23 -35 41 -19 19 -35
37 -35 42 0 5 -40 50 -90 99 -78 78 -109 125 -82 125 8 0 42 73 42 90 0 6 4
10 9 10 8 0 21 28 25 55 1 6 19 46 41 90 21 44 40 85 41 90 3 24 17 55 24 55
4 0 11 12 15 27 3 15 15 39 26 54 10 15 19 33 19 39 0 7 15 44 33 82 32 69 32
69 67 64 19 -3 36 -10 38 -16z m-4574 -259 c3 -5 33 -12 66 -16 33 -4 63 -11
66 -16 3 -5 18 -9 35 -9 16 0 29 -4 29 -9 0 -5 30 -13 68 -16 37 -4 72 -11 77
-15 6 -5 36 -11 68 -15 31 -4 57 -11 57 -16 0 -5 13 -9 29 -9 17 0 32 -4 36
-9 3 -6 37 -13 75 -17 39 -3 70 -10 70 -14 0 -5 27 -11 60 -15 33 -4 63 -11
66 -16 3 -5 18 -9 34 -9 16 0 31 -4 34 -9 3 -5 33 -12 66 -16 33 -4 63 -11 66
-16 3 -5 20 -9 39 -9 19 0 36 -4 39 -9 3 -5 33 -12 66 -16 33 -4 62 -11 65
-15 3 -4 32 -11 65 -15 33 -4 60 -11 60 -16 0 -5 18 -9 39 -9 22 0 42 -4 45
-9 3 -5 33 -12 66 -16 33 -4 60 -11 60 -15 0 -4 27 -11 60 -15 33 -4 63 -11
66 -16 3 -5 18 -9 34 -9 16 0 31 -4 34 -9 3 -4 37 -11 76 -15 38 -4 70 -11 70
-16 0 -4 27 -11 60 -15 33 -4 63 -11 66 -16 3 -5 18 -9 34 -9 16 0 31 -4 34
-9 3 -5 35 -12 71 -16 36 -3 67 -11 70 -16 4 -5 19 -9 35 -9 16 0 32 -4 35
-10 3 -5 16 -10 28 -10 39 0 97 -12 103 -21 3 -5 21 -9 40 -9 24 0 34 -5 34
-15 0 -8 5 -15 10 -15 6 0 10 -11 10 -24 0 -14 5 -28 10 -31 6 -4 8 -11 5 -16
-8 -12 -122 -12 -129 0 -3 5 -58 12 -121 16 -63 4 -117 10 -120 15 -3 4 -57
11 -120 15 -63 4 -118 11 -121 16 -3 5 -34 9 -70 9 -35 0 -64 4 -64 9 0 5 -54
12 -120 16 -66 4 -120 11 -120 15 0 6 -155 22 -207 21 -12 0 -25 4 -28 9 -3 6
-35 10 -71 10 -35 0 -64 4 -64 9 0 5 -54 12 -120 16 -66 4 -120 11 -120 16 0
5 -24 9 -54 9 -30 0 -57 4 -60 9 -3 5 -61 12 -128 16 -68 4 -128 11 -133 15
-6 5 -61 12 -123 16 -62 4 -115 11 -118 15 -3 5 -30 9 -60 9 -30 0 -54 4 -54
9 0 4 -51 11 -112 15 -62 4 -117 11 -123 16 -5 4 -63 11 -127 15 -65 4 -118 9
-118 12 0 3 34 41 75 84 41 43 74 82 73 86 -2 13 20 60 31 68 6 3 11 28 11 54
0 26 3 51 7 54 10 10 71 8 77 -2z m-80 -660 c3 -5 53 -12 111 -16 58 -4 108
-11 111 -16 3 -5 34 -9 70 -9 35 0 64 -4 64 -9 0 -5 50 -12 110 -16 61 -4 112
-11 115 -15 3 -4 57 -11 120 -15 63 -4 118 -11 121 -16 3 -5 30 -9 60 -9 30 0
54 -4 54 -9 0 -5 54 -12 120 -16 66 -4 120 -11 120 -16 0 -5 24 -9 54 -9 30 0
57 -4 60 -9 3 -5 56 -12 118 -16 62 -4 118 -11 123 -15 6 -4 56 -11 113 -15
56 -4 105 -11 108 -16 3 -5 29 -9 59 -9 30 0 56 -4 59 -9 3 -5 58 -12 121 -16
63 -4 117 -11 120 -15 3 -4 57 -11 120 -15 63 -4 118 -11 121 -16 3 -5 30 -9
60 -9 30 0 54 -4 54 -9 0 -5 47 -12 105 -16 l105 -7 0 -77 c0 -43 3 -81 7 -84
3 -4 5 -36 4 -71 -1 -37 2 -67 8 -71 6 -3 11 -40 11 -86 0 -43 4 -79 9 -79 14
0 23 -273 15 -512 -7 -228 -7 -229 -29 -224 -11 3 -60 6 -108 7 -48 1 -90 5
-93 10 -3 5 -43 9 -89 9 -46 0 -86 4 -89 9 -3 5 -85 12 -181 16 -96 4 -175 11
-175 16 0 5 -40 9 -89 9 -50 0 -92 4 -95 9 -3 4 -40 9 -83 11 -168 5 -258 12
-268 20 -5 4 -90 11 -188 15 -97 4 -180 12 -183 16 -3 5 -43 9 -89 9 -46 0
-86 4 -89 9 -3 5 -82 12 -176 16 -94 4 -172 11 -175 15 -3 4 -81 11 -175 15
-94 4 -173 11 -176 16 -3 5 -43 9 -89 9 -46 0 -87 5 -90 10 -3 6 -42 10 -85
10 -107 0 -110 2 -110 65 0 30 -4 56 -9 60 -5 3 -12 19 -16 35 -4 17 -11 30
-16 30 -5 0 -9 11 -9 25 0 14 -6 25 -13 25 -7 0 -31 18 -52 40 -27 27 -48 40
-66 40 -15 0 -31 5 -34 10 -3 6 -18 7 -32 4 -26 -7 -26 -7 -18 42 4 27 10 51
15 54 4 3 10 22 14 43 4 21 16 54 26 72 10 18 22 50 26 69 3 20 10 39 15 42 5
3 9 16 9 30 0 13 5 24 10 24 6 0 9 3 8 8 -1 8 9 39 23 64 5 9 12 35 15 58 4
22 10 40 15 40 5 0 9 11 9 24 0 14 5 28 10 31 6 4 8 11 5 16 -4 5 -1 9 4 9 6
0 11 11 11 24 0 14 4 27 9 30 5 3 12 22 15 42 4 19 16 51 27 70 10 19 18 38
17 42 -1 8 9 39 23 64 5 10 9 25 9 34 0 41 19 54 80 54 32 0 61 -4 64 -9z
m5428 -63 c-1 -9 2 -19 8 -23 5 -3 10 -19 10 -35 0 -16 4 -31 9 -34 5 -4 12
-25 16 -49 3 -23 10 -51 15 -62 4 -11 12 -29 16 -40 4 -11 9 -77 10 -146 0
-70 4 -131 8 -137 3 -6 2 -13 -3 -16 -5 -4 -8 -33 -6 -66 2 -33 -1 -60 -6 -60
-5 0 -9 -29 -9 -64 0 -36 -4 -68 -10 -71 -5 -3 -12 -28 -16 -56 -4 -27 -11
-52 -15 -55 -5 -3 -9 -14 -9 -25 0 -23 -22 -25 -40 -4 -7 8 -18 15 -24 15 -14
0 -459 444 -452 451 3 3 -17 27 -44 54 -28 27 -50 53 -50 56 0 4 -26 33 -57
64 -32 31 -58 61 -58 65 0 5 -3 12 -7 16 -16 16 -7 34 17 34 14 0 25 4 25 9 0
5 20 12 45 15 24 4 47 11 50 16 3 4 24 11 48 15 38 6 67 15 107 35 9 4 31 11
50 14 32 7 52 14 106 38 11 5 27 9 35 7 14 -2 41 6 70 21 9 5 33 12 53 15 20
4 39 12 42 17 3 5 20 8 37 6 23 -2 31 -8 29 -20z"/>
<path d="M8460 20501 c-8 -4 -25 -13 -37 -19 -12 -7 -40 -15 -63 -18 -22 -4
-40 -10 -40 -15 0 -5 -18 -9 -39 -9 -22 0 -43 -5 -47 -11 -3 -6 -17 -8 -30 -5
-14 4 -24 2 -24 -4 0 -5 -13 -10 -29 -10 -17 0 -33 -4 -36 -10 -3 -5 -19 -10
-35 -10 -16 0 -31 -4 -35 -10 -3 -5 -13 -6 -21 -3 -8 3 -25 1 -37 -4 -54 -25
-77 -32 -101 -27 -13 2 -28 0 -31 -6 -3 -5 -21 -10 -40 -10 -19 0 -37 -4 -40
-10 -3 -5 -21 -10 -38 -10 -18 0 -50 -7 -72 -15 -22 -8 -63 -14 -92 -15 -28 0
-54 -4 -57 -9 -3 -4 -28 -11 -55 -15 -28 -4 -52 -10 -55 -15 -3 -4 -36 -11
-72 -14 -37 -4 -70 -10 -73 -15 -7 -8 -134 -72 -146 -72 -4 0 -19 -9 -34 -19
-15 -11 -39 -23 -54 -26 -15 -4 -27 -11 -27 -15 0 -4 -9 -10 -20 -13 -11 -3
-24 -6 -28 -7 -4 -1 -18 -10 -32 -20 -14 -9 -36 -21 -50 -25 -14 -4 -27 -11
-30 -14 -7 -10 -76 -41 -89 -41 -6 0 -11 -4 -11 -9 0 -5 -12 -12 -27 -16 -15
-3 -30 -10 -33 -13 -8 -11 -39 -28 -148 -83 -56 -28 -105 -55 -108 -60 -3 -5
-27 -19 -52 -31 -26 -12 -60 -31 -77 -42 -46 -32 -68 -45 -92 -56 -13 -5 -23
-14 -23 -19 0 -5 -8 -11 -17 -15 -43 -14 -117 -73 -215 -171 -43 -42 -78 -80
-78 -84 0 -4 -18 -25 -40 -46 -22 -21 -40 -44 -40 -50 0 -6 -11 -22 -25 -35
-14 -13 -25 -29 -25 -36 0 -7 -6 -17 -12 -21 -16 -10 -28 -30 -70 -113 -18
-36 -35 -67 -39 -70 -3 -3 -10 -16 -14 -30 -4 -14 -16 -37 -26 -52 -11 -14
-16 -33 -13 -41 3 -8 1 -18 -5 -22 -6 -3 -11 -21 -11 -39 0 -18 -3 -36 -7 -40
-10 -9 -13 -37 -20 -153 -5 -94 -7 -103 -32 -125 -29 -26 -91 -58 -113 -58 -8
0 -25 -11 -38 -25 l-23 -25 21 -23 c12 -13 22 -28 22 -34 0 -6 7 -16 15 -23 8
-7 15 -20 15 -29 0 -35 25 -69 54 -75 16 -3 82 -6 147 -6 l119 0 0 28 c0 16 3
32 8 36 4 4 7 11 7 14 4 49 21 112 36 133 10 14 16 29 13 31 -3 3 4 22 16 42
11 20 20 41 20 47 0 6 6 25 14 42 21 49 30 71 31 82 0 6 8 26 17 45 9 19 19
46 23 60 7 24 104 226 128 264 46 75 169 206 194 206 7 0 16 6 20 13 8 14 73
47 92 47 6 0 11 4 11 9 0 5 24 21 54 36 29 14 66 39 81 55 16 17 35 30 42 30
7 0 13 4 13 8 0 5 21 20 48 35 26 14 65 44 87 66 21 23 43 41 48 41 6 0 47 36
92 79 52 50 94 81 114 86 17 3 31 10 31 15 0 4 12 11 27 15 15 3 39 15 54 26
15 10 32 19 38 19 6 0 11 5 11 10 0 6 6 10 13 10 6 1 30 9 52 20 22 11 46 19
53 20 6 0 12 4 12 9 0 5 14 13 32 16 17 4 47 16 65 26 19 11 39 19 46 19 7 0
24 6 39 14 15 8 41 17 59 21 32 7 41 11 89 35 11 6 27 10 36 10 9 0 30 7 47
16 62 32 69 35 74 30 3 -2 20 4 39 15 19 10 42 19 52 19 10 0 44 13 77 30 33
16 65 30 71 30 7 0 25 7 40 15 16 8 37 15 47 15 9 0 17 5 17 10 0 6 9 10 20
10 11 0 20 4 20 9 0 5 20 12 45 15 24 4 47 11 50 16 3 4 23 11 45 15 22 4 42
11 46 16 3 5 16 9 29 9 13 0 26 4 29 9 4 5 24 12 46 16 36 6 43 12 62 53 12
26 32 61 44 77 33 45 40 75 17 74 -10 0 -25 -4 -33 -8z"/>
<path d="M5125 18065 c-16 -13 -35 -24 -41 -25 -6 0 -21 -11 -33 -24 -13 -13
-35 -27 -49 -31 -14 -3 -31 -13 -37 -21 -11 -15 -41 -35 -84 -54 -13 -6 -61
-48 -106 -93 -91 -92 -142 -180 -152 -266 -3 -29 -10 -54 -14 -57 -5 -3 -9
-25 -9 -49 0 -24 -4 -47 -10 -50 -5 -3 -10 -25 -10 -49 0 -23 -3 -46 -7 -50
-4 -4 -6 -24 -4 -45 1 -22 -2 -42 -8 -46 -6 -3 -11 -26 -11 -50 0 -24 -4 -46
-9 -49 -5 -3 -12 -45 -16 -93 -4 -49 -12 -94 -18 -102 -16 -19 -17 -762 -1
-782 7 -8 15 -39 19 -69 7 -54 10 -63 34 -108 7 -13 11 -44 10 -68 -2 -24 0
-46 4 -50 4 -4 7 -27 7 -50 0 -24 5 -46 10 -49 6 -3 10 -21 10 -40 0 -19 4
-36 9 -39 5 -3 12 -33 16 -66 4 -33 10 -60 15 -60 4 0 10 -22 13 -49 3 -27 10
-58 16 -68 16 -31 24 -57 22 -75 -1 -10 3 -18 8 -18 6 0 11 -10 11 -22 0 -13
7 -32 15 -42 8 -11 15 -30 15 -43 0 -13 4 -23 9 -23 5 0 12 -10 16 -22 4 -13
9 -25 10 -28 1 -3 6 -15 10 -27 4 -13 11 -23 15 -23 4 0 11 -12 15 -27 3 -15
14 -38 24 -52 10 -14 22 -37 26 -51 4 -14 10 -27 14 -30 9 -8 30 -42 42 -70
12 -28 304 -320 320 -320 6 0 28 -14 48 -30 48 -41 54 -45 71 -53 8 -4 29 -16
45 -27 17 -11 38 -23 48 -26 9 -4 17 -10 17 -14 0 -4 8 -11 18 -14 20 -8 47
-23 89 -53 17 -13 34 -23 38 -23 3 0 21 -10 38 -23 64 -44 201 -117 223 -117
8 0 14 -4 14 -10 0 -5 5 -10 11 -10 6 0 25 -11 42 -24 18 -13 43 -27 57 -31
14 -4 32 -16 41 -26 9 -11 20 -19 24 -19 12 0 139 -62 145 -70 3 -4 16 -11 30
-15 14 -4 37 -16 52 -27 15 -11 44 -22 63 -25 19 -3 35 -9 35 -13 0 -4 12 -11
27 -15 15 -3 30 -10 33 -14 8 -11 136 -71 153 -71 9 0 19 -4 22 -10 3 -5 17
-10 31 -10 13 0 24 -5 24 -11 0 -6 7 -8 15 -5 9 3 23 2 33 -3 9 -5 29 -14 45
-20 15 -6 38 -16 51 -22 13 -6 29 -8 35 -5 13 9 15 36 2 36 -5 0 -12 20 -15
45 -4 24 -11 47 -16 50 -4 3 -11 23 -15 45 -4 22 -11 42 -16 46 -5 3 -9 16 -9
30 0 13 -4 24 -10 24 -5 0 -13 18 -16 40 -4 22 -10 40 -15 40 -5 0 -9 11 -9
24 0 14 -5 28 -10 31 -6 4 -8 10 -5 15 3 5 1 18 -5 30 -5 11 -14 29 -20 40 -5
10 -13 37 -16 60 -4 22 -10 40 -15 40 -5 0 -9 23 -9 50 0 31 -4 50 -11 50 -8
0 -10 15 -7 45 3 25 2 48 -3 51 -5 3 -9 29 -9 59 0 34 -5 55 -12 58 -17 5 -16
629 1 635 6 2 11 19 11 37 0 19 5 37 10 40 6 4 8 10 5 15 -3 5 -2 17 3 27 20
39 31 70 37 107 3 21 11 47 16 57 5 11 14 28 19 39 6 11 10 25 10 32 0 19 92
198 102 198 4 0 8 5 8 11 0 13 31 82 40 89 4 3 10 12 14 20 14 30 31 56 53 80
72 80 103 118 103 126 0 13 273 284 286 284 6 0 21 11 34 25 13 14 29 25 36
25 6 0 14 7 18 15 3 8 11 15 18 15 6 0 22 10 34 21 25 24 59 45 87 55 36 13
15 24 -47 24 -36 0 -67 4 -71 10 -3 5 -35 7 -70 6 -36 -2 -68 0 -71 5 -3 5
-18 9 -35 9 -16 0 -29 4 -29 9 0 5 -20 12 -45 15 -24 4 -47 11 -50 17 -4 5
-19 9 -34 9 -15 0 -31 3 -35 7 -7 8 -16 10 -63 19 -18 4 -33 10 -33 15 0 4
-20 11 -45 15 -25 3 -45 10 -45 15 0 5 -11 9 -24 9 -14 0 -27 4 -30 9 -4 5
-24 12 -46 16 -22 4 -42 11 -46 16 -3 5 -14 9 -26 9 -17 0 -73 25 -88 40 -8 8
-40 27 -87 51 -24 13 -43 26 -43 31 0 4 -6 8 -13 8 -8 0 -22 9 -33 21 -10 11
-32 27 -49 34 -16 7 -51 33 -77 58 -26 25 -64 52 -83 61 -19 9 -35 21 -35 25
0 5 -8 11 -17 15 -10 3 -31 15 -48 26 -16 11 -37 23 -45 27 -8 3 -17 9 -20 12
-9 10 -44 31 -62 37 -10 4 -18 10 -18 14 0 5 -13 11 -29 15 -16 3 -35 13 -42
21 -6 8 -17 14 -23 14 -15 0 -160 73 -164 83 -2 4 -9 7 -17 7 -7 0 -18 7 -25
15 -7 8 -16 13 -20 10 -4 -2 -15 4 -25 15 -10 11 -24 20 -30 20 -13 0 -95 102
-95 119 0 5 -11 18 -24 28 -23 18 -66 88 -66 106 0 5 -9 21 -19 36 -11 15 -23
39 -26 54 -4 15 -11 27 -16 27 -5 0 -9 11 -9 25 0 14 -4 25 -9 25 -5 0 -12 21
-16 48 -3 26 -19 73 -33 104 l-27 58 -65 0 c-54 0 -70 -4 -95 -25z"/>
<path d="M2717 1902 c-81 -81 -147 -153 -147 -160 0 -9 32 -12 124 -12 69 0
127 -4 130 -9 3 -5 123 -12 266 -16 143 -4 262 -11 265 -15 3 -4 126 -11 275
-15 149 -4 273 -11 276 -16 3 -5 60 -9 128 -9 67 0 125 -3 128 -6 3 -3 64 -7
134 -9 271 -9 389 -16 398 -26 6 -5 70 -9 142 -9 73 0 135 -4 138 -9 3 -5 123
-12 266 -16 143 -4 260 -11 260 -15 0 -4 118 -11 263 -15 144 -4 267 -10 272
-15 9 -7 277 -19 480 -22 82 -1 148 7 176 22 9 4 41 11 72 15 32 4 57 11 57
15 0 4 -66 10 -147 14 -81 3 -152 11 -157 16 -6 6 -29 10 -52 10 -24 0 -46 4
-49 10 -3 5 -16 9 -28 9 -54 -3 -227 15 -227 23 0 4 -31 8 -69 8 -39 0 -72 4
-75 9 -3 5 -72 12 -153 16 -82 3 -155 9 -163 13 -8 3 -37 7 -65 8 -93 2 -226
17 -231 26 -3 4 -29 8 -59 8 -30 0 -57 4 -60 10 -3 5 -20 10 -38 9 -62 0 -197
14 -197 21 0 4 -54 11 -120 15 -66 4 -120 11 -120 16 0 5 -29 9 -64 9 -36 0
-67 4 -70 9 -3 5 -58 12 -121 16 -63 4 -117 10 -120 15 -3 4 -52 11 -110 15
-58 4 -108 11 -111 16 -3 5 -29 9 -59 9 -30 0 -57 5 -60 10 -4 6 -14 10 -23 9
-38 -5 -303 14 -308 22 -3 5 -36 9 -74 9 -38 0 -71 4 -74 9 -3 4 -65 12 -138
16 -72 4 -139 11 -147 16 -9 4 -60 11 -113 14 -54 4 -100 11 -104 16 -3 5 -24
9 -48 9 -23 0 -46 4 -51 9 -6 5 -42 11 -81 14 l-71 6 -146 -147z"/>
<path d="M15116 1635 c-3 -8 -12 -15 -19 -15 -8 0 -22 -9 -32 -20 -10 -11 -24
-20 -32 -20 -7 0 -16 -7 -19 -15 -4 -8 -12 -15 -18 -15 -7 0 -23 -11 -36 -25
-13 -14 -30 -25 -37 -25 -8 0 -16 -6 -19 -14 -3 -8 -13 -17 -22 -20 -9 -3 -30
-15 -47 -26 -16 -11 -37 -23 -45 -26 -21 -10 -50 -36 -50 -46 0 -4 72 -8 159
-8 88 0 162 -4 165 -9 3 -5 148 -12 321 -16 173 -4 318 -11 321 -16 3 -5 79
-9 169 -9 90 0 166 -4 169 -9 3 -5 148 -12 321 -16 173 -4 318 -12 321 -17 3
-5 80 -8 171 -8 90 1 167 -1 170 -4 4 -3 75 -6 159 -6 91 0 155 -4 159 -10 4
-6 70 -10 166 -10 99 0 159 -4 159 -10 0 -12 113 -13 249 -3 72 5 94 10 99 22
3 9 14 28 24 44 l19 27 -75 0 c-45 0 -76 4 -76 10 0 6 -25 10 -57 11 -89 0
-187 10 -197 20 -6 5 -36 9 -67 9 -32 0 -60 4 -63 9 -3 5 -67 12 -141 16 -74
4 -135 11 -135 15 0 4 -56 11 -125 15 -69 4 -128 11 -131 16 -3 5 -34 9 -70 9
-35 0 -64 4 -64 9 0 5 -56 12 -125 16 -69 4 -127 10 -130 15 -2 4 -63 11 -135
15 -71 4 -132 11 -136 16 -3 5 -34 9 -70 9 -35 0 -64 4 -64 9 0 5 -55 12 -122
16 -67 4 -129 11 -137 15 -14 8 -112 18 -333 36 -38 3 -68 9 -68 14 0 4 -56
11 -125 15 -69 4 -128 11 -131 16 -3 5 -40 9 -84 9 -60 0 -79 -3 -84 -15z"/>
<path d="M940 1482 c0 -102 2 -119 18 -128 12 -8 213 -14 650 -19 348 -4 635
-11 638 -16 3 -5 149 -9 324 -9 210 0 321 -4 325 -10 4 -7 114 -10 322 -10
173 1 317 -1 321 -4 3 -3 151 -6 329 -6 313 0 323 1 323 19 0 11 5 23 10 26 6
3 10 19 10 34 0 15 3 31 7 35 4 3 8 12 9 19 1 7 5 20 9 30 6 13 4 18 -6 16
-32 -6 -705 14 -714 21 -5 4 -164 11 -353 15 -188 4 -345 11 -348 16 -3 5 -83
9 -179 9 -96 0 -176 4 -179 9 -3 5 -168 12 -366 16 -198 4 -360 11 -360 15 0
4 -158 11 -350 15 -193 4 -353 11 -356 16 -3 5 -23 9 -45 9 l-39 0 0 -118z"/>
</g>
</svg>
