<?xml version="1.0" standalone="no"?>
<!DOCTYPE svg PUBLIC "-//W3C//DTD SVG 20010904//EN"
 "http://www.w3.org/TR/2001/REC-SVG-20010904/DTD/svg10.dtd">
<svg version="1.0" xmlns="http://www.w3.org/2000/svg"
 width="2333.000000pt" height="2333.000000pt" viewBox="0 0 2333.000000 2333.000000"
 preserveAspectRatio="xMidYMid meet">
<metadata>
Created by potrace 1.16, written by Peter Selinger 2001-2019
</metadata>
<g transform="translate(0.000000,2333.000000) scale(0.100000,-0.100000)"
fill="#000000" stroke="none">
<path d="M12602 22805 c2 -3 67 -21 144 -41 175 -45 399 -112 579 -174 379
-130 552 -212 863 -412 140 -90 183 -111 182 -90 -1 8 -96 83 -185 146 -80 55
-159 101 -280 160 -146 72 -143 71 -230 106 -44 18 -93 38 -110 45 -48 21
-182 65 -197 65 -7 0 -26 7 -41 15 -26 13 -145 50 -247 76 -19 5 -87 22 -150
38 -225 57 -344 81 -328 66z"/>
<path d="M12295 22765 c6 -2 66 -16 135 -31 358 -74 701 -185 851 -274 l26
-15 -58 -64 -58 -63 -158 77 c-240 117 -462 185 -718 221 -162 23 -272 28
-313 16 -21 -6 -50 -14 -66 -17 -16 -3 -51 -29 -81 -60 -71 -72 -80 -111 -72
-309 7 -159 39 -381 63 -430 8 -16 14 -37 14 -48 0 -10 4 -26 9 -36 5 -9 16
-33 25 -52 9 -19 14 -26 11 -15 -36 149 -70 476 -61 595 8 117 19 149 66 195
39 38 44 40 103 39 65 -1 153 -29 217 -69 19 -12 51 -27 70 -35 89 -34 298
-142 318 -163 12 -13 27 -39 32 -57 9 -32 7 -36 -33 -74 -37 -36 -65 -49 -217
-100 -96 -32 -193 -68 -215 -79 -56 -28 -147 -118 -181 -180 -28 -50 -29 -57
-29 -187 0 -137 8 -179 51 -263 16 -30 38 -57 47 -57 2 0 10 19 17 43 14 47
47 117 56 117 3 0 3 -14 -1 -30 -6 -27 -4 -32 24 -41 33 -12 39 -30 17 -48
-11 -9 -20 -9 -35 -2 -29 16 -39 14 -47 -11 -4 -13 -21 -54 -39 -93 -53 -115
-53 -134 -2 -142 10 -2 31 -10 47 -18 16 -8 32 -15 35 -15 3 0 16 21 28 48 13
30 22 41 25 30 5 -23 -20 -67 -57 -102 -17 -17 -31 -33 -31 -36 0 -4 33 -13
73 -20 238 -41 435 -168 627 -405 35 -44 69 -85 75 -91 58 -62 220 -264 301
-375 55 -77 204 -313 204 -324 0 -2 15 -38 34 -78 19 -41 40 -96 47 -123 6
-27 17 -54 23 -60 26 -26 267 -144 326 -159 74 -19 216 -16 263 6 50 23 49 86
-2 194 -17 36 -31 68 -31 71 0 7 -68 121 -82 139 -5 6 -46 61 -91 123 -85 114
-94 129 -198 327 -88 166 -94 138 114 556 164 333 173 349 200 349 32 0 83
-20 146 -57 l44 -26 -37 -19 c-34 -17 -38 -23 -32 -49 3 -16 37 -68 76 -116
41 -51 78 -109 91 -142 11 -31 24 -60 29 -66 4 -5 13 -28 19 -51 15 -56 67
-131 115 -166 31 -23 49 -28 80 -26 35 3 43 8 66 48 81 138 100 259 60 375
-61 177 -198 285 -480 376 -36 12 -46 18 -30 18 39 1 116 -22 221 -66 188 -79
302 -162 348 -252 28 -55 53 -167 46 -202 -5 -20 -2 -30 7 -33 25 -7 213 -32
326 -43 58 -5 65 -4 90 20 28 26 169 97 193 97 23 0 153 50 167 64 14 13 13
22 -17 156 -6 25 -10 66 -11 92 0 44 -3 50 -46 85 -26 21 -70 57 -98 81 -85
72 -266 190 -572 374 -284 171 -368 224 -468 296 l-48 35 26 14 c24 13 31 10
103 -35 43 -27 84 -52 92 -57 12 -7 13 0 8 37 -9 64 -56 168 -76 168 -24 0
-111 -43 -170 -83 -55 -38 -95 -54 -151 -60 -29 -3 -36 -7 -38 -30 -4 -33 -10
-33 -70 -3 -26 13 -121 54 -212 91 -91 37 -205 87 -253 112 -78 40 -88 48 -82
67 41 129 43 202 6 275 -29 55 -71 87 -196 147 -178 86 -533 192 -800 240 -95
17 -187 27 -170 19z m1125 -1330 c56 -29 100 -103 100 -170 0 -39 -21 -98 -39
-109 -25 -16 -28 7 -8 53 18 44 19 55 8 90 -43 146 -212 177 -278 51 -18 -33
-23 -59 -23 -116 0 -40 5 -76 10 -79 6 -3 10 -1 10 5 0 16 109 168 133 185 24
17 36 18 55 6 11 -6 8 -14 -12 -34 -35 -35 -33 -60 7 -91 27 -22 30 -28 17
-36 -8 -6 -29 -8 -47 -5 -25 5 -35 1 -52 -21 -38 -48 -24 -120 33 -173 15 -14
40 -47 57 -73 30 -47 32 -48 50 -32 15 13 19 31 19 76 0 78 11 98 55 98 45 0
91 -39 100 -86 6 -32 -3 -55 -81 -208 -47 -94 -89 -173 -92 -176 -2 -3 -3 12
0 32 4 39 -4 48 -43 48 -39 0 -100 41 -128 85 -15 24 -46 90 -69 147 -113 285
-90 490 60 536 73 23 108 22 158 -3z m-1096 -22 c-21 -86 -104 -296 -121 -306
-6 -4 -17 -1 -26 6 -15 11 -13 22 23 121 40 111 57 144 93 184 27 30 39 28 31
-5z m2576 -72 c20 -9 72 -35 116 -59 73 -38 82 -47 107 -97 31 -64 53 -73 44
-19 -6 35 -5 36 21 29 53 -12 112 -47 134 -78 15 -21 23 -49 26 -91 l3 -61
-18 27 c-11 15 -32 55 -48 88 -31 64 -43 63 -44 -5 -2 -61 -16 -60 -66 5 -57
74 -154 152 -298 240 -59 36 -107 68 -107 72 0 7 42 -10 130 -51z m311 -541
c92 -29 100 -36 69 -61 -21 -18 -34 -20 -80 -16 -77 8 -160 35 -160 52 0 18
47 44 81 45 15 0 55 -9 90 -20z"/>
<path d="M13776 22333 c89 -92 185 -225 255 -350 28 -51 56 -93 63 -93 19 1
99 40 133 66 l33 25 -32 46 c-46 64 -162 161 -308 258 -108 71 -200 125 -213
125 -2 0 29 -35 69 -77z"/>
<path d="M14501 22145 c20 -33 263 -270 277 -270 4 0 8 9 10 21 2 12 -13 38
-39 68 -44 50 -185 168 -238 199 l-31 18 21 -36z"/>
<path d="M14808 21845 c-4 -4 3 -21 14 -39 43 -63 55 -82 80 -131 28 -54 53
-134 44 -142 -5 -5 -173 88 -216 120 -40 29 -143 88 -147 83 -5 -4 266 -189
541 -370 98 -64 180 -115 183 -113 2 3 -53 50 -122 107 -138 112 -144 119
-179 208 -14 34 -40 88 -59 119 -42 69 -129 168 -139 158z"/>
<path d="M15165 21493 c27 -42 82 -109 159 -195 66 -74 98 -99 76 -60 -5 9
-21 44 -36 77 -32 69 -90 136 -153 177 -56 35 -68 35 -46 1z"/>
<path d="M9048 21442 c-71 -2 -110 -7 -117 -15 -21 -27 -33 -162 -28 -327 7
-239 22 -250 23 -17 1 191 16 298 39 287 6 -3 10 -106 10 -277 0 -202 3 -275
12 -284 10 -10 30 -6 98 20 47 18 91 31 98 28 7 -2 -15 -14 -48 -26 -104 -39
-268 -133 -408 -235 -199 -144 -400 -340 -579 -566 -59 -74 -118 -148 -131
-165 -13 -16 -50 -68 -81 -115 -77 -116 -72 -110 -156 -152 -90 -45 -326 -199
-424 -276 -39 -31 -136 -121 -216 -201 -217 -219 -377 -410 -462 -554 -31 -52
-87 -116 -204 -232 -160 -160 -197 -208 -258 -340 -16 -33 -41 -87 -56 -120
-38 -82 -97 -257 -110 -330 -28 -152 -20 -534 12 -573 6 -7 8 -15 5 -18 -4 -5
1 -29 33 -156 5 -20 25 -70 44 -111 27 -60 43 -81 79 -106 25 -17 50 -31 56
-31 6 0 11 -3 11 -8 0 -4 34 -25 75 -47 41 -21 75 -44 75 -50 0 -5 -10 -26
-22 -45 -32 -51 -103 -185 -139 -260 -17 -36 -35 -67 -39 -70 -4 -3 -17 -27
-30 -55 -12 -27 -38 -81 -57 -120 -19 -38 -46 -99 -59 -134 -13 -36 -28 -69
-33 -75 -14 -18 -69 -196 -86 -276 -16 -78 -19 -166 -9 -219 9 -44 24 -28 24
26 0 64 35 227 71 330 65 185 162 361 454 823 119 187 140 215 255 330 133
133 234 210 444 337 126 76 307 194 433 282 73 52 140 64 197 37 19 -9 41 -16
49 -16 9 0 23 -3 32 -6 14 -6 13 -9 -6 -30 -12 -13 -28 -24 -35 -24 -20 0 -71
-58 -115 -131 -46 -76 -88 -181 -125 -312 -54 -187 -106 -261 -360 -513 -187
-185 -204 -205 -218 -254 -16 -53 -14 -105 6 -142 15 -30 138 -56 503 -108
319 -45 549 -98 710 -162 98 -40 148 -68 95 -54 -66 17 -420 76 -540 90 -155
18 -407 21 -530 6 -289 -36 -693 -174 -937 -320 -102 -62 -258 -175 -297 -216
-39 -41 -96 -138 -96 -162 0 -12 -4 -24 -10 -27 -5 -3 -10 -39 -10 -78 0 -59
5 -83 31 -137 17 -36 43 -78 58 -95 28 -30 29 -33 35 -187 7 -166 25 -293 56
-394 21 -71 100 -234 112 -234 4 0 8 -5 8 -12 0 -48 317 -385 580 -617 324
-285 527 -445 800 -628 306 -206 497 -323 618 -381 40 -19 79 -44 86 -56 8
-12 28 -75 46 -141 17 -66 36 -125 40 -130 5 -6 15 -37 24 -70 32 -125 48
-180 57 -189 5 -6 9 -20 9 -33 0 -13 4 -31 10 -41 5 -9 21 -60 36 -112 14 -52
30 -99 34 -105 4 -5 15 -37 23 -70 32 -124 58 -211 67 -227 5 -10 14 -34 19
-55 6 -21 14 -54 20 -73 5 -19 17 -60 25 -90 8 -30 20 -64 26 -75 14 -29 88
-299 84 -307 -3 -4 -38 -23 -79 -42 -57 -27 -76 -41 -81 -61 -5 -20 -17 -28
-63 -41 -111 -32 -264 -127 -337 -207 -51 -57 -102 -132 -139 -206 -36 -71
-101 -274 -123 -381 -17 -86 -18 -96 -4 -107 9 -7 19 -13 23 -13 4 0 15 33 24
73 35 144 97 334 137 415 50 104 131 193 247 270 97 65 226 119 246 102 6 -5
17 -29 24 -52 20 -67 50 -74 133 -32 28 14 54 22 58 17 4 -4 18 -50 30 -101
l23 -94 -36 -73 c-63 -125 -41 -116 35 14 110 192 229 303 443 416 99 52 32
34 -79 -21 -68 -33 -92 -41 -98 -32 -13 21 -5 30 42 47 l45 17 -3 50 -3 50 78
18 c89 21 133 41 133 60 0 8 -9 35 -20 60 -14 33 -25 46 -39 46 -21 0 -101
-24 -136 -40 -46 -22 -109 -40 -115 -33 -14 16 -103 294 -229 713 -22 74 -70
232 -105 350 -36 118 -74 244 -85 280 -11 35 -18 66 -16 68 9 9 463 -154 700
-251 217 -88 801 -396 925 -488 117 -86 118 -77 -8 -148 -210 -116 -347 -215
-466 -334 -110 -109 -286 -300 -286 -310 0 -2 36 8 79 24 113 40 268 81 292
77 11 -2 -100 -43 -248 -92 -381 -127 -478 -179 -637 -347 -170 -177 -290
-411 -387 -753 -17 -61 -34 -118 -36 -126 -2 -8 16 23 41 70 48 89 51 92 214
208 47 34 74 48 76 40 3 -7 7 -41 9 -76 l5 -64 -110 -86 c-60 -48 -147 -114
-193 -147 -82 -59 -86 -63 -179 -218 -101 -168 -171 -270 -203 -300 -20 -17
-21 -17 -37 7 -9 14 -16 27 -16 30 0 2 24 40 54 83 134 194 304 493 282 493
-3 0 -26 -39 -52 -87 -70 -130 -139 -229 -213 -307 -79 -82 -509 -429 -851
-684 -305 -227 -282 -207 -775 -667 -478 -446 -413 -388 -724 -636 -135 -108
-245 -200 -244 -206 1 -5 -87 -52 -195 -103 -396 -188 -651 -328 -902 -495
-267 -178 -426 -325 -522 -481 -51 -85 -56 -88 -163 -129 l-60 -22 -405 68
c-1786 300 -2134 359 -2144 369 -5 5 -21 10 -35 10 -47 0 -54 12 -47 76 12 96
74 392 104 494 28 93 29 95 58 93 16 -1 45 -3 64 -3 19 -1 170 -32 335 -70
831 -190 1438 -330 1790 -411 l390 -90 88 -87 c48 -48 87 -90 87 -94 0 -4 -11
-10 -25 -14 -27 -7 -32 -25 -11 -43 10 -9 30 6 92 67 177 174 406 335 715 503
107 59 148 86 144 96 -3 8 -5 17 -5 19 0 12 -27 1 -38 -16 -27 -44 -47 -25
-91 88 l-43 109 32 149 c17 82 82 399 145 704 63 305 139 677 170 825 31 149
76 367 100 486 24 118 51 229 60 245 8 16 15 39 15 52 0 12 7 25 16 29 30 11
339 -54 527 -112 73 -22 87 -30 82 -43 -4 -10 -9 -41 -11 -70 -2 -30 -119
-527 -259 -1105 -140 -579 -255 -1055 -255 -1060 0 -10 -125 -90 -168 -107
-32 -12 -117 -98 -107 -108 5 -5 19 4 81 53 34 27 44 30 100 28 l62 -2 41 63
c24 38 93 112 173 187 482 451 653 613 656 621 10 24 -25 -4 -138 -112 -69
-65 -126 -117 -128 -115 -2 2 15 46 38 97 23 51 69 156 103 232 l62 139 8 -47
c8 -49 51 -156 63 -156 3 0 47 37 98 83 50 46 168 148 261 227 94 79 209 180
258 223 100 92 107 113 57 170 -16 19 -30 39 -30 44 0 5 28 36 63 71 l62 61
59 -29 c76 -39 111 -38 167 2 292 210 1258 992 1244 1006 -8 8 -73 -41 -268
-202 -267 -220 -360 -286 -403 -286 -32 0 -211 167 -195 183 6 6 24 -1 51 -23
39 -31 42 -32 60 -15 25 23 25 47 0 70 -11 10 -20 24 -20 31 0 7 47 47 104 88
57 42 109 82 115 90 16 20 3 46 -24 46 -19 0 -202 -111 -248 -151 -7 -5 -34
-26 -62 -45 -27 -20 -43 -34 -34 -31 10 3 48 28 87 55 95 68 152 104 152 95 0
-5 -34 -33 -76 -63 -41 -30 -83 -64 -92 -75 -12 -14 -13 -17 -2 -9 270 192
287 203 275 184 -4 -6 -69 -57 -144 -112 -75 -55 -148 -114 -163 -131 -31 -33
-36 -62 -13 -71 8 -3 15 -12 15 -21 0 -12 -12 -14 -67 -11 l-67 5 -56 -47
c-30 -26 -116 -101 -190 -167 -74 -66 -156 -137 -182 -158 -26 -21 -56 -54
-67 -72 -22 -38 -166 -155 -190 -155 -18 0 -58 54 -71 96 l-8 29 -1 -28 c-1
-38 23 -92 60 -135 l31 -35 -59 -53 c-32 -29 -63 -53 -69 -54 -6 0 -22 8 -35
19 -53 41 -64 38 -140 -35 -38 -37 -77 -69 -85 -70 -23 -4 -54 -34 -75 -77
-24 -46 -34 -49 -15 -5 86 202 249 555 259 563 7 6 19 25 26 43 8 18 18 35 22
38 5 3 32 -7 59 -22 l50 -27 -25 -27 c-30 -31 -34 -70 -7 -70 10 0 38 19 62
42 25 22 60 47 79 55 l33 14 -83 53 c-451 286 -987 476 -1555 553 -184 24
-724 24 -909 0 -1061 -143 -1962 -669 -2588 -1512 -419 -565 -670 -1238 -728
-1951 -14 -180 -6 -579 15 -741 65 -495 194 -904 419 -1328 286 -542 730
-1031 1242 -1369 186 -122 270 -170 458 -261 453 -218 916 -337 1434 -367 623
-36 1262 91 1833 364 565 270 1051 675 1427 1188 76 104 91 120 116 120 15 0
45 9 67 20 22 11 50 20 62 20 53 -1 50 -13 -30 -131 -325 -479 -714 -856
-1199 -1161 -167 -104 -509 -272 -698 -342 -283 -105 -576 -177 -905 -223
-100 -14 -196 -18 -475 -18 -380 0 -447 6 -755 65 -1406 268 -2564 1298 -3004
2668 -76 237 -135 515 -168 787 -20 167 -17 715 5 877 105 781 375 1422 851
2018 114 142 406 440 543 552 1075 887 2490 1148 3801 702 319 -108 615 -252
884 -431 l98 -65 34 28 c19 16 107 88 195 159 88 72 160 133 160 138 1 4 -7 7
-17 7 -41 0 -61 46 -50 114 2 11 -8 27 -24 39 l-28 21 -23 -22 c-32 -30 -77
-29 -107 3 -18 20 -22 32 -17 64 8 63 -40 94 -81 53 -29 -29 -67 -28 -97 3
-26 25 -31 54 -15 84 7 15 2 22 -31 40 l-40 23 -20 -26 c-16 -20 -30 -26 -58
-26 -32 0 -40 5 -55 33 -13 23 -15 39 -8 57 8 21 5 26 -26 43 l-35 19 -24 -26
c-52 -56 -140 -19 -130 55 4 32 1 38 -20 48 -36 17 -53 14 -75 -14 -42 -54
-136 -14 -126 54 4 26 0 31 -33 44 -36 14 -37 14 -49 -9 -14 -26 -53 -42 -88
-36 -31 5 -56 45 -49 80 5 25 2 29 -36 41 -33 10 -42 10 -46 0 -9 -27 -51 -59
-78 -59 -38 0 -76 45 -69 82 5 24 2 28 -31 37 -39 11 -53 7 -53 -14 0 -21 -41
-45 -77 -45 -37 0 -63 29 -63 70 0 22 -6 28 -41 37 -38 10 -41 9 -49 -12 -11
-29 -48 -55 -78 -55 -31 0 -75 48 -69 77 3 19 -1 24 -29 29 -43 8 -64 0 -64
-25 0 -24 -36 -51 -68 -51 -31 0 -72 43 -72 75 0 23 -3 25 -45 25 -37 0 -45
-3 -45 -18 0 -26 -42 -62 -71 -62 -38 0 -69 27 -69 61 0 28 -2 29 -45 29 -31
0 -45 -4 -45 -14 0 -7 -9 -25 -21 -40 -36 -46 -110 -30 -124 27 -6 24 -12 27
-51 27 -40 0 -44 -2 -44 -25 0 -30 -36 -65 -68 -65 -35 0 -58 16 -72 50 -11
26 -17 30 -51 30 -34 0 -39 -3 -39 -24 0 -34 -43 -76 -79 -76 -30 0 -71 38
-71 66 0 15 -29 18 -67 8 -17 -5 -23 -14 -23 -33 0 -32 -37 -71 -66 -71 -27 0
-63 27 -74 56 -8 20 -14 23 -37 18 -50 -10 -53 -13 -53 -44 0 -66 -88 -97
-129 -44 -11 14 -21 29 -23 34 -2 5 -19 5 -38 1 -32 -6 -35 -10 -38 -44 -3
-39 -39 -77 -72 -77 -23 0 -70 38 -70 56 0 11 -7 13 -27 8 -63 -14 -65 -15
-59 -40 7 -25 -8 -63 -28 -76 -26 -18 -74 -8 -98 20 -22 27 -26 28 -58 17 -31
-10 -35 -16 -38 -51 -4 -51 -26 -74 -69 -74 -26 0 -41 8 -60 29 -26 29 -26 29
-60 13 -31 -15 -34 -20 -29 -48 14 -71 -78 -116 -122 -59 -19 24 -21 24 -56
10 -33 -14 -36 -18 -36 -59 0 -29 -6 -48 -18 -59 -26 -23 -78 -22 -99 3 -21
24 -24 24 -69 5 -31 -13 -34 -17 -24 -35 19 -35 3 -79 -35 -97 -33 -16 -35
-15 -73 10 l-39 25 -32 -19 c-35 -21 -35 -22 -20 -51 13 -24 5 -60 -17 -82
-22 -22 -66 -20 -98 5 l-28 22 -26 -20 c-24 -18 -27 -26 -24 -70 3 -44 0 -53
-19 -67 -32 -22 -75 -20 -99 4 l-20 20 -34 -26 c-32 -26 -33 -28 -19 -56 20
-38 3 -82 -38 -98 -24 -11 -34 -9 -64 8 l-35 21 -30 -26 c-29 -24 -30 -27 -15
-49 23 -35 19 -70 -11 -93 -32 -25 -62 -27 -93 -5 -22 16 -24 15 -53 -13 -29
-30 -30 -31 -13 -56 42 -65 -38 -137 -103 -91 -21 14 -23 13 -47 -13 -27 -31
-30 -44 -13 -61 19 -19 12 -75 -13 -94 -24 -20 -69 -24 -86 -7 -16 16 -38 6
-58 -25 -15 -23 -15 -27 -1 -48 38 -54 3 -124 -57 -116 -18 3 -39 8 -47 11 -9
4 -24 -5 -38 -24 l-23 -29 20 -26 c28 -35 26 -69 -4 -99 -25 -26 -45 -30 -80
-15 -14 5 -26 2 -42 -13 -23 -20 -31 -57 -14 -57 5 0 15 -16 21 -35 10 -30 9
-40 -4 -60 -18 -28 -54 -40 -90 -31 -46 11 -84 -54 -47 -80 28 -20 28 -77 0
-105 -18 -18 -29 -20 -64 -16 -40 6 -42 5 -59 -29 -16 -36 -16 -36 9 -60 25
-23 33 -66 17 -90 -19 -29 -96 -46 -104 -23 -2 6 -12 -7 -22 -29 l-19 -41 27
-31 c33 -39 33 -70 1 -100 -19 -18 -32 -22 -59 -17 -33 5 -35 4 -51 -35 -13
-33 -14 -43 -3 -49 7 -5 16 -9 19 -9 8 0 29 -48 29 -66 0 -28 -47 -64 -83 -64
-28 0 -36 -5 -48 -32 -14 -32 -13 -34 19 -62 38 -33 41 -62 11 -101 -18 -22
-28 -26 -56 -23 -31 4 -34 2 -45 -35 -11 -37 -11 -39 20 -64 25 -19 32 -32 32
-58 0 -42 -41 -79 -77 -70 -19 4 -25 0 -33 -20 -16 -43 -12 -65 14 -75 74 -28
52 -132 -27 -132 -34 0 -37 -2 -37 -28 0 -16 -2 -35 -6 -43 -3 -9 5 -18 25
-27 30 -12 57 -62 44 -84 -18 -33 -49 -56 -75 -56 -24 0 -28 -4 -29 -30 -1
-16 -2 -36 -3 -42 -1 -7 8 -14 19 -16 35 -7 55 -33 55 -73 0 -41 -26 -69 -66
-69 -17 0 -23 -8 -29 -36 -7 -41 -8 -40 36 -62 45 -23 58 -65 32 -101 -11 -14
-33 -28 -49 -31 -27 -5 -29 -8 -29 -49 0 -41 2 -45 30 -53 36 -9 55 -33 55
-68 0 -32 -37 -70 -68 -70 -16 0 -22 -6 -22 -22 0 -47 11 -66 41 -72 20 -4 34
-16 45 -39 15 -31 15 -36 0 -66 -11 -21 -27 -34 -46 -38 -31 -6 -35 -17 -24
-60 4 -13 14 -23 24 -23 9 0 29 -9 44 -21 48 -38 24 -129 -35 -129 -15 0 -19
-4 -15 -16 3 -9 6 -29 6 -45 0 -25 4 -29 29 -29 83 0 104 -110 26 -140 -19 -7
-21 -14 -16 -52 6 -39 8 -43 32 -40 36 4 79 -32 79 -68 0 -29 -13 -47 -52 -74
-17 -12 -19 -21 -14 -50 6 -33 10 -36 42 -36 37 0 84 -38 84 -67 0 -23 -39
-73 -57 -73 -12 0 -14 -7 -8 -37 9 -52 11 -53 55 -53 82 0 97 -97 23 -139 -15
-8 -15 -14 -4 -50 11 -37 14 -40 32 -31 26 14 54 5 79 -27 28 -36 25 -60 -10
-93 -30 -28 -30 -30 -16 -64 13 -32 18 -35 57 -34 65 1 95 -47 67 -107 -6 -14
-17 -25 -25 -25 -17 0 -16 -28 1 -60 12 -20 20 -24 51 -21 72 6 112 -70 61
-118 -23 -22 -23 -24 -9 -60 15 -38 15 -38 63 -33 41 4 49 1 64 -19 23 -34 20
-72 -8 -98 l-25 -23 22 -34 c24 -37 29 -39 58 -24 27 15 85 -14 93 -45 7 -27
-8 -75 -24 -75 -15 0 -12 -25 7 -59 12 -21 23 -29 33 -24 8 3 29 8 46 10 58 9
97 -73 54 -112 -26 -23 -25 -27 6 -65 19 -22 30 -28 37 -21 6 6 28 11 48 11
61 0 89 -60 53 -115 -14 -22 -14 -26 7 -54 27 -36 22 -35 59 -16 30 16 53 12
83 -13 22 -19 22 -75 0 -97 -15 -15 -14 -19 15 -48 28 -28 33 -30 55 -18 35
19 77 10 100 -21 20 -27 20 -29 3 -64 -17 -36 -17 -36 11 -64 25 -25 30 -26
48 -14 33 23 81 18 104 -12 25 -32 27 -61 5 -85 -15 -17 -14 -20 12 -43 34
-29 42 -31 68 -11 27 21 59 19 90 -6 29 -23 33 -54 11 -85 -13 -19 -12 -23 8
-41 36 -32 47 -36 65 -20 49 44 122 16 122 -46 0 -18 -4 -39 -10 -47 -6 -10
-2 -19 18 -32 33 -22 56 -23 72 -3 21 25 76 19 100 -12 20 -26 22 -46 5 -85
-5 -13 3 -21 32 -36 l39 -20 21 24 c28 31 67 31 100 -2 24 -24 26 -43 9 -84
-4 -11 6 -21 33 -33 l38 -19 26 26 c29 29 47 32 80 15 31 -17 37 -28 37 -75 0
-37 4 -43 32 -57 29 -14 33 -14 47 2 25 28 59 42 86 35 32 -8 58 -55 49 -89
-5 -22 -1 -27 31 -41 37 -15 38 -15 59 10 33 39 67 42 105 10 28 -23 32 -32
28 -60 -5 -30 -3 -34 28 -44 30 -10 35 -8 63 20 44 43 91 40 116 -9 8 -14 12
-38 9 -53 -5 -24 -2 -26 38 -33 32 -6 44 -4 48 6 6 20 52 59 70 59 31 0 71
-48 71 -85 0 -30 4 -35 28 -41 15 -3 32 -7 39 -9 7 -2 15 5 18 15 9 27 53 60
81 60 29 0 64 -44 64 -81 0 -23 4 -29 23 -29 12 0 32 -3 45 -6 18 -5 22 -2 22
14 0 12 10 28 22 36 51 36 118 5 118 -54 0 -24 4 -30 23 -30 12 0 32 -3 43 -6
17 -4 23 0 28 19 9 38 33 57 70 57 37 0 76 -34 76 -68 0 -16 8 -23 35 -28 20
-3 37 -5 38 -3 1 2 9 17 17 34 38 74 140 57 140 -24 0 -18 6 -21 43 -21 40 0
44 2 52 32 12 40 51 64 89 54 20 -5 32 -18 44 -47 16 -38 19 -39 57 -37 36 3
40 6 48 40 16 68 98 71 130 5 14 -27 25 -37 42 -37 38 0 55 11 55 34 0 31 40
66 77 66 32 0 63 -26 63 -53 0 -23 10 -26 57 -20 38 5 42 8 41 34 -1 40 28 69
69 69 36 0 73 -29 73 -56 0 -12 6 -15 23 -10 12 3 32 6 44 6 18 0 22 7 25 37
6 76 90 94 129 28 19 -32 21 -32 59 -23 27 7 37 14 33 24 -3 8 0 28 7 45 24
57 77 65 122 17 27 -29 32 -31 66 -22 34 8 37 11 34 41 -3 24 3 39 22 58 14
14 32 25 41 25 27 0 73 -29 80 -50 5 -15 10 -18 18 -11 7 5 23 11 37 13 22 3
25 8 22 36 -3 42 12 70 45 83 33 12 80 -5 88 -32 8 -23 15 -23 59 -5 32 13 34
17 29 53 -6 43 12 66 59 78 22 6 33 1 58 -24 l31 -30 34 17 c32 16 33 19 28
57 -4 32 -1 44 16 60 31 28 88 25 113 -5 18 -23 20 -23 54 -7 32 16 34 19 28
54 -12 79 77 128 124 69 l19 -25 35 22 c29 18 34 26 27 42 -13 34 -10 60 11
83 26 28 82 30 109 3 19 -19 20 -19 50 2 21 15 30 28 26 40 -3 9 -8 26 -11 37
-4 13 3 28 24 50 36 35 60 38 96 9 l26 -20 31 21 c21 16 28 27 23 39 -4 9 -9
30 -11 47 -4 25 1 35 22 53 34 26 65 27 96 2 24 -19 25 -19 58 11 30 27 32 31
17 47 -55 61 34 143 103 95 22 -16 24 -15 54 14 29 30 30 32 14 50 -24 27 -21
69 8 97 29 30 66 32 90 5 18 -20 18 -21 58 26 17 20 17 23 0 52 -16 29 -17 32
-1 66 22 45 58 56 101 31 27 -16 31 -16 39 -2 4 9 16 23 24 32 15 15 15 17 0
34 -22 24 -21 84 2 104 21 19 64 22 92 7 16 -8 23 -4 45 24 l27 35 -21 22
c-28 30 -27 70 2 97 25 23 76 29 94 11 7 -7 17 -2 32 19 26 37 26 38 1 69 -25
32 -25 61 -1 92 18 23 40 28 95 19 13 -2 26 8 38 29 l19 31 -26 26 c-31 31
-32 66 -1 95 25 24 48 29 82 17 18 -5 26 0 43 30 l22 36 -26 24 c-28 26 -35
84 -11 103 22 19 71 30 89 20 11 -7 17 -4 22 11 3 11 15 20 26 20 11 0 41 12
68 26 45 23 53 24 89 13 36 -10 44 -9 75 10 26 16 50 21 103 21 44 0 80 6 99
16 19 10 53 16 91 15 48 -1 67 3 88 20 23 18 35 20 84 14 50 -6 64 -3 96 15
29 18 47 21 83 17 33 -3 58 1 91 15 34 16 56 19 93 14 40 -6 57 -2 95 18 38
20 55 23 98 19 41 -4 61 -1 93 16 32 16 52 19 86 15 34 -5 53 -1 93 19 44 22
55 24 90 15 34 -9 45 -8 81 11 30 15 61 21 105 21 43 0 71 5 87 16 17 12 36
15 75 11 40 -4 64 0 97 14 34 16 55 19 92 14 42 -6 53 -3 96 24 26 17 59 31
72 31 47 1 101 49 114 103 7 28 30 37 180 72 122 30 408 122 490 159 92 42
100 42 242 -11 l42 -16 -6 -58 c-4 -46 -2 -64 12 -85 17 -26 17 -26 113 -21
76 5 395 45 562 71 14 3 151 21 305 40 236 31 324 43 355 51 3 1 33 5 67 10
70 9 78 14 92 70 11 43 18 69 53 190 l24 80 34 -1 c50 -2 319 43 371 61 80 29
123 90 96 140 -13 26 -12 31 20 83 45 76 44 118 -4 201 -57 97 -95 112 -413
161 -36 5 -135 14 -220 19 -154 10 -300 35 -374 66 -46 19 -44 21 -110 -105
-50 -95 -92 -141 -150 -165 -36 -15 -136 -36 -136 -29 0 2 28 16 63 33 34 16
75 43 91 58 23 24 155 255 156 273 0 9 -59 28 -139 45 -68 14 -75 14 -93 -1
-17 -16 -24 -15 -120 10 l-102 26 -23 -22 c-22 -21 -42 -58 -133 -251 -52
-110 -122 -166 -230 -181 l-45 -7 49 25 c26 13 64 39 83 58 28 27 252 377 268
420 4 9 -21 22 -77 41 -96 32 -96 32 -118 12 -15 -14 -27 -11 -116 31 l-99 46
-43 -49 c-66 -73 -155 -199 -223 -314 -91 -155 -129 -190 -238 -215 -73 -17
-84 -7 -23 21 62 29 118 84 159 156 39 70 193 276 279 375 36 41 64 81 61 87
-3 7 -20 20 -38 29 -92 44 -87 43 -109 23 -21 -19 -21 -19 -45 10 -13 17 -24
36 -25 43 0 6 -4 12 -9 12 -5 0 -14 13 -21 30 -9 23 -19 30 -39 30 -34 0 -44
-12 -196 -213 -65 -87 -145 -183 -178 -213 -76 -70 -215 -164 -320 -215 -72
-35 -89 -40 -137 -37 -70 5 -166 49 -242 111 -67 55 -124 87 -154 87 -24 0
-128 -66 -178 -114 -39 -37 -57 -103 -83 -308 -23 -184 -23 -525 0 -632 9 -44
15 -81 13 -83 -2 -2 -12 28 -23 68 l-19 72 -65 22 c-91 30 -175 78 -239 134
l-55 48 35 22 c44 27 82 27 105 0 16 -17 17 -24 7 -52 -16 -43 0 -58 31 -29
44 42 97 16 97 -46 0 -20 5 -32 13 -32 23 0 57 57 57 94 0 33 -4 37 -62 66
-100 49 -99 51 15 54 l37 1 4 160 c2 88 11 195 19 238 19 95 71 208 121 260
39 41 45 71 21 103 -8 10 -15 22 -15 25 0 6 73 -4 123 -16 26 -7 27 -6 27 38
0 44 -1 46 -30 45 -37 -1 -57 15 -65 53 -9 38 -26 37 -45 -4 -13 -27 -20 -32
-50 -32 -32 0 -37 4 -57 45 l-21 45 31 9 c34 9 190 2 220 -9 16 -7 17 3 17
116 l0 124 -20 -33 c-11 -18 -27 -35 -36 -39 -27 -10 -64 15 -70 47 -5 25 -11
30 -35 30 -21 0 -29 -5 -29 -18 0 -27 -29 -62 -51 -62 -26 0 -24 10 10 56 51
71 93 95 184 108 l47 7 0 62 c0 73 15 132 39 156 10 10 62 27 129 41 62 13
116 28 119 33 7 11 -37 7 -154 -14 -46 -8 -76 -10 -82 -4 -5 6 -13 107 -19
225 -9 205 -9 216 9 232 26 22 24 28 -11 28 -50 0 -54 -22 -42 -204 7 -89 13
-192 14 -231 l3 -70 -60 -6 c-33 -3 -73 -11 -89 -18 -23 -9 -40 -9 -77 0 -38
10 -59 10 -103 -1 -44 -10 -61 -11 -85 0 -18 7 -44 10 -63 6 -81 -17 -100 -17
-129 -6 l-30 13 82 32 c94 36 115 57 105 110 -10 52 -22 50 -22 -3 1 -46 0
-47 -44 -69 -25 -11 -90 -37 -145 -56 -128 -45 -254 -102 -282 -129 -19 -17
-22 -28 -17 -59 6 -38 5 -40 -114 -166 -66 -70 -144 -157 -173 -191 -66 -79
-161 -152 -197 -152 -15 0 -34 -5 -42 -10 -20 -13 65 -2 101 14 25 10 372 363
427 434 18 24 25 44 24 71 -2 48 17 68 48 51 21 -11 53 -10 128 6 18 3 53 1
77 -6 40 -11 45 -16 45 -41 0 -54 -46 -74 -100 -42 -39 23 -63 4 -54 -42 4
-26 1 -38 -15 -54 -25 -25 -49 -27 -80 -5 -21 15 -24 15 -43 -4 -17 -16 -18
-23 -8 -42 27 -51 -17 -102 -71 -80 -23 10 -32 10 -44 0 -17 -14 -20 -46 -5
-55 6 -3 10 -19 10 -35 0 -40 -37 -65 -74 -51 -22 9 -28 7 -42 -15 -16 -23
-16 -26 5 -48 41 -43 15 -96 -48 -96 -45 0 -58 -36 -25 -67 19 -17 34 -54 22
-53 -121 7 -381 31 -388 35 -15 9 -12 58 5 82 8 12 28 23 43 25 24 3 27 7 27
38 1 50 -4 60 -31 60 -27 0 -64 36 -64 63 0 31 20 58 54 72 29 13 31 16 28 54
-4 36 -7 41 -29 41 -29 0 -73 41 -73 68 0 28 38 72 62 72 19 0 20 5 16 49 -5
47 -4 49 27 60 40 14 73 14 115 0 27 -10 42 -9 79 5 43 15 51 15 90 1 24 -8
47 -12 52 -9 17 10 8 -6 -64 -118 -114 -175 -237 -384 -237 -402 0 -10 9 -16
25 -16 20 0 31 13 64 72 22 40 70 113 106 163 60 82 65 94 65 140 0 49 2 51
69 115 96 91 227 182 314 219 41 16 136 48 212 71 76 22 141 42 143 45 3 2 -1
11 -7 19 -13 16 -30 15 -166 -10 -163 -31 -293 -87 -383 -165 -36 -32 -36 -32
-130 -13 -20 4 -43 2 -57 -6 -15 -8 -39 -10 -66 -5 -24 3 -62 5 -84 4 -78 -4
-140 -2 -160 3 -11 3 -37 0 -58 -7 -20 -7 -37 -8 -37 -3 0 5 13 14 30 19 26
10 29 14 24 42 -9 54 -12 57 -48 57 -84 0 -87 115 -4 142 8 3 8 16 2 43 -9 37
-12 40 -40 37 -41 -4 -89 45 -80 82 6 26 14 35 50 60 18 12 19 18 8 53 -11 37
-14 39 -46 35 -83 -10 -106 113 -25 140 11 4 10 12 -2 44 -13 35 -18 39 -45
36 -42 -4 -84 30 -84 69 0 28 24 62 50 71 9 3 7 14 -5 45 -16 40 -18 41 -55
36 -73 -10 -109 70 -53 121 l27 25 -19 41 c-13 28 -22 37 -29 30 -18 -18 -62
-11 -84 13 -29 31 -28 72 3 103 l26 26 -21 34 c-18 28 -26 33 -46 28 -36 -9
-72 3 -90 31 -14 21 -14 30 -4 55 7 17 20 35 29 40 15 8 14 12 -3 44 -18 34
-21 35 -68 33 -44 -2 -53 1 -70 25 -24 30 -19 67 12 96 19 18 19 18 -8 50 -26
31 -29 32 -59 20 -29 -11 -36 -10 -60 8 -36 27 -41 68 -14 105 l21 28 -29 33
c-24 27 -32 31 -42 21 -19 -19 -63 -16 -90 5 -27 23 -30 73 -5 101 17 19 17
21 -10 55 -25 31 -30 34 -44 21 -27 -24 -76 -19 -99 11 -25 32 -26 47 -4 85
17 28 17 29 -11 58 -27 28 -30 29 -52 15 -12 -9 -33 -14 -46 -12 -21 3 -19 6
19 35 l41 33 47 -42 47 -41 23 29 c26 33 28 32 149 -38 127 -74 198 -157 214
-248 l7 -38 125 115 c108 100 284 241 371 297 l27 17 18 -48 c10 -26 41 -99
70 -161 44 -93 51 -117 42 -131 -15 -25 36 -149 66 -161 24 -9 8 59 216 -945
16 -77 47 -229 70 -337 37 -179 43 -238 21 -238 -4 0 -16 -7 -27 -15 -18 -14
-17 -15 11 -9 17 4 37 12 45 19 8 7 24 15 35 18 11 3 30 8 43 12 12 3 22 2 22
-3 0 -5 -20 -15 -44 -22 -25 -7 -47 -18 -50 -25 -2 -7 -19 -16 -36 -20 -26 -6
-30 -10 -24 -28 12 -40 25 -49 64 -42 l36 6 47 -83 c51 -91 77 -157 77 -194 0
-49 48 -12 61 46 12 52 5 75 -34 119 -29 34 -62 99 -54 107 2 2 18 -14 36 -37
45 -55 52 -42 8 16 -20 25 -45 77 -57 116 l-21 71 -49 -6 c-56 -7 -45 -32 -95
214 -19 91 -64 307 -100 480 -36 173 -86 414 -111 535 -25 121 -47 227 -49
235 -3 10 6 20 27 28 17 6 33 11 34 9 2 -2 57 -203 284 -1047 94 -349 173
-639 175 -645 2 -5 4 43 4 107 1 113 0 117 -21 120 -16 2 -3 12 52 39 41 20
99 44 128 53 28 10 52 21 52 25 0 4 -11 41 -25 82 -48 139 -177 557 -380 1229
-47 157 -115 380 -150 495 -34 116 -114 379 -175 585 -62 206 -116 379 -120
383 -4 5 -48 -18 -96 -50 -112 -73 -107 -72 -99 -32 10 49 48 94 110 131 50
30 55 36 49 60 -7 33 4 35 39 8 19 -15 36 -50 61 -128 30 -93 419 -1388 726
-2417 56 -187 103 -341 104 -343 10 -9 36 13 32 27 -14 50 -313 1054 -341
1146 -19 61 -80 261 -135 445 -144 475 -263 858 -326 1051 -30 91 -54 169 -54
172 0 10 74 -29 87 -45 5 -7 26 -62 45 -123 20 -60 68 -191 107 -290 68 -172
98 -270 331 -1080 51 -176 127 -441 170 -590 43 -148 106 -368 141 -487 34
-120 66 -218 71 -218 14 0 11 12 -71 298 -44 152 -116 405 -161 562 -44 157
-85 296 -89 310 -10 28 -11 31 -110 380 -38 135 -92 324 -120 420 -39 136 -48
177 -38 186 7 6 91 53 187 104 256 135 279 148 505 283 158 94 243 148 334
209 30 21 56 36 57 35 1 -1 -6 -42 -14 -92 -23 -136 -23 -620 1 -830 10 -88
22 -185 27 -215 47 -271 92 -848 115 -1435 10 -268 15 -313 33 -317 22 -6 282
9 402 22 169 19 186 25 135 48 -31 14 -65 68 -65 102 0 14 34 211 75 438 94
520 117 660 112 675 -2 7 -34 -80 -72 -193 -37 -113 -72 -211 -78 -217 -12
-16 -53 -17 -63 -2 -10 17 -37 273 -99 964 -31 341 -58 626 -61 634 -3 8 -41
-40 -92 -116 -152 -225 -240 -325 -267 -303 -29 24 -38 148 -32 460 9 441 34
706 97 1015 22 110 89 325 102 325 4 0 9 -44 10 -97 l3 -97 105 85 c146 119
179 139 220 139 50 0 127 -39 202 -103 l64 -55 29 45 c40 64 44 121 11 177
-36 61 -155 213 -289 369 -106 123 -178 185 -297 258 -52 32 -53 34 -28 37 57
7 211 -96 549 -365 53 -43 110 -46 135 -8 34 52 -6 247 -70 340 -19 28 -96
120 -173 206 -421 476 -433 490 -433 519 0 75 32 78 115 12 132 -105 185 -138
185 -114 0 13 -147 187 -263 310 -58 62 -109 122 -112 133 -10 31 18 64 120
139 127 95 368 251 380 248 23 -6 816 -821 918 -943 177 -212 278 -377 307
-504 31 -133 -14 -332 -172 -764 -98 -270 -118 -380 -158 -877 -11 -140 -27
-302 -36 -360 -23 -160 -95 -516 -209 -1035 -151 -683 -173 -826 -184 -1192
-4 -133 -10 -245 -13 -249 -11 -10 -127 -32 -212 -40 -124 -11 -66 -27 83 -23
l126 4 -3 -165 c-4 -173 -11 -202 -52 -215 -27 -9 -26 -26 3 -24 63 6 62 6 81
-104 21 -123 72 -341 86 -368 6 -10 16 -19 22 -19 6 0 4 9 -5 23 -22 33 -43
147 -82 442 -6 42 -1 50 133 216 20 25 75 93 120 150 46 57 100 124 120 148
21 24 48 59 62 76 14 18 61 76 104 130 44 54 89 110 100 126 12 15 57 71 101
124 44 54 91 112 105 130 36 47 146 184 185 230 19 22 70 85 113 140 120 151
270 337 295 366 12 14 40 50 62 79 22 29 48 61 58 72 9 10 128 157 262 326
135 169 256 318 269 332 13 14 44 52 69 85 26 33 61 77 78 98 40 47 324 402
364 453 17 21 42 52 56 69 44 52 162 201 199 251 58 79 195 211 396 381 194
164 393 356 494 476 30 36 60 66 67 66 19 1 51 -38 58 -70 7 -30 38 -55 56
-44 14 9 39 -14 39 -37 0 -11 -9 -31 -20 -45 -39 -50 -22 -116 85 -333 15 -30
35 -68 44 -85 10 -16 32 -57 49 -90 18 -33 44 -78 57 -100 14 -22 36 -61 50
-87 13 -25 35 -55 49 -65 29 -23 51 -69 102 -208 79 -217 177 -445 191 -445 4
0 23 9 42 21 27 16 36 18 42 7 15 -23 10 -48 -16 -74 -29 -29 -59 -26 -86 8
-15 19 -17 19 -47 4 -30 -15 -31 -19 -26 -59 5 -33 2 -47 -11 -60 -22 -23 -64
-21 -90 3 -21 20 -23 20 -53 3 -33 -19 -39 -28 -22 -38 20 -12 11 -73 -12 -89
-30 -21 -51 -20 -79 3 -23 18 -26 18 -52 3 -21 -13 -26 -22 -22 -37 18 -55 17
-64 -9 -90 -28 -28 -54 -27 -87 2 -15 12 -20 11 -45 -12 -21 -19 -25 -28 -16
-37 18 -18 14 -73 -6 -91 -23 -21 -51 -22 -81 -1 -22 16 -24 15 -48 -8 -21
-21 -23 -29 -14 -46 20 -37 13 -80 -15 -99 -24 -16 -28 -16 -60 2 l-35 19 -26
-27 c-25 -25 -26 -27 -10 -45 22 -25 22 -75 -1 -95 -22 -20 -42 -21 -76 -5
-23 10 -29 8 -52 -17 l-25 -27 20 -22 c26 -28 27 -68 3 -89 -20 -19 -67 -23
-77 -7 -11 18 -31 10 -49 -21 -16 -28 -17 -32 -2 -48 9 -10 16 -34 16 -54 0
-44 -25 -61 -78 -53 -32 5 -40 2 -55 -19 -18 -25 -18 -26 2 -52 26 -33 27 -67
1 -93 -22 -22 -42 -25 -69 -10 -14 7 -23 3 -40 -21 l-22 -30 20 -26 c21 -26
27 -68 13 -89 -15 -23 -51 -35 -71 -24 -27 14 -29 14 -46 -20 -15 -30 -15 -32
10 -62 21 -25 25 -38 21 -62 -8 -39 -23 -48 -71 -42 -38 5 -42 3 -53 -26 -10
-28 -9 -34 13 -60 31 -36 32 -71 4 -99 -15 -15 -29 -20 -49 -15 -30 6 -43 -4
-55 -42 -5 -18 -1 -28 19 -43 20 -16 26 -30 26 -59 0 -46 -19 -64 -61 -58 -27
4 -33 1 -46 -28 -15 -31 -15 -33 10 -56 38 -33 43 -68 16 -102 -17 -22 -28
-27 -50 -24 -26 4 -30 1 -39 -30 -8 -32 -6 -37 20 -62 36 -33 39 -71 9 -101
-14 -14 -28 -19 -44 -15 -28 7 -31 3 -40 -47 -6 -32 -5 -37 12 -37 12 0 27
-13 39 -35 17 -33 18 -38 4 -63 -11 -19 -26 -28 -50 -32 -29 -4 -36 -10 -41
-35 -4 -25 0 -35 28 -61 54 -51 44 -105 -24 -123 -23 -6 -29 -13 -31 -44 -2
-22 1 -37 8 -37 20 0 60 -49 60 -75 0 -32 -33 -65 -65 -65 -22 0 -25 -4 -25
-39 0 -33 4 -40 25 -45 16 -4 32 -20 42 -41 22 -46 7 -81 -39 -93 -30 -8 -33
-12 -33 -47 0 -35 3 -40 31 -47 44 -11 62 -54 40 -96 -8 -16 -27 -32 -41 -36
-21 -5 -25 -12 -25 -45 0 -35 3 -39 30 -45 22 -4 35 -15 44 -38 21 -48 2 -80
-57 -101 -5 -1 -6 -19 -2 -38 5 -28 13 -38 39 -47 45 -17 63 -51 46 -92 -7
-18 -22 -33 -36 -36 -26 -7 -28 -14 -18 -63 5 -24 12 -31 30 -31 25 0 64 -42
64 -69 0 -26 -29 -61 -52 -61 -16 0 -19 -4 -14 -22 3 -13 6 -33 6 -45 0 -19 6
-23 30 -23 66 0 93 -80 41 -122 -26 -20 -29 -27 -23 -58 7 -29 12 -36 37 -38
44 -5 65 -29 65 -73 0 -33 -5 -41 -30 -54 -30 -16 -31 -23 -8 -72 6 -12 16
-19 23 -16 18 6 71 -22 79 -42 15 -39 -6 -84 -44 -97 -10 -3 -10 -11 1 -41 11
-32 17 -37 45 -37 23 0 39 -8 53 -26 28 -36 26 -68 -5 -93 -26 -20 -26 -22
-11 -58 13 -35 17 -37 50 -35 29 3 38 -2 56 -26 27 -39 27 -60 -4 -92 -23 -24
-24 -30 -14 -59 10 -29 14 -31 40 -26 21 5 37 1 59 -15 39 -28 42 -80 6 -107
l-24 -18 19 -37 c17 -34 22 -36 53 -31 65 10 101 -64 55 -113 l-21 -22 24 -35
c19 -29 27 -33 42 -25 24 14 75 -9 87 -39 8 -23 1 -51 -22 -84 -18 -24 27 -82
52 -68 30 16 69 0 86 -36 15 -31 15 -36 -4 -67 l-20 -34 21 -27 c19 -23 26
-26 59 -20 31 5 42 1 62 -17 29 -27 32 -65 9 -92 -16 -16 -15 -20 7 -52 22
-33 24 -34 51 -20 59 30 115 -35 84 -97 -16 -32 -16 -33 10 -60 25 -26 28 -27
51 -12 22 15 27 15 59 0 31 -15 34 -20 34 -61 0 -26 -5 -46 -12 -48 -8 -3 -5
-15 11 -36 22 -32 44 -41 56 -22 3 6 21 10 39 10 25 0 38 -7 50 -25 19 -29 21
-66 4 -83 -10 -10 -5 -19 19 -44 31 -30 33 -31 51 -15 26 24 55 21 81 -7 20
-21 22 -32 17 -68 -6 -38 -3 -47 18 -67 l25 -23 27 21 c33 26 45 26 78 0 20
-16 26 -29 26 -60 0 -24 -5 -39 -12 -39 -7 -1 3 -14 21 -30 l35 -30 21 20 c28
26 56 25 90 -2 24 -19 27 -26 21 -64 -5 -38 -2 -45 20 -63 l26 -21 30 25 c38
32 43 31 80 -5 26 -27 30 -36 24 -68 -5 -35 -3 -40 26 -56 28 -17 31 -17 40
-2 15 27 43 37 77 25 33 -12 44 -34 39 -80 -2 -24 3 -34 28 -49 l31 -20 23 25
c27 29 56 32 88 9 17 -12 22 -25 22 -58 0 -36 4 -45 25 -54 36 -17 48 -15 63
8 12 20 56 27 78 12 20 -13 36 -54 30 -78 -5 -20 -1 -26 31 -39 28 -12 39 -13
42 -4 7 21 41 49 60 49 34 0 64 -34 66 -76 2 -29 7 -40 21 -43 11 -2 24 -7 31
-12 7 -7 18 0 33 21 40 56 108 32 120 -42 4 -23 12 -34 32 -41 24 -7 31 -5 54
22 44 53 114 31 114 -35 0 -28 5 -36 26 -44 40 -16 54 -12 65 17 6 15 16 31
22 35 38 24 97 -16 97 -65 0 -22 5 -27 37 -33 27 -5 38 -3 41 6 7 21 49 60 65
60 28 0 67 -41 67 -69 0 -24 5 -30 31 -35 45 -9 44 -9 58 29 23 64 101 53 119
-18 7 -28 13 -32 45 -35 34 -3 37 -1 37 22 0 28 33 56 65 56 25 0 61 -36 67
-65 2 -15 12 -21 39 -23 33 -3 37 -1 42 27 9 42 48 67 79 50 29 -15 47 -39 48
-61 0 -14 9 -18 40 -18 35 0 40 3 40 23 0 34 28 67 56 67 28 0 74 -41 74 -65
0 -13 8 -16 38 -13 34 3 37 6 40 35 3 33 32 63 61 63 19 0 71 -49 71 -67 0
-15 19 -17 53 -4 19 8 23 15 19 39 -3 26 1 33 26 46 38 20 77 8 94 -29 11 -25
25 -29 66 -19 17 5 22 14 22 39 0 36 26 65 58 65 26 0 62 -33 62 -56 0 -13 7
-15 31 -10 17 3 35 6 40 6 5 0 8 16 7 35 -1 39 24 75 54 75 25 0 68 -29 68
-46 0 -16 19 -18 55 -4 21 8 24 14 19 35 -16 66 62 100 109 49 21 -23 29 -25
53 -17 25 8 28 14 26 44 -4 45 34 85 72 75 26 -6 51 -27 58 -47 3 -8 13 -7 36
5 27 14 31 20 26 46 -15 71 71 112 114 54 20 -28 18 -29 80 12 2 1 -2 12 -8
24 -9 17 -9 29 0 51 17 40 53 48 90 20 35 -25 48 -26 77 -6 19 13 21 19 11 40
-15 33 -3 69 27 83 28 13 60 3 81 -26 10 -13 15 -12 43 7 23 16 30 28 26 40
-16 38 -16 52 -1 76 21 31 63 33 95 4 l23 -21 28 27 c27 25 27 28 13 57 -14
28 -14 32 4 56 26 35 49 39 84 13 l28 -21 30 25 c29 25 29 26 13 55 -37 63 26
124 85 82 l30 -21 26 27 c23 25 24 29 11 47 -23 31 -14 77 19 95 25 14 30 13
58 -3 18 -10 32 -16 33 -15 0 2 12 15 25 30 22 25 22 28 7 43 -20 21 -21 54 0
83 16 24 53 29 85 11 17 -8 24 -6 40 12 23 27 23 28 3 68 -20 40 -8 75 30 93
20 9 30 8 49 -5 23 -15 26 -15 46 7 25 26 26 42 6 62 -16 16 -19 51 -9 79 11
27 53 38 80 20 21 -14 24 -13 43 12 25 31 26 41 4 65 -20 22 -21 71 -3 94 11
12 24 15 57 10 40 -5 44 -4 59 25 15 29 14 32 -5 53 -27 29 -27 77 -1 101 17
15 26 17 55 8 34 -11 35 -10 52 24 16 34 16 36 -5 52 -23 18 -29 44 -19 82 8
31 47 45 77 29 16 -9 21 -5 36 25 16 34 16 35 -10 66 -30 35 -32 55 -10 88 14
19 23 22 54 18 33 -4 39 -2 49 20 16 35 14 47 -14 73 -48 45 -21 112 47 114
26 1 33 6 39 30 7 24 4 34 -16 54 -52 52 -28 127 40 120 24 -2 30 2 36 22 12
44 9 55 -21 72 -24 14 -30 24 -30 52 0 43 30 75 64 69 27 -5 31 -1 40 44 6 26
4 32 -14 38 -24 8 -51 61 -42 84 12 35 36 53 64 47 24 -5 28 -2 28 18 0 14 3
31 6 39 3 9 -8 22 -30 35 -32 19 -36 26 -36 61 0 44 18 61 64 61 24 0 26 4 26
43 0 34 -4 44 -22 52 -12 6 -29 22 -38 37 -13 25 -13 31 0 55 10 17 26 29 42
31 20 2 27 10 32 34 10 48 8 53 -24 65 -62 23 -58 112 5 123 27 5 30 9 33 46
3 39 1 42 -28 47 -22 5 -35 15 -44 39 -20 46 5 98 46 98 16 0 19 6 16 42 -2
34 -7 44 -23 46 -33 7 -55 33 -55 68 0 26 7 38 33 56 26 19 31 29 29 55 -2 23
-10 34 -25 39 -37 11 -57 35 -57 68 0 39 9 52 41 65 23 8 25 13 20 46 -5 32
-11 39 -41 49 -65 21 -74 101 -14 128 22 10 25 17 20 41 -3 16 -6 33 -6 38 0
5 -11 9 -24 9 -31 0 -64 28 -72 62 -5 23 0 33 25 57 28 26 31 34 25 66 -5 30
-10 35 -35 35 -37 0 -69 32 -69 70 0 28 6 38 42 63 15 10 16 18 7 50 -9 33
-13 37 -43 37 -33 0 -57 18 -69 53 -9 23 19 77 38 77 18 0 19 13 3 56 -10 29
-15 32 -39 27 -21 -4 -34 1 -53 20 -33 33 -33 67 -1 102 23 24 25 30 15 61
-10 29 -15 33 -38 28 -68 -14 -114 85 -57 122 l24 16 -19 37 c-17 34 -22 37
-50 33 -23 -3 -38 2 -56 19 -31 29 -31 63 1 95 26 26 26 26 7 57 -16 28 -23
32 -54 29 -29 -3 -40 2 -57 24 -27 34 -27 68 0 95 l20 20 -20 32 c-17 28 -24
31 -59 28 -32 -2 -43 2 -56 21 -21 29 -20 67 1 90 16 18 16 21 -2 53 -17 33
-20 34 -57 29 -29 -5 -43 -2 -58 11 -24 22 -27 87 -5 105 15 13 12 24 -20 64
-12 16 -17 17 -30 6 -9 -8 -27 -10 -49 -6 -28 5 -37 13 -46 41 -9 29 -9 39 6
63 16 28 16 30 -6 60 -18 25 -27 29 -41 22 -63 -35 -127 29 -94 94 14 26 13
30 -6 58 -15 20 -26 27 -38 22 -61 -25 -111 -4 -111 47 0 17 5 40 11 51 9 17
7 25 -15 46 -22 23 -28 24 -49 13 -34 -18 -67 -10 -90 22 -19 24 -20 31 -8 63
12 34 12 38 -11 61 -24 24 -25 24 -61 7 -33 -16 -37 -16 -61 0 -31 20 -43 59
-28 92 10 20 8 27 -16 49 -31 29 -35 30 -52 10 -20 -24 -66 -18 -89 11 -23 29
-26 55 -11 83 7 14 3 22 -20 40 l-30 22 -30 -23 c-30 -22 -31 -22 -65 -4 -37
20 -51 55 -35 86 14 26 14 26 -20 50 l-30 21 -26 -20 c-54 -43 -104 -14 -107
62 -2 40 -6 51 -28 64 -25 15 -27 15 -48 -6 -47 -47 -117 -9 -108 59 4 35 2
40 -27 55 -32 17 -33 17 -59 -9 -33 -33 -51 -33 -83 0 -20 19 -25 33 -22 59 3
30 0 35 -30 49 -33 16 -34 16 -54 -9 -40 -52 -112 -19 -112 52 0 30 -5 37 -35
52 -28 13 -35 14 -39 2 -7 -21 -40 -51 -56 -51 -8 0 -29 12 -46 27 -27 22 -31
31 -27 59 6 35 -4 44 -48 44 -15 0 -26 -7 -30 -19 -3 -11 -19 -22 -35 -26 -49
-11 -90 24 -90 78 0 40 -73 55 -83 17 -3 -11 -17 -25 -31 -31 -23 -11 -31 -10
-54 8 -16 12 -28 31 -30 49 -2 16 -11 35 -20 42 -21 16 -62 16 -62 -1 0 -21
-39 -57 -61 -57 -28 0 -69 44 -69 73 0 26 -16 37 -56 37 -17 0 -24 -6 -24 -20
0 -22 -28 -40 -64 -40 -27 0 -66 41 -66 70 0 20 -19 30 -56 30 -17 0 -24 -6
-24 -18 0 -26 -32 -52 -63 -52 -30 0 -59 27 -67 63 -5 17 -14 23 -42 25 -32 3
-36 0 -41 -27 -16 -77 -127 -56 -127 24 0 10 -11 15 -35 15 -19 0 -35 -5 -35
-11 0 -6 -9 -24 -21 -40 -35 -49 -94 -34 -113 29 -6 18 -15 22 -47 22 -35 0
-39 -3 -39 -25 0 -25 -31 -65 -50 -65 -26 0 -70 32 -76 55 -5 21 -12 25 -40
25 -31 0 -34 -3 -34 -29 0 -39 -24 -61 -64 -61 -32 0 -66 25 -66 48 0 6 -20
51 -44 99 -66 132 -79 165 -77 200 2 37 -28 63 -71 63 l-28 0 15 37 c29 69 46
225 60 557 8 182 19 412 25 511 16 314 17 392 9 750 -7 334 -13 417 -44 726
-15 147 -35 214 -92 311 -44 75 -90 110 -153 116 -67 6 -110 -4 -145 -34 l-30
-25 30 5 c107 20 153 19 189 -3 120 -74 179 -283 194 -685 9 -247 9 -948 0
-1186 -4 -102 -12 -327 -18 -500 -11 -328 -23 -430 -62 -525 -26 -62 -76 -117
-99 -110 -10 3 -19 -1 -23 -10 -4 -12 -12 -14 -28 -9 -20 6 -21 5 -10 -9 11
-13 10 -15 -9 -10 -15 4 -20 3 -15 -5 5 -8 2 -10 -8 -6 -9 3 -16 2 -16 -4 0
-6 6 -13 13 -15 6 -3 1 -6 -13 -6 -20 -1 -22 -3 -10 -11 12 -7 8 -10 -14 -10
l-29 0 39 -28 c145 -105 355 -450 360 -592 1 -30 14 -87 27 -127 29 -81 49
-193 72 -403 18 -151 25 -179 120 -440 49 -134 430 -1153 558 -1490 30 -80 93
-246 140 -370 137 -363 177 -464 188 -475 7 -7 8 -2 4 15 -5 20 16 63 97 205
l103 180 6 -60 c4 -33 7 -122 8 -197 l1 -136 -47 -18 c-27 -9 -63 -23 -82 -31
-19 -7 -35 -12 -36 -11 -1 2 -7 12 -14 23 -9 16 -10 9 -5 -38 l6 -58 -37 3
-37 3 -85 210 c-46 116 -99 248 -117 295 -18 47 -90 231 -160 410 -70 179
-138 352 -151 385 -31 80 -208 537 -252 650 -19 50 -65 169 -103 265 -88 225
-97 257 -115 424 -8 76 -22 166 -31 200 -19 75 -75 225 -114 308 -23 48 -30
77 -30 121 0 137 -67 364 -142 484 -53 84 -199 218 -175 161 39 -92 115 -280
137 -340 l29 -77 -32 -25 -32 -26 35 0 c104 0 174 -126 95 -172 -37 -21 -96
-28 -102 -11 -2 7 14 21 37 33 51 26 48 32 -9 19 -31 -7 -47 -6 -57 2 -16 13
-19 45 -4 54 6 3 10 13 10 22 0 13 -9 15 -50 11 l-49 -5 -25 66 c-127 338
-231 609 -297 775 -44 110 -78 205 -76 210 5 11 134 52 142 45 2 -2 42 -96 88
-209 102 -246 125 -299 126 -283 1 6 -14 51 -33 100 -107 272 -149 400 -148
442 2 45 -53 251 -83 315 -9 19 -25 38 -35 41 -10 3 -56 -10 -103 -30 -90 -37
-137 -44 -137 -22 0 25 38 49 127 81 60 22 87 37 86 46 -5 32 -47 145 -57 152
-15 10 -65 1 -171 -33 -90 -29 -90 -29 -105 -8 -16 20 -16 20 -36 -3 -47 -53
-95 -129 -92 -145 2 -10 13 -22 25 -28 22 -9 37 -41 27 -57 -10 -15 -54 -8
-102 16 -55 28 -202 134 -202 146 0 8 61 40 79 40 6 0 43 -30 83 -67 80 -76
80 -69 1 25 -57 67 -61 77 -38 86 23 8 18 36 -6 36 -12 0 -64 -12 -116 -26
-52 -14 -97 -24 -99 -21 -7 6 162 67 186 67 10 0 21 4 24 9 3 5 -15 55 -40
112 -25 57 -69 159 -97 227 -28 67 -54 122 -58 122 -6 0 100 -328 136 -422 5
-12 -6 -19 -47 -28 -29 -7 -75 -21 -101 -31 -26 -11 -51 -19 -55 -19 -5 0 -14
17 -21 38 -7 20 -40 109 -74 197 -33 88 -73 196 -89 240 -16 44 -36 98 -44
120 -9 22 -33 92 -54 155 l-39 115 -40 6 c-23 3 -41 2 -41 -2 0 -4 14 -44 30
-90 17 -46 42 -115 55 -154 13 -38 42 -122 64 -185 22 -63 41 -123 41 -133 0
-35 -92 -181 -165 -263 -5 -6 -44 -51 -85 -99 -110 -127 -260 -265 -659 -606
-215 -183 -356 -312 -449 -411 -27 -29 -166 -201 -308 -383 -143 -181 -336
-426 -429 -543 -94 -117 -179 -226 -190 -241 -11 -15 -37 -48 -57 -72 -20 -24
-121 -150 -224 -279 -871 -1095 -1396 -1751 -1400 -1747 -2 1 -4 109 -5 238
l-1 235 184 245 c307 405 823 1087 908 1199 266 350 526 692 607 800 52 69
105 139 118 155 13 17 134 176 270 355 135 179 251 332 258 340 7 8 64 83 127
165 62 83 141 186 175 230 62 81 467 608 738 958 81 105 157 200 169 211 12
11 17 21 10 24 -6 2 -172 -51 -369 -117 -726 -243 -1682 -541 -2268 -706 -27
-8 -80 -23 -117 -34 -38 -11 -68 -17 -68 -15 0 3 9 56 20 118 35 195 19 350
-50 486 -72 141 -92 164 -958 1123 -84 92 -152 171 -152 177 0 5 -19 33 -43
62 -23 29 -69 91 -101 138 -71 102 -180 239 -266 335 -93 102 -411 445 -510
549 -173 181 -588 541 -995 861 -104 83 -205 166 -225 185 -19 19 -38 33 -42
32 -10 -3 -136 135 -143 157 -3 11 5 67 19 123 30 119 66 357 66 440 0 46 -9
76 -51 170 -28 62 -63 132 -76 156 -47 80 -16 53 78 -69 52 -66 99 -126 104
-133 28 -32 181 -275 221 -352 68 -131 120 -283 129 -376 2 -29 12 -31 48 -9
48 30 115 104 138 154 54 120 -9 317 -188 592 -74 113 -197 280 -297 404 -37
45 -66 84 -64 85 441 329 691 538 1353 1131 154 138 346 310 427 382 l148 130
134 22 c107 17 158 20 248 15 109 -6 438 14 568 35 30 5 55 8 56 7 0 0 28 -42
60 -91 90 -137 92 -143 65 -229 -55 -172 -199 -487 -311 -681 -103 -179 -245
-385 -369 -535 -75 -90 -252 -290 -306 -345 -271 -276 -1217 -835 -1413 -835
-18 0 -32 -6 -36 -16 -8 -20 11 -54 27 -49 265 82 421 151 742 328 279 153
577 351 715 475 25 22 46 39 48 37 2 -2 8 -36 14 -76 10 -74 22 -108 42 -121
22 -15 139 -7 267 18 109 21 134 23 144 12 35 -40 117 -141 157 -193 139 -184
206 -309 245 -453 30 -116 77 -212 168 -347 345 -510 758 -948 1140 -1212 129
-88 163 -113 194 -139 15 -12 94 -77 176 -146 83 -68 193 -162 245 -207 52
-46 124 -109 160 -140 35 -31 106 -93 156 -139 l92 -82 -10 -43 c-16 -69 -6
-181 18 -214 23 -29 31 -31 122 -17 54 8 116 -8 207 -53 59 -29 74 -41 84 -70
14 -39 63 -74 101 -72 14 1 30 1 36 0 6 -1 26 -31 45 -67 l33 -66 -27 -20
c-32 -23 -34 -46 -7 -90 29 -48 25 -67 -27 -121 l-48 -48 55 22 c155 61 222
80 261 74 49 -8 97 -41 127 -85 22 -32 73 -57 94 -44 4 3 -1 24 -12 49 -10 24
-33 95 -50 157 -17 62 -33 119 -36 126 -8 26 -37 23 -156 -17 -67 -22 -117
-36 -111 -30 15 15 175 82 296 123 110 38 154 42 168 16 4 -8 37 -108 74 -222
37 -115 71 -208 76 -208 25 0 -13 145 -113 431 -14 40 -49 52 -121 39 -48 -9
-232 -69 -352 -115 -14 -6 -17 -5 -10 3 8 8 174 82 239 106 15 5 17 13 12 46
-8 50 -25 87 -42 94 -12 4 -165 -36 -259 -68 -11 -3 16 12 60 34 80 40 219 82
242 73 7 -3 25 -35 40 -72 l28 -68 66 5 c62 4 68 3 99 -25 26 -23 40 -52 65
-129 27 -83 35 -98 51 -96 41 8 216 77 331 132 172 82 467 260 444 268 -7 2
-20 -3 -29 -11 -30 -25 -106 -65 -139 -72 -26 -5 -34 -2 -43 15 -8 16 -7 25 5
42 8 13 15 31 15 42 0 18 6 19 93 13 50 -4 109 -12 130 -18 38 -10 39 -11 32
-47 -12 -69 -89 -245 -145 -334 -31 -49 -89 -129 -130 -177 l-75 -89 -80 -16
c-210 -42 -533 -46 -920 -11 -264 23 -634 19 -812 -10 -12 -1 -17 -10 -15 -26
1 -12 4 -25 7 -27 2 -2 48 1 102 8 188 22 394 24 643 4 304 -24 675 -24 849 0
68 9 126 15 128 12 8 -8 -143 -95 -217 -126 -86 -36 -92 -40 -80 -59 16 -26
263 104 337 177 21 21 60 38 153 66 306 92 517 243 554 399 10 40 -10 102 -45
142 -29 33 -156 105 -185 105 -29 0 -12 -16 51 -49 111 -57 160 -135 134 -212
-41 -119 -169 -216 -414 -312 -137 -54 -137 -54 -82 5 70 75 156 209 200 311
47 108 93 281 102 383 l8 76 63 -7 c106 -11 129 18 74 94 -51 70 -215 160
-339 186 l-34 7 27 -34 c16 -21 26 -48 26 -67 0 -54 28 -99 79 -128 25 -15 49
-32 53 -38 9 -12 10 -131 2 -172 -6 -29 -7 -30 -33 -17 -31 16 -144 34 -213
34 -26 0 -50 5 -53 10 -3 6 2 10 12 10 16 1 15 3 -6 20 -67 56 -152 -14 -136
-111 4 -21 11 -41 16 -45 5 -3 9 -10 9 -17 0 -6 -10 -1 -22 11 -19 18 -23 34
-23 83 0 57 2 63 33 89 l33 27 -28 11 c-15 7 -78 23 -140 37 l-112 26 -123
-45 c-68 -25 -165 -61 -217 -81 -51 -20 -95 -34 -97 -32 -2 2 83 41 189 87
485 210 618 269 630 280 5 4 -12 8 -37 8 -124 3 -257 125 -256 236 1 53 37
115 117 198 81 83 84 96 23 99 -81 4 -126 -20 -199 -108 -34 -41 -74 -76 -118
-101 -117 -68 -429 -220 -510 -248 -91 -32 -92 -32 -73 -44 33 -21 80 -4 348
126 166 81 287 134 296 131 40 -16 0 -153 -60 -209 -38 -34 -435 -233 -496
-249 -26 -6 -59 -8 -73 -5 -23 6 -25 10 -25 69 0 69 -18 107 -51 107 -10 0
-19 -3 -19 -7 0 -5 -39 -8 -86 -9 -77 0 -83 1 -61 13 14 7 53 19 87 27 76 18
86 26 33 26 -46 0 -158 -32 -216 -62 -22 -11 -41 -17 -44 -14 -11 10 65 47
150 74 121 37 117 58 -22 92 -45 11 -93 26 -106 32 -23 10 -29 8 -62 -23 -37
-35 -123 -160 -123 -178 0 -6 -4 -11 -10 -11 -13 0 -13 34 2 83 11 35 10 41
-7 53 -22 17 -68 18 -96 4 -13 -8 -19 -7 -19 0 0 15 44 82 64 99 9 8 22 23 28
34 34 64 -158 -125 -196 -193 -22 -38 -26 -41 -25 -20 0 40 24 95 59 140 18
22 31 43 29 45 -2 2 -28 19 -57 38 -79 54 -207 165 -419 366 -252 238 -326
324 -453 522 -131 205 -262 381 -333 445 -30 27 -97 72 -148 100 -86 46 -152
78 -399 191 -135 62 -190 123 -190 210 0 28 6 46 21 59 27 24 58 91 59 124 0
40 -25 127 -90 311 -67 190 -106 273 -144 308 -25 23 -25 25 -9 44 29 31 67
46 183 72 124 28 196 59 203 87 7 24 -11 88 -29 109 -8 8 -23 41 -33 72 -31
91 -88 189 -149 262 -99 116 -97 112 -131 287 -42 222 -67 308 -109 375 -33
55 -35 64 -40 166 -2 59 -1 107 4 107 5 0 25 -5 45 -10 27 -8 55 -6 108 5 130
27 131 26 223 -71 51 -53 153 -139 274 -230 262 -197 294 -233 450 -504 58
-100 185 -280 257 -364 28 -32 83 -84 122 -115 38 -30 167 -150 285 -266 282
-277 303 -291 648 -449 284 -131 514 -263 757 -437 172 -123 451 -346 475
-379 20 -28 21 -36 11 -75 -6 -24 -11 -72 -11 -107 0 -75 19 -117 70 -150 79
-53 152 -198 165 -328 7 -71 28 -144 72 -250 31 -76 44 -95 131 -183 156 -159
328 -277 402 -277 18 0 41 10 60 28 25 22 33 39 41 95 6 37 8 74 6 81 -3 7
-24 16 -47 19 -54 7 -88 31 -107 74 -26 62 13 118 106 153 28 11 51 19 52 17
0 -1 2 -11 4 -22 4 -21 31 -45 52 -45 7 0 13 -4 13 -9 0 -4 -23 -11 -52 -14
-29 -4 -73 -17 -98 -30 -80 -41 -60 -86 48 -107 58 -11 384 3 487 21 135 24
200 74 261 204 47 100 59 155 40 180 -11 15 -15 12 -39 -24 -44 -66 -146 -160
-186 -171 -65 -19 -268 -33 -368 -25 -88 6 -99 10 -125 35 -24 24 -28 36 -28
84 0 47 4 60 28 86 25 28 34 30 137 40 205 20 280 31 323 50 37 17 47 28 71
82 16 35 36 84 46 111 9 26 21 47 26 47 24 0 1 -205 -31 -277 -32 -73 -149
-113 -336 -113 -105 0 -150 -10 -196 -42 -32 -22 -36 -49 -11 -69 35 -30 404
-6 490 31 50 22 119 106 169 205 38 78 56 180 43 249 -16 79 -15 80 64 116
217 98 350 162 357 171 13 18 102 41 182 48 72 6 92 12 112 31 57 53 35 139
-54 209 -60 47 -130 71 -212 71 -69 0 -116 -18 -174 -65 -23 -19 -45 -35 -48
-35 -3 0 -34 -13 -68 -29 -211 -97 -312 -142 -368 -166 -61 -26 -113 -55 -97
-55 3 0 131 54 282 120 174 75 292 132 318 154 24 19 55 40 70 45 37 14 117
14 173 0 50 -13 71 -32 25 -23 -44 9 -77 -17 -106 -81 -27 -62 -25 -61 -330
-186 -93 -38 -214 -88 -267 -110 -85 -36 -102 -40 -128 -31 -16 6 -30 7 -30 3
0 -5 18 -39 39 -77 53 -92 68 -153 17 -69 -20 33 -57 79 -81 102 -46 42 -135
83 -180 83 -36 0 -30 17 8 24 36 7 178 74 212 99 19 15 18 16 -30 36 -27 12
-66 30 -85 41 -19 10 -116 61 -216 111 l-180 93 -28 60 c-43 92 -115 204 -136
211 -34 11 -177 -36 -194 -64 -7 -11 93 -123 104 -116 5 3 23 26 40 53 l32 47
-7 -39 c-6 -39 -50 -146 -63 -156 -4 -3 -24 -30 -45 -62 -81 -120 -286 -293
-413 -350 -64 -28 -65 -17 -2 17 74 39 173 110 197 142 18 22 19 29 9 44 -18
25 -374 314 -712 579 -370 289 -691 560 -794 669 -23 26 -81 98 -129 161 -48
63 -89 117 -93 120 -5 4 -118 181 -140 220 -71 124 -85 142 -143 186 -34 25
-69 49 -77 52 -8 3 -17 8 -20 12 -12 15 -100 50 -160 64 -60 13 -188 31 -286
40 -59 5 -112 34 -131 70 -21 40 -39 124 -48 216 -8 88 -30 174 -51 194 -8 8
-14 19 -14 25 0 5 -30 43 -67 83 -97 105 -150 169 -238 287 -116 156 -125 189
-73 242 92 92 362 147 528 108 25 -6 55 -13 67 -15 12 -2 39 -14 60 -25 l38
-21 -37 34 c-69 64 -145 96 -244 103 -124 10 -175 27 -254 85 -37 28 -92 59
-121 69 -103 36 -175 72 -286 147 -62 41 -115 79 -118 85 -14 21 70 -3 110
-32 58 -43 397 -209 426 -209 13 0 69 -16 124 -35 133 -47 142 -36 45 57 -78
73 -189 158 -209 158 -6 0 -11 4 -11 8 0 5 -12 14 -26 21 -32 14 -283 202
-305 227 -9 11 -26 48 -38 84 -17 48 -37 79 -75 118 -63 66 -198 183 -330 285
-87 68 -138 117 -122 117 3 0 35 -18 71 -40 78 -48 196 -108 285 -145 36 -15
119 -60 185 -100 119 -73 175 -97 175 -77 0 6 -59 66 -131 134 -214 200 -235
220 -219 212 30 -15 127 -89 246 -186 103 -85 130 -113 183 -193 63 -95 122
-158 161 -170 12 -4 23 -5 25 -3 10 9 -85 199 -135 272 -141 203 -316 365
-600 553 -215 143 -496 307 -688 403 -98 49 -184 96 -191 104 -21 25 -6 46 34
46 43 0 72 -14 185 -90 47 -31 180 -115 295 -185 410 -251 581 -377 777 -576
105 -106 124 -121 111 -91 -71 172 -267 394 -496 560 -123 89 -335 222 -355
222 -6 0 -12 4 -14 9 -1 5 -26 20 -55 34 -28 15 -91 54 -140 87 -352 243 -386
261 -556 290 -136 23 -236 25 -390 8 -104 -11 -109 -11 -129 9 -11 12 -20 34
-20 49 0 43 57 86 217 164 228 111 259 113 674 39 30 -5 58 -8 64 -6 9 3 -76
33 -115 41 -7 2 -26 8 -41 14 -15 7 -74 22 -130 34 -211 45 -440 19 -616 -71
-68 -35 -229 -136 -311 -196 -223 -163 -510 -469 -688 -736 -78 -117 -232
-260 -517 -480 -267 -206 -673 -488 -795 -553 -69 -36 -61 -28 70 69 419 313
939 740 1063 874 60 65 84 122 72 170 -4 14 -27 60 -51 101 -107 179 -244 334
-371 420 l-72 48 67 43 c37 23 78 49 92 58 27 16 237 121 244 121 2 0 29 11
60 25 31 14 58 25 61 24 3 0 18 7 33 16 33 19 157 62 457 161 127 42 282 94
345 115 l115 38 -83 1 c-79 0 -368 -26 -382 -35 -3 -2 -87 -16 -186 -30 -98
-14 -208 -33 -244 -42 -75 -18 -128 -18 -156 -1 -33 21 -259 51 -385 52 l-136
1 -50 -35 c-255 -176 -394 -273 -424 -297 -170 -133 -538 -451 -640 -553 -128
-127 -259 -281 -259 -305 0 -23 61 -35 184 -35 142 -1 251 -13 298 -35 31 -14
25 -15 -102 -10 -241 10 -479 -12 -855 -80 -77 -14 -144 -25 -150 -25 -5 1 62
25 150 55 88 30 198 73 245 96 94 47 157 104 313 286 219 254 612 589 972 829
95 63 163 124 138 124 -4 0 -37 -9 -73 -21 -80 -25 -218 -30 -272 -9 -63 23
-73 56 -74 255 -2 260 -2 253 -21 262 -10 4 -66 7 -125 5z m2353 -1712 c71
-74 142 -214 268 -528 49 -123 104 -248 122 -278 19 -30 91 -123 162 -207 214
-255 331 -402 355 -448 l23 -44 -23 29 c-13 16 -56 68 -96 115 -371 439 -410
489 -505 658 -61 107 -159 321 -237 516 -42 105 -72 168 -92 188 -33 33 -68
39 -68 12 0 -37 62 -206 140 -383 22 -51 39 -94 37 -96 -7 -7 -98 155 -137
243 -40 90 -70 189 -70 229 0 76 46 74 121 -6z m-183 -1461 c129 -25 374 -92
439 -120 62 -26 51 -32 -97 -53 -470 -66 -1294 -134 -2400 -197 l-565 -32
-349 -184 c-192 -101 -350 -182 -353 -180 -5 6 4 11 305 182 145 83 272 158
283 168 10 10 19 28 19 40 0 13 -53 94 -125 191 -69 93 -125 172 -125 175 0 3
38 -34 84 -83 l84 -89 83 6 c46 3 179 15 294 26 242 23 521 44 890 66 606 36
1051 72 1255 99 107 15 132 13 278 -15z m1985 -299 c-129 -49 -194 -84 -253
-137 -81 -73 -88 -129 -24 -189 19 -18 34 -35 34 -38 0 -3 -43 -6 -95 -6 -88
0 -98 2 -120 25 -53 52 -21 104 126 205 100 69 233 135 324 161 108 31 112 19
8 -21z m-4847 -577 c304 -229 529 -419 753 -638 164 -160 331 -346 331 -369 0
-23 -119 -124 -167 -142 l-44 -17 -62 69 c-322 363 -836 807 -1206 1041 -2 1
6 17 17 35 42 67 144 148 187 148 12 0 97 -57 191 -127z m9101 -3081 c16 -32
49 -73 82 -103 94 -83 190 -97 266 -37 18 14 26 17 23 7 -10 -29 -95 -71 -145
-72 -126 -1 -263 137 -270 273 -2 52 -2 53 8 20 6 -19 22 -59 36 -88z m-907
-1511 c0 -5 -8 -18 -17 -29 -16 -17 -39 -21 -181 -30 -145 -10 -168 -13 -209
-36 -55 -31 -62 -32 -37 -5 36 40 117 93 153 100 53 10 291 10 291 0z m-7845
-636 c52 -181 114 -385 240 -789 121 -390 246 -818 241 -823 -9 -9 -35 55 -61
148 -15 52 -84 274 -155 494 -161 504 -193 606 -275 889 -36 126 -70 237 -75
246 -5 10 -6 20 -3 24 18 18 46 -43 88 -189z m6509 -631 c45 -17 0 -94 -272
-459 -94 -126 -180 -241 -191 -255 -10 -14 -47 -63 -83 -110 -35 -47 -127
-168 -204 -270 -193 -254 -283 -372 -297 -390 -7 -8 -68 -89 -137 -180 -69
-91 -127 -167 -131 -170 -3 -3 -61 -79 -130 -170 -68 -91 -126 -167 -129 -170
-6 -6 -286 -369 -340 -441 -19 -26 -84 -111 -145 -189 -60 -78 -244 -316 -408
-528 -527 -683 -642 -830 -646 -827 -7 8 31 237 70 430 41 195 77 353 155 675
91 371 151 641 163 737 17 131 18 135 51 628 16 223 34 345 75 498 36 132 113
364 137 414 14 28 92 57 498 183 91 28 190 60 220 70 30 10 89 28 130 40 41
12 107 32 145 44 39 13 104 33 145 45 93 28 266 80 300 91 14 5 102 32 195 60
94 28 202 62 240 75 39 13 149 48 245 79 334 105 317 101 344 90z m-4499 -668
c183 -75 203 -80 264 -68 31 7 67 15 81 19 14 3 22 2 17 -2 -4 -5 -212 -74
-463 -155 -250 -80 -454 -150 -452 -155 2 -6 8 -9 13 -7 11 2 295 91 692 216
132 42 246 76 252 76 47 0 -50 -35 -469 -170 -311 -99 -480 -158 -480 -167 0
-7 5 -13 12 -13 6 0 204 63 439 140 236 77 431 140 434 140 2 0 0 -11 -7 -25
-6 -13 -25 -29 -42 -34 -17 -6 -157 -48 -311 -95 -154 -47 -338 -103 -408
-124 l-128 -40 -9 22 c-4 12 -14 42 -21 65 -13 43 -12 44 18 70 45 38 78 88
107 160 36 89 66 124 138 161 59 30 68 32 148 27 70 -3 103 -11 175 -41z
m5646 -226 c124 -28 305 -87 356 -116 52 -30 88 -76 118 -151 14 -34 33 -63
46 -70 16 -8 32 -38 54 -100 17 -48 64 -167 105 -263 87 -210 140 -348 140
-363 -1 -19 -26 31 -71 141 -24 56 -47 101 -53 99 -46 -15 -47 -189 -2 -297
39 -92 40 -96 21 -104 -20 -7 -53 9 -76 37 -15 19 -19 19 -48 8 -29 -12 -31
-16 -25 -47 8 -42 -17 -84 -49 -84 -30 0 -66 26 -65 48 0 9 -33 98 -74 197
-88 213 -175 433 -184 468 -7 31 18 47 78 50 l40 2 42 -110 c23 -60 62 -164
86 -230 137 -380 140 -357 5 39 -85 249 -103 312 -94 328 21 40 -27 212 -98
350 -44 86 -46 88 -101 108 -31 12 -100 33 -152 47 -86 23 -116 33 -97 33 4 0
48 -9 98 -20z m-6751 -309 c0 -6 -41 -38 -90 -72 -50 -34 -106 -79 -125 -101
-38 -45 -58 -46 -89 -5 l-21 29 40 34 c55 47 170 103 230 113 28 5 51 9 53 10
1 0 2 -3 2 -8z m1255 -180 c-14 -14 -949 -330 -1144 -387 -92 -27 -116 -26
-49 1 61 25 800 275 1003 340 171 55 207 63 190 46z m-1606 -204 c-55 -107
-148 -358 -149 -402 0 -11 -4 -27 -9 -34 -10 -16 -5 44 10 114 4 22 6 41 4 43
-2 2 -67 -44 -144 -101 -78 -58 -141 -102 -141 -97 0 37 126 335 163 384 14
18 16 16 31 -40 24 -86 33 -104 54 -104 27 0 45 24 86 115 36 78 134 235 147
235 4 0 -19 -51 -52 -113z m8564 -9 c18 -29 49 -81 68 -116 19 -36 43 -65 54
-68 13 -3 30 -29 49 -72 78 -177 141 -338 177 -454 32 -102 50 -140 90 -195
27 -37 66 -100 86 -139 35 -67 36 -73 23 -104 -8 -19 -27 -49 -43 -67 -32 -36
-30 -40 11 -19 87 45 127 169 68 208 -21 14 -27 8 -15 -14 7 -14 -1 -9 -19 12
-17 19 -31 38 -32 43 0 4 24 8 53 8 28 1 63 2 77 3 22 1 25 -4 28 -34 2 -19 8
-40 13 -46 10 -12 19 -95 79 -734 100 -1074 120 -1278 126 -1320 8 -65 -7 -41
-49 75 -19 55 -99 271 -177 480 -261 702 -461 1248 -457 1250 28 18 74 26 120
20 45 -6 61 -3 97 15 41 21 42 23 37 62 -3 25 -23 65 -51 107 -45 65 -55 94
-37 106 12 7 -45 225 -100 390 -50 148 -167 395 -187 395 -9 0 -13 -7 -9 -19
3 -11 -2 -29 -10 -41 -23 -32 -72 -24 -98 17 -16 26 -25 32 -45 28 -20 -5 -29
0 -43 24 -9 16 -41 57 -69 91 l-51 62 34 32 c43 41 65 52 108 55 19 1 37 4 40
6 11 12 23 2 54 -47z m-8745 -655 c-3 -16 -418 -353 -472 -384 -18 -11 -18
-10 2 22 19 31 445 377 465 378 5 1 7 -7 5 -16z m9782 -54 c223 -20 487 -75
714 -149 1201 -391 2168 -1418 2537 -2693 241 -833 208 -1718 -92 -2483 -237
-605 -628 -1117 -1134 -1486 -746 -545 -1718 -728 -2643 -498 -1093 271 -2022
1049 -2536 2122 -536 1117 -539 2397 -10 3440 256 502 646 942 1104 1244 171
112 433 254 470 254 4 0 21 -33 38 -74 l30 -75 -136 -69 c-435 -218 -826 -554
-1112 -952 -532 -742 -738 -1699 -575 -2665 166 -982 707 -1876 1490 -2460
829 -619 1833 -836 2771 -600 1238 312 2132 1372 2311 2740 25 194 25 719 0
910 -141 1056 -660 1977 -1469 2607 -404 316 -872 541 -1353 652 -265 61 -595
94 -817 81 -103 -6 -118 -5 -118 8 0 9 -5 28 -12 42 -9 19 -19 25 -45 25 -28
0 -36 5 -50 35 -9 19 -14 37 -11 41 11 11 262 22 398 17 74 -2 187 -9 250 -14z
m-752 -31 c7 -7 12 -27 12 -45 0 -26 -6 -36 -25 -45 -30 -13 -74 2 -76 27 -3
28 -4 33 -11 40 -3 4 -14 -5 -23 -19 -14 -22 -15 -29 -3 -53 11 -23 20 -28 46
-26 41 1 38 -21 -4 -25 -16 -2 -32 -9 -36 -15 -4 -6 -9 -9 -12 -6 -8 7 -35
153 -30 158 17 18 146 25 162 9z m-12773 -72 c119 -11 120 -11 118 -36 -1 -14
-3 -45 -3 -70 -1 -25 -23 -151 -50 -280 -86 -413 -309 -1495 -368 -1787 -31
-156 -60 -283 -64 -283 -3 0 -11 12 -16 28 -6 15 -51 133 -102 262 l-91 235 6
840 c3 510 10 892 17 973 l12 132 210 -1 c116 -1 265 -6 331 -13z m-601 -48
c9 -80 1 -1774 -8 -1785 -3 -4 -49 111 -226 567 -89 228 -174 449 -190 490
-16 41 -73 185 -125 319 -53 135 -94 250 -91 256 2 7 -4 31 -15 54 l-18 42 23
9 c34 12 252 55 376 74 142 21 157 23 217 25 l51 1 6 -52z m-714 -102 c6 -19
19 -45 29 -58 15 -20 67 -148 266 -663 36 -93 208 -535 371 -953 l44 -113 -1
-207 c-1 -114 -4 -254 -8 -311 l-6 -105 -76 125 c-42 68 -258 421 -479 784
-222 363 -477 780 -566 928 -90 147 -164 273 -164 280 0 6 -9 27 -20 45 -11
18 -20 37 -20 42 0 20 286 138 485 201 66 20 123 38 127 38 3 1 12 -14 18 -33z
m14728 -21 c97 -5 247 -24 337 -43 60 -12 56 27 80 -902 l14 -565 -187 -437
c-103 -241 -190 -438 -193 -438 -13 0 -49 114 -49 155 0 23 -16 204 -35 401
-122 1269 -163 1733 -158 1791 l5 52 41 -4 c23 -2 88 -7 145 -10z m-12405 -71
c129 -51 411 -184 430 -203 4 -4 -1 -28 -12 -53 -11 -26 -17 -48 -15 -51 5 -4
-113 -271 -413 -942 -52 -115 -122 -273 -156 -349 l-62 -140 -180 -165 c-223
-205 -285 -257 -285 -239 -1 24 503 2093 511 2098 4 3 13 27 19 53 7 26 14 47
17 47 2 0 68 -25 146 -56z m12940 -14 c87 -22 330 -100 391 -125 39 -16 42
-25 24 -58 -6 -12 -12 -33 -13 -47 -3 -25 -459 -1097 -474 -1113 -5 -5 -12
157 -16 360 -4 202 -10 490 -14 638 -4 149 -3 274 1 280 4 5 8 26 8 47 0 21 3
38 6 38 3 0 42 -9 87 -20z m-9883 -296 c33 -98 60 -181 60 -185 0 -4 -9 -9
-21 -12 -18 -5 -27 7 -69 96 -27 56 -59 133 -71 171 l-23 69 29 23 c16 13 31
22 32 20 2 -2 30 -84 63 -182z m-6014 102 c11 -12 197 -311 414 -666 216 -355
512 -839 657 -1076 l263 -431 0 -81 c0 -75 -1 -80 -20 -75 -15 4 -20 0 -20
-14 0 -11 -10 -32 -21 -47 -19 -24 -28 -27 -67 -24 -43 3 -45 2 -46 -25 -2
-40 -33 -65 -86 -69 -37 -2 -68 6 -153 42 l-107 45 -142 205 c-140 202 -792
1148 -1100 1594 -87 127 -158 236 -158 244 0 7 -11 28 -25 46 -14 18 -25 35
-25 39 0 16 274 197 450 297 l125 70 20 -27 c11 -15 29 -36 41 -47z m4174 29
c63 -33 52 -104 -28 -181 -115 -111 -180 -137 -236 -93 -30 23 -35 64 -11 95
14 18 14 17 15 -13 0 -19 8 -41 20 -53 35 -35 82 -23 120 29 l21 30 -35 -6
c-72 -11 -116 82 -60 126 15 12 32 21 38 21 6 0 27 14 46 30 39 33 68 37 110
15z m12397 -89 c178 -90 333 -181 333 -196 0 -5 -9 -24 -19 -42 -11 -17 -18
-35 -16 -39 3 -4 -45 -94 -106 -200 -61 -107 -289 -504 -506 -884 -217 -379
-398 -694 -403 -698 -12 -13 -19 128 -26 518 l-7 361 253 589 c138 325 257
595 264 600 6 6 18 25 25 43 7 17 19 32 27 32 7 0 89 -38 181 -84z m-2535
-148 c18 -57 34 -105 36 -107 1 -3 16 3 31 12 43 25 55 21 73 -25 9 -24 82
-205 163 -403 247 -606 381 -938 492 -1220 58 -148 152 -386 208 -527 l103
-258 -67 1 c-36 0 -122 6 -191 13 -69 7 -127 12 -129 10 -1 -1 55 -46 125 -98
l129 -96 62 0 c34 0 65 -4 68 -10 4 -6 -10 -10 -34 -10 -64 0 -59 -6 60 -84
26 -16 27 -16 78 30 34 31 56 43 62 37 14 -14 -371 -348 -404 -349 -15 -1 -24
3 -21 10 2 6 -72 57 -166 114 -93 57 -172 108 -175 113 -15 23 28 2 163 -80
81 -50 154 -92 162 -96 11 -4 35 20 80 81 35 48 66 82 68 76 2 -6 -24 -48 -58
-92 -49 -64 -58 -81 -45 -86 9 -4 23 0 33 9 9 8 62 54 117 102 55 48 100 91
100 97 0 6 -31 32 -70 59 l-70 49 -205 -20 c-244 -24 -230 -23 -230 -7 0 11
38 17 153 27 83 7 172 16 197 19 l45 7 -80 54 c-44 29 -112 77 -150 105 l-70
52 -103 6 c-56 3 -102 3 -102 -1 0 -4 23 -62 51 -130 29 -67 50 -124 48 -126
-2 -2 -37 -6 -76 -8 l-73 -5 -282 153 c-156 85 -287 156 -293 158 -40 14 41
12 309 -11 248 -21 310 -23 316 -13 6 10 29 11 96 6 54 -4 85 -4 79 2 -5 5
-82 57 -170 116 -169 114 -192 132 -183 141 3 3 100 -57 216 -133 l211 -139
177 -12 c96 -7 178 -11 180 -8 2 2 -37 42 -88 88 -51 46 -267 245 -482 442
-214 196 -391 356 -393 353 -2 -2 38 -111 90 -242 79 -200 98 -240 116 -242
26 -4 26 -3 0 -53 l-20 -41 -27 18 c-15 10 -268 184 -562 388 -294 203 -649
448 -789 544 -139 96 -271 192 -292 213 -22 22 -44 39 -50 39 -28 0 133 238
313 463 l16 21 34 -26 c18 -13 38 -27 45 -29 6 -2 94 -81 195 -175 775 -722
918 -853 931 -849 7 3 55 -34 113 -87 304 -285 474 -438 474 -429 0 11 -119
384 -242 761 l-60 184 -196 216 c-252 276 -572 619 -602 645 -27 23 -31 34 45
-140 71 -164 435 -1072 435 -1086 0 -6 -35 22 -77 62 -43 39 -284 263 -535
497 -252 234 -458 430 -458 436 0 6 -14 23 -32 38 l-33 27 80 81 c90 92 227
211 328 288 l69 51 71 -87 c40 -49 248 -279 462 -512 215 -232 396 -431 403
-442 17 -23 36 -24 23 0 -21 41 -362 1061 -385 1155 -3 15 -4 27 -2 27 3 0 19
-46 38 -102z m2961 -101 c200 -146 287 -216 374 -300 l52 -51 -24 -32 c-14
-18 -25 -38 -25 -44 0 -6 -126 -176 -281 -378 -155 -202 -475 -620 -712 -929
-400 -523 -433 -564 -474 -579 -24 -9 -45 -15 -47 -13 -2 2 -7 101 -11 219
l-7 215 261 455 c144 250 382 665 529 922 147 258 272 468 278 468 6 0 18 16
27 35 9 19 19 35 23 35 3 0 20 -10 37 -23z m-17651 -62 c13 -19 28 -35 33 -35
6 0 147 -199 315 -443 167 -243 475 -689 683 -990 208 -302 377 -550 375 -552
-2 -1 -102 40 -223 92 -121 52 -249 106 -285 120 -76 31 -37 -7 -812 757 -302
297 -548 544 -548 550 0 5 -14 25 -32 43 l-31 32 92 100 c51 55 145 146 208
203 64 57 131 115 147 130 41 36 51 35 78 -7z m5159 -187 c374 -416 626 -836
813 -1352 78 -215 164 -555 143 -568 -17 -11 -60 -10 -110 4 l-44 11 -28 121
c-33 147 -126 432 -190 581 -174 409 -421 791 -720 1113 -37 40 -66 74 -64 76
24 23 115 96 120 96 3 0 39 -37 80 -82z m-271 -86 c0 -5 -30 -33 -67 -63 -278
-225 -903 -758 -903 -770 0 -4 24 -34 54 -66 l54 -58 34 19 c66 39 229 145
498 327 298 202 420 281 420 274 0 -11 -350 -258 -670 -474 l-246 -166 27 -40
c46 -68 193 -204 228 -211 24 -5 35 -16 50 -48 10 -22 48 -72 83 -111 l65 -69
114 74 c170 110 747 455 724 432 -18 -17 -585 -384 -753 -487 -35 -21 -65 -41
-67 -45 -2 -3 10 -34 27 -69 30 -64 158 -211 183 -211 7 0 24 -11 39 -25 46
-43 65 -41 208 15 163 64 700 252 705 246 8 -8 -294 -130 -552 -222 -99 -36
-199 -72 -222 -81 -24 -9 -57 -13 -76 -10 -17 3 -45 0 -62 -7 -21 -9 -40 -9
-67 -2 -27 7 -47 7 -71 -2 -40 -14 -87 -15 -121 -2 -18 6 -38 5 -72 -7 -42
-14 -52 -14 -93 -1 -40 13 -53 13 -94 1 -40 -12 -54 -12 -94 0 -41 12 -54 12
-91 -1 -32 -10 -52 -12 -75 -5 -32 9 -29 12 228 182 226 149 294 203 248 194
-7 -2 -134 -84 -283 -183 -149 -98 -288 -185 -310 -191 -30 -9 -49 -9 -85 1
-36 10 -54 10 -91 0 -36 -10 -55 -10 -97 0 -45 10 -58 10 -92 -5 -34 -13 -47
-14 -82 -4 -24 6 -57 8 -75 4 -18 -4 -50 -7 -70 -6 -43 1 -130 1 -185 0 -50 0
-182 10 -211 16 -20 5 -52 50 -41 58 2 2 266 183 587 402 320 219 581 402 580
407 -2 5 -7 10 -10 11 -4 1 -260 -171 -569 -383 -309 -212 -578 -391 -598
-398 -20 -7 -43 -11 -52 -9 -19 5 -68 -72 -93 -146 -20 -60 -21 -169 -1 -233
8 -27 15 -84 15 -126 0 -82 -6 -91 -44 -63 -10 8 -23 12 -28 9 -12 -8 -58
-112 -58 -133 0 -11 24 -29 65 -49 36 -17 65 -35 65 -40 0 -4 -6 -16 -13 -26
-12 -17 -19 -17 -73 -6 -86 18 -134 45 -134 75 0 14 21 55 46 92 89 129 107
214 59 271 -48 58 -104 49 -201 -31 -35 -30 -82 -59 -103 -66 -73 -22 -181 -8
-181 23 0 15 221 337 303 441 l66 84 173 84 c95 46 272 128 393 182 198 88
352 160 364 171 3 3 -2 11 -11 20 -14 14 -30 8 -163 -55 -82 -39 -150 -70
-152 -68 -1 2 72 48 163 102 147 87 168 96 189 87 13 -6 31 -25 40 -42 18 -35
17 -34 53 -16 40 20 61 48 68 87 l6 34 -39 -43 c-21 -23 -42 -42 -48 -41 -5 0
-27 20 -47 43 l-37 43 60 41 c68 47 71 48 89 27 7 -8 16 -15 20 -15 7 0 156
123 706 585 318 267 568 475 571 475 2 0 3 -4 3 -8z m13456 -289 c39 -46 98
-117 130 -158 l57 -76 -30 -32 c-17 -18 -32 -37 -34 -43 -4 -10 -239 -240
-888 -866 l-225 -217 -343 -129 c-189 -71 -342 -124 -340 -118 10 25 1358
1778 1404 1825 l48 50 74 -77 c41 -42 107 -114 147 -159z m-18875 61 c13 -14
32 -29 41 -33 10 -3 149 -137 310 -296 743 -735 914 -905 912 -905 -3 0 -489
206 -1004 425 -107 46 -280 119 -384 163 -104 44 -191 85 -195 90 -4 6 -26 19
-49 29 l-43 18 62 100 c96 153 303 435 319 435 4 0 17 -12 31 -26z m19167
-446 c81 -121 159 -252 207 -348 l35 -69 -43 -20 c-23 -11 -49 -25 -57 -31
-21 -15 -1342 -509 -1338 -501 3 6 363 356 832 809 116 111 215 202 221 202 6
0 24 14 40 30 16 17 30 30 32 30 1 0 33 -46 71 -102z m-5397 54 c13 -11 33
-21 44 -24 17 -4 590 -396 1543 -1056 50 -35 92 -67 92 -70 0 -4 -12 -25 -25
-47 -60 -97 -14 -137 132 -112 42 7 43 7 63 -34 12 -22 19 -43 17 -46 -3 -2
-159 8 -348 23 l-343 28 -95 52 c-53 29 -361 197 -686 374 -324 177 -592 325
-593 331 -2 5 -22 19 -43 30 -47 24 -49 8 28 204 52 131 142 324 165 353 14
16 21 15 49 -6z m3223 -612 l7 -316 -111 -194 c-61 -107 -113 -194 -117 -193
-3 1 -27 60 -53 130 -26 70 -61 164 -77 209 l-30 80 168 395 c93 217 174 405
181 419 10 22 13 9 19 -95 4 -66 10 -262 13 -435z m-17387 426 c21 -8 45 -14
53 -14 13 1 240 -94 855 -357 94 -40 274 -116 400 -170 127 -54 274 -116 327
-139 l98 -41 240 -239 c132 -132 239 -241 237 -242 -1 -1 -213 47 -472 106
-258 60 -659 152 -890 205 -231 53 -485 111 -565 130 -80 19 -226 52 -325 75
-99 23 -182 45 -185 50 -3 4 -22 11 -43 15 -20 4 -40 11 -42 16 -17 26 242
619 270 619 3 0 22 -6 42 -14z m3063 -394 l90 -232 -24 -111 c-13 -61 -27
-114 -31 -117 -3 -4 -20 1 -36 11 -17 9 -36 17 -42 17 -7 0 -27 25 -44 54
l-33 54 0 159 c0 221 11 442 21 418 5 -11 49 -125 99 -253z m16807 -29 c73
-162 187 -476 176 -487 -4 -3 -18 -6 -33 -6 -15 0 -40 -6 -56 -14 -16 -7 -67
-19 -114 -25 -47 -6 -485 -68 -974 -136 -489 -69 -891 -123 -893 -122 -2 2 70
74 160 159 l162 155 640 241 c352 132 670 252 708 266 37 14 80 26 95 26 15 0
34 5 42 10 35 23 51 11 87 -67z m-5919 -13 c9 0 64 -26 122 -59 58 -32 347
-190 643 -351 296 -161 536 -294 534 -296 -2 -2 -194 12 -428 31 -1016 84
-1089 92 -1089 120 0 57 72 397 111 527 l21 69 35 -21 c19 -11 42 -20 51 -20z
m-11853 -440 c142 -61 265 -116 272 -122 8 -6 47 -60 88 -120 70 -101 87 -140
67 -152 -4 -2 -61 7 -127 22 l-119 26 -235 234 c-130 129 -229 231 -221 229 8
-3 132 -55 275 -117z m16089 -89 c-16 -15 -83 -80 -149 -143 l-120 -116 -219
-31 c-121 -17 -222 -29 -224 -26 -10 10 74 98 107 112 20 9 162 63 316 120
154 58 287 109 295 113 27 15 24 0 -6 -29z m1904 -92 c32 -122 80 -384 84
-459 l3 -65 -40 -3 c-22 -2 -42 -7 -45 -11 -3 -4 -165 -24 -360 -45 -195 -20
-551 -57 -790 -81 -239 -25 -585 -61 -768 -80 l-333 -35 -135 111 c-74 61
-134 115 -134 119 0 5 81 86 180 181 l180 173 262 38 c456 64 1416 199 1583
222 88 12 189 21 225 21 l65 -1 23 -85z m-5738 -44 c234 -19 549 -44 700 -56
l275 -22 304 -165 c226 -123 299 -167 285 -172 -11 -4 -59 -10 -109 -13 -49
-4 -288 -22 -530 -42 -918 -74 -1442 -112 -1502 -111 l-62 1 -7 65 c-7 68 1
407 12 498 l7 53 43 -2 c24 -2 46 0 50 3 3 4 29 4 57 2 29 -3 243 -20 477 -39z
m-7288 -43 c18 -18 58 -403 58 -565 l0 -79 -31 6 c-17 3 -53 6 -79 6 l-47 0
-7 148 c-4 81 -14 210 -23 287 -24 208 -25 197 22 211 39 11 89 4 107 -14z
m-1265 -5 c37 -2 58 -8 75 -24 13 -11 42 -27 66 -34 28 -8 51 -24 69 -48 14
-20 38 -46 52 -59 18 -16 22 -25 14 -28 -7 -3 -13 -10 -13 -16 0 -8 85 -9 278
-5 302 6 269 -3 -103 -26 -182 -12 -211 -12 -221 1 -9 12 -82 12 -556 -3 -300
-9 -553 -15 -563 -13 -9 1 127 60 303 131 306 122 323 127 374 121 30 -3 64
-1 78 5 14 6 41 8 60 5 19 -3 58 -7 87 -7z m-1154 -16 c6 -6 -68 -60 -179
-135 l-189 -125 -100 -2 c-99 -3 -100 -3 -115 24 -14 25 -13 30 2 57 l17 30
-38 16 c-47 18 -69 60 -51 93 6 12 8 26 5 31 -10 16 44 23 75 10 20 -8 45 -10
73 -5 23 4 60 7 82 6 74 -4 130 -3 167 4 20 4 52 2 70 -4 27 -9 43 -8 74 4 39
14 90 13 107 -4z m179 7 c31 -9 50 -9 89 1 40 11 59 11 95 1 35 -10 53 -10 89
0 36 10 54 10 89 0 36 -10 54 -10 94 0 46 12 102 8 102 -8 0 -4 -139 -62 -308
-129 l-307 -121 -212 -5 c-117 -2 -213 -3 -213 -1 0 3 360 242 395 262 26 15
39 15 87 0z m13046 -106 c-1 -5 -76 -79 -165 -166 l-163 -158 -38 31 c-58 45
-60 49 -63 146 l-4 89 210 32 c116 18 214 32 218 33 5 1 7 -3 5 -7z m-9011
-18 c9 -24 -12 -58 -62 -100 -41 -33 -49 -36 -66 -25 -29 17 -59 5 -59 -25 0
-20 -9 -29 -46 -45 -36 -17 -48 -18 -60 -8 -11 9 -18 9 -26 1 -17 -17 -63 -15
-78 3 -10 12 -10 21 -2 40 15 34 92 88 111 79 9 -4 32 -9 51 -11 42 -5 80 24
80 62 0 28 34 43 103 44 34 1 49 -3 54 -15z m-8647 -203 c294 -50 838 -141
1207 -203 370 -62 673 -115 673 -118 0 -3 -28 -16 -62 -29 -35 -13 -171 -67
-303 -119 l-240 -95 -987 -1 c-542 -1 -990 3 -995 7 -10 11 -10 568 0 619 l8
37 82 -4 c45 -3 323 -45 617 -94z m5732 4 c-40 -41 -74 -86 -78 -100 -8 -32
20 -65 77 -90 21 -10 39 -21 39 -25 0 -4 -21 -5 -47 -3 -62 5 -777 56 -1190
85 -178 12 -319 25 -315 29 4 4 86 38 182 77 l175 70 470 12 c259 6 484 12
500 14 17 2 81 4 144 4 l114 2 -71 -75z m-1268 35 c-5 -5 -83 -39 -172 -75
l-162 -65 -282 20 c-156 12 -287 22 -293 25 -5 2 81 4 191 3 l202 0 62 42 62
42 191 7 c106 5 196 9 202 9 5 1 5 -2 -1 -8z m-1306 -50 c71 -44 69 -151 -4
-209 -50 -39 -157 -21 -185 30 -37 70 -27 123 30 172 41 34 109 37 159 7z
m2930 -46 c82 -56 91 -69 71 -105 -10 -19 -15 -17 -111 33 -55 29 -103 58
-105 65 -7 19 24 63 45 63 9 0 54 -25 100 -56z m9750 -31 c26 -15 49 -28 51
-30 3 -2 -5 -13 -17 -26 -12 -13 -22 -36 -22 -51 0 -21 7 -30 35 -42 19 -7 47
-14 62 -14 50 0 200 -56 246 -92 17 -13 16 -17 -23 -70 -22 -31 -48 -59 -58
-62 -51 -16 -2378 -398 -2439 -400 l-72 -3 -15 66 c-41 181 -92 533 -80 552 3
5 22 9 43 9 20 0 41 4 47 10 9 9 219 27 1464 126 245 19 483 39 530 43 162 16
197 14 248 -16z m-7655 -44 c-8 -8 -6 -20 9 -45 19 -32 19 -36 3 -60 -21 -32
-40 -39 -70 -26 -21 10 -27 8 -40 -10 -14 -20 -13 -24 10 -48 14 -14 25 -34
25 -43 0 -22 -35 -57 -57 -57 -15 0 -13 4 7 20 l25 20 -40 0 c-22 0 -56 3 -76
6 l-36 6 -13 -51 c-35 -145 10 -304 88 -313 l27 -3 -29 -19 c-35 -24 -50 -16
-91 49 -54 88 -47 235 20 380 39 84 99 155 157 184 46 23 100 29 81 10z
m-4313 -9 c63 -5 491 -34 950 -65 779 -52 1116 -74 2165 -141 227 -14 414 -30
420 -36 7 -7 0 -17 -19 -32 -103 -75 -111 -83 -114 -108 -3 -21 10 -38 73 -94
41 -37 72 -71 68 -75 -5 -4 -44 -1 -88 7 -90 16 -867 110 -1475 179 -223 25
-540 61 -705 80 -269 31 -1169 130 -1399 154 -69 7 -93 14 -103 28 -21 27 -25
56 -14 86 10 25 15 27 68 27 32 0 110 -5 173 -10z m13708 -212 c9 -21 -53 -3
-177 54 -75 34 -140 66 -146 71 -6 5 6 22 34 46 l45 38 120 -100 c67 -55 123
-104 124 -109z m2359 199 c23 3 43 2 43 -3 1 -5 5 -81 10 -169 5 -88 6 -219 3
-292 l-6 -132 -61 1 c-60 0 -415 47 -1426 188 -278 39 -558 78 -623 87 -107
14 -121 19 -162 51 -25 19 -45 38 -45 41 0 4 98 17 218 30 445 46 990 102
1417 146 242 25 469 49 505 53 36 5 69 5 74 1 5 -5 29 -6 53 -2z m-11481 -144
c10 -36 -3 -56 -29 -48 -40 12 -52 10 -51 -6 1 -9 -6 -16 -15 -15 -10 1 -15
-6 -14 -20 2 -17 -2 -20 -26 -16 -27 4 -30 0 -49 -50 -27 -71 -42 -157 -42
-232 0 -77 8 -90 49 -81 17 4 31 4 31 1 0 -7 -76 -46 -89 -46 -19 0 -23 123
-7 215 19 112 76 232 148 310 l52 57 18 -24 c10 -12 21 -33 24 -45z m8896 -10
c57 -26 107 -50 111 -54 5 -3 -31 -10 -80 -14 -48 -3 -98 -9 -109 -12 -19 -4
-22 1 -28 44 -4 26 -9 56 -12 66 -8 25 5 22 118 -30z m-14318 -41 c16 -10 37
-33 47 -52 40 -75 14 -159 -63 -200 -89 -48 -114 -84 -124 -177 -5 -57 -5 -58
13 -37 10 12 28 27 40 33 12 6 27 27 34 46 10 26 23 38 53 51 139 55 427 79
596 50 52 -9 105 -23 117 -31 28 -19 28 -19 30 6 1 12 4 24 7 26 3 3 31 -20
63 -51 55 -53 57 -56 31 -56 -15 0 -30 4 -33 10 -3 5 -16 15 -28 21 -14 7 -7
-5 19 -32 67 -70 92 -137 62 -167 -19 -19 -51 -14 -170 28 -62 23 -124 39
-138 38 -24 -3 -25 -7 -31 -78 -5 -78 -14 -110 -30 -110 -6 0 -5 8 1 19 15 29
12 88 -6 122 -25 49 -4 84 59 99 l32 8 -34 1 c-26 1 -41 -7 -65 -32 -26 -28
-129 -190 -138 -218 -2 -5 -22 0 -45 12 -58 28 -98 19 -120 -27 -17 -36 -33
-45 -33 -19 0 56 -91 173 -156 200 -48 20 -79 19 -42 -1 64 -34 63 -82 -3
-146 l-52 -50 7 -94 c4 -58 3 -102 -4 -113 -11 -22 -56 -39 -114 -43 -37 -3
-40 -1 -48 31 -6 21 -5 44 1 64 28 79 6 185 -54 255 l-28 33 12 127 c20 223
69 375 137 430 64 51 134 60 198 24z m-981 -1 c4 -5 -1 -41 -11 -82 -17 -67
-23 -77 -60 -102 l-40 -27 -286 2 -286 3 283 112 c268 107 285 112 337 107 30
-3 59 -9 63 -13z m1857 -36 c206 -25 506 -61 665 -80 160 -19 479 -57 710 -85
231 -28 555 -66 720 -86 403 -46 618 -74 624 -80 11 -11 -39 -302 -85 -492
l-17 -73 -76 7 c-72 6 -217 35 -1011 204 -179 38 -527 112 -775 165 -247 52
-506 107 -575 122 l-125 27 -76 72 c-42 40 -74 75 -71 78 3 4 14 6 24 6 21 0
22 11 6 56 -9 27 -9 37 5 58 10 14 29 29 43 32 35 9 24 27 -22 36 -21 4 -128
23 -238 42 -109 19 -201 38 -205 42 -8 8 17 6 479 -51z m12798 -11 c-6 -5
-250 -53 -274 -54 -9 0 -9 -11 -3 -37 18 -80 23 -75 -143 -138 -84 -32 -184
-71 -222 -87 -38 -15 -71 -27 -73 -25 -2 3 119 190 153 235 1 2 60 13 130 24
71 11 134 27 140 34 10 12 283 65 293 57 2 -2 2 -6 -1 -9z m522 -36 c0 -7 16
-110 34 -228 30 -189 35 -235 23 -219 -180 246 -267 370 -267 381 1 35 36 59
100 67 96 12 110 12 110 -1z m279 -19 l234 -32 285 -236 c157 -130 328 -272
382 -316 54 -44 248 -204 431 -357 184 -152 422 -349 529 -438 107 -88 197
-166 199 -173 2 -7 18 -24 34 -38 l31 -26 -58 -104 c-53 -95 -198 -319 -245
-378 l-19 -25 -35 27 c-19 14 -36 24 -39 22 -4 -4 -134 95 -1088 835 -674 522
-611 468 -717 613 l-95 128 -39 250 c-42 268 -43 279 -31 279 4 0 112 -14 241
-31z m-15280 -20 c16 -15 21 -30 19 -52 l-3 -32 -92 -3 c-88 -3 -93 -2 -93 18
0 23 92 89 126 89 11 1 30 -8 43 -20z m14730 -10 c13 -24 11 -30 -39 -105 -29
-43 -56 -83 -61 -88 -4 -5 -27 6 -51 25 -24 18 -45 34 -47 36 -7 5 32 124 43
130 13 9 118 31 131 29 6 -2 16 -14 24 -27z m1476 -99 c281 -39 636 -88 790
-110 154 -22 365 -51 470 -65 104 -15 194 -30 200 -34 5 -5 27 -12 49 -15 l39
-7 -7 -77 c-12 -130 -78 -482 -95 -511 -6 -8 -17 -8 -43 3 -19 9 -38 13 -40
11 -3 -3 -94 36 -204 86 -109 50 -242 111 -294 134 -52 23 -180 82 -285 130
-245 112 -436 200 -828 378 -175 80 -321 148 -325 152 -4 4 9 5 28 2 19 -4
265 -38 545 -77z m-2386 46 c-8 -8 -92 -84 -187 -168 l-173 -154 -152 -58
c-508 -195 -1174 -450 -1371 -527 -126 -48 -232 -86 -236 -84 -4 3 -27 -2 -50
-10 -24 -8 -44 -14 -45 -13 -6 9 -79 186 -106 258 -36 98 -109 329 -109 348 0
6 11 12 24 12 14 0 37 5 53 12 29 13 2355 407 2362 401 3 -2 -2 -10 -10 -17z
m1040 -197 c49 -107 88 -196 86 -198 -3 -2 -240 178 -288 219 -5 4 17 46 49
94 31 47 59 85 61 83 1 -2 43 -91 92 -198z m-418 154 c26 -21 48 -42 49 -48 0
-13 -141 -437 -145 -433 -5 5 -97 470 -93 473 8 9 105 44 121 44 11 1 41 -16
68 -36z m1379 -49 c91 -42 208 -95 260 -119 52 -23 255 -116 450 -205 195 -90
402 -184 460 -210 58 -26 191 -87 295 -135 105 -48 209 -96 233 -107 23 -10
42 -23 42 -28 0 -5 16 -14 35 -21 19 -7 35 -17 35 -22 0 -19 -53 -178 -61
-183 -9 -5 -87 41 -104 61 -15 19 -88 65 -102 65 -19 0 -53 -42 -53 -66 0 -24
36 -50 143 -103 37 -19 72 -40 77 -46 8 -9 -3 -44 -36 -121 -68 -160 -60 -150
-97 -121 -18 13 -40 26 -49 30 -9 3 -138 106 -285 228 -147 123 -317 264 -378
314 -100 83 -538 446 -892 739 -127 104 -151 126 -140 126 1 0 77 -34 167 -76z
m-16170 37 c0 -5 -17 -20 -37 -32 -49 -30 -568 -352 -933 -579 -157 -97 -406
-253 -555 -345 -148 -92 -341 -212 -429 -267 -87 -54 -161 -97 -163 -94 -3 3
-23 -6 -45 -20 -22 -14 -42 -24 -44 -22 -33 33 -244 563 -244 613 0 2 16 9 35
15 19 6 41 18 49 25 13 13 134 63 651 265 254 100 857 338 995 393 l105 42
300 5 c165 3 303 7 308 8 4 1 7 -2 7 -7z m154 -348 c21 -80 51 -150 82 -190
l24 -32 -92 -64 c-129 -88 -446 -305 -613 -419 -188 -127 -905 -617 -1082
-739 -127 -87 -160 -108 -228 -142 -11 -6 -30 -16 -42 -24 -21 -14 -25 -11
-91 79 -80 108 -191 280 -251 390 l-42 77 40 23 c23 13 41 28 41 33 0 6 98 70
218 144 119 74 471 293 782 486 311 193 630 392 710 442 80 49 213 132 295
183 83 52 166 96 185 100 l35 5 6 -145 c4 -84 13 -171 23 -207z m201 347 c3
-5 15 -10 26 -10 10 0 29 -10 40 -21 18 -18 20 -29 15 -65 -6 -43 -5 -44 24
-44 35 0 70 -31 70 -62 0 -13 -23 -75 -50 -138 -50 -113 -52 -116 -117 -159
l-65 -45 -19 25 c-31 41 -62 110 -81 183 -19 72 -36 300 -25 330 5 13 23 16
91 16 47 0 88 -4 91 -10z m-1061 -8 c-5 -5 -148 -63 -319 -130 -170 -67 -528
-207 -795 -313 -267 -105 -498 -195 -515 -199 -66 -18 -111 -32 -121 -36 -19
-8 -84 284 -113 501 -6 44 -13 97 -16 118 l-5 37 48 0 c26 0 52 4 58 10 6 6
245 11 654 13 355 1 755 3 889 5 135 1 241 -2 235 -6z m15327 -247 c26 -132
48 -250 48 -263 1 -24 -1270 -1906 -1318 -1952 -15 -14 -34 -36 -43 -49 l-17
-24 -120 88 c-126 92 -347 278 -364 306 -8 12 -5 24 11 47 12 16 22 36 22 44
0 8 278 430 618 938 l617 925 100 39 c55 21 161 62 235 91 74 29 141 52 149
52 11 -2 27 -65 62 -242z m329 134 c0 -4 -45 -74 -100 -155 -55 -81 -100 -143
-100 -138 0 8 96 300 115 352 3 9 17 4 45 -19 22 -18 40 -36 40 -40z m378
-107 c76 -104 103 -149 108 -180 4 -23 3 -42 -2 -42 -5 1 -26 15 -46 33 -32
28 -87 133 -165 315 -14 33 13 1 105 -126z m-10375 83 c57 -8 56 2 22 -204
-71 -415 -195 -787 -388 -1164 l-71 -138 -33 6 c-23 4 -45 -1 -73 -15 -23 -12
-54 -20 -70 -18 l-28 3 55 95 c225 384 404 902 463 1340 15 112 14 110 47 105
15 -2 49 -7 76 -10z m10207 -130 l168 -130 81 -177 c88 -194 81 -164 150 -618
59 -386 222 -1438 242 -1560 11 -69 21 -156 21 -195 l2 -70 -50 -12 c-132 -34
-521 -82 -544 -68 -4 3 -11 20 -14 39 -4 19 -10 36 -15 38 -4 2 -52 228 -105
503 -54 275 -124 633 -156 795 -155 784 -230 1168 -230 1181 0 18 263 409 273
406 5 -1 84 -61 177 -132z m-12990 -15 c111 -103 147 -140 137 -140 -3 0 -55
23 -114 50 -59 28 -114 48 -122 45 -23 -9 -7 -18 164 -96 l160 -73 355 -341
c195 -187 491 -470 657 -629 l303 -290 -41 -24 c-34 -20 -49 -23 -88 -18 -36
5 -55 2 -86 -15 -32 -17 -49 -20 -94 -15 -47 5 -62 3 -91 -15 -27 -17 -45 -20
-86 -16 -38 4 -62 0 -94 -14 -52 -23 -42 -31 -142 116 -292 431 -868 1295
-868 1301 0 4 -12 27 -26 51 l-25 44 -36 -32 c-45 -39 -83 -55 -148 -63 l-50
-6 51 19 c77 29 109 47 138 81 32 39 35 99 6 153 l-20 37 27 -6 c16 -4 75 -51
133 -104z m142 46 c90 -19 345 -73 568 -121 223 -47 488 -104 590 -125 102
-22 282 -60 400 -85 118 -25 311 -66 429 -91 118 -25 224 -52 235 -60 11 -8
30 -14 41 -14 45 0 51 -14 31 -77 -35 -114 -117 -323 -171 -438 l-54 -116 -40
21 c-22 11 -49 20 -59 20 -11 0 -64 21 -118 46 -55 25 -175 81 -269 124 -264
120 -750 343 -965 442 -107 49 -265 122 -350 160 -85 39 -166 80 -180 90 -43
34 -269 258 -259 258 5 0 82 -15 171 -34z m3383 13 c74 -7 140 -18 153 -26 32
-20 29 -62 -7 -93 -24 -20 -28 -29 -20 -47 6 -17 17 -23 37 -23 54 0 74 -63
33 -102 -13 -11 -20 -27 -17 -35 3 -8 6 -19 6 -24 0 -5 18 -9 40 -9 64 0 86
-51 43 -102 -11 -13 -12 -21 -3 -38 9 -17 17 -20 46 -14 60 11 95 -43 60 -92
-13 -16 -12 -21 1 -36 12 -13 25 -16 57 -12 34 5 45 2 60 -15 16 -18 18 -26 9
-56 -9 -28 -8 -36 7 -50 15 -14 20 -14 53 0 30 12 41 13 57 3 24 -16 34 -41
25 -68 -13 -41 38 -67 65 -35 16 20 54 19 74 -1 9 -8 16 -31 16 -50 0 -27 5
-35 24 -40 17 -4 31 1 45 15 39 39 101 18 101 -35 0 -16 8 -28 23 -34 18 -7
13 -9 -25 -9 -27 -1 -64 -10 -87 -22 -31 -16 -49 -19 -85 -14 -37 6 -53 3 -83
-15 -31 -18 -47 -21 -91 -16 -42 5 -61 2 -94 -15 -33 -17 -51 -20 -89 -15 -38
5 -57 2 -88 -14 -28 -14 -57 -19 -99 -18 -42 1 -68 -4 -86 -15 -17 -12 -46
-17 -90 -17 -48 0 -74 -5 -101 -21 -28 -17 -44 -20 -80 -15 -34 6 -53 2 -86
-14 -34 -18 -52 -21 -93 -16 -41 5 -59 2 -91 -15 -32 -17 -49 -20 -92 -15 -32
4 -62 2 -74 -5 -27 -14 -35 -5 -21 26 15 32 54 48 86 35 22 -8 26 -5 40 31
l16 40 -30 25 c-58 49 -27 129 48 122 34 -3 37 0 50 34 14 37 14 38 -17 64
-56 47 -33 124 39 124 34 0 39 4 49 31 15 43 14 59 -3 59 -19 0 -56 48 -56 72
0 31 45 68 83 68 32 0 35 3 41 35 8 39 2 55 -19 55 -20 0 -45 40 -45 71 0 35
45 72 78 66 25 -5 27 -2 36 51 5 28 2 34 -18 42 -27 10 -56 47 -56 71 0 28 33
60 70 68 33 6 35 10 38 49 2 30 -1 42 -11 42 -7 0 -22 7 -33 16 -18 14 -17 15
16 10 19 -3 94 -11 165 -17z m8317 -4 c-38 -70 -1199 -1795 -1207 -1795 -6 0
-19 -13 -28 -30 -10 -16 -21 -30 -25 -30 -21 0 -243 246 -346 383 l-58 77 33
40 c30 34 512 469 1228 1107 209 186 219 193 306 227 103 40 109 42 97 21z
m-7884 -112 c9 -58 13 -65 33 -60 15 4 25 -5 45 -39 26 -44 26 -45 8 -65 -21
-24 -9 -54 22 -54 35 0 42 -108 8 -135 -19 -16 -55 7 -93 61 -27 37 -28 42
-15 67 8 15 14 35 14 44 0 25 -41 67 -69 71 -28 4 -49 49 -50 109 -1 50 23 64
64 38 17 -11 31 -27 33 -37z m7572 -16 c-200 -184 -1307 -1162 -1318 -1163 -8
-2 -27 -15 -42 -29 l-28 -27 -49 74 c-78 114 -169 271 -228 389 l-54 108 37
11 c20 7 42 18 47 25 6 7 136 61 290 120 154 59 318 122 365 140 47 18 263
101 480 184 217 84 422 163 455 176 79 32 87 31 45 -8z m-12937 -9 c9 -11 17
-28 17 -37 0 -9 -34 -50 -76 -91 -43 -43 -74 -66 -70 -55 3 11 15 61 27 110
11 50 23 94 26 98 8 14 57 -2 76 -25z m-113 10 c0 -7 -14 -67 -30 -133 -26
-103 -34 -124 -64 -153 l-34 -34 -48 16 c-27 9 -58 23 -68 31 -19 14 -19 16 8
77 36 85 30 78 130 147 93 63 106 69 106 49z m198 -95 c24 -47 35 -119 24
-158 -8 -28 -11 -29 -68 -31 -79 -1 -140 -19 -147 -43 -3 -14 -11 -17 -31 -14
-19 4 -25 10 -22 20 3 8 6 22 6 30 0 13 205 233 217 233 1 0 11 -17 21 -37z
m7777 -22 c18 -7 17 -8 -5 -14 -14 -3 -49 -9 -77 -13 -40 -5 -77 -21 -150 -67
-271 -166 -307 -181 -418 -172 -92 7 -235 36 -291 60 -38 16 -39 16 -109 -19
-38 -19 -99 -54 -135 -77 -122 -79 -227 -129 -273 -129 -83 0 -209 82 -236
153 -14 35 -8 34 43 -8 97 -79 203 -99 299 -57 26 12 97 51 157 87 116 70 175
95 222 95 16 0 84 -18 151 -41 109 -37 129 -41 197 -37 92 5 146 29 285 129
134 96 184 119 260 118 33 0 69 -4 80 -8z m6944 -114 c55 -44 158 -180 702
-926 351 -481 636 -878 633 -882 -2 -4 8 -22 23 -40 l27 -32 -38 -33 c-84 -72
-421 -284 -452 -284 -7 0 -15 11 -18 25 -3 13 -14 32 -24 42 -10 10 -66 124
-124 253 -59 129 -258 568 -443 975 -311 686 -337 747 -350 830 -17 102 -18
125 -7 125 4 0 36 -24 71 -53z m-13327 -112 c143 -212 783 -1168 792 -1184 7
-10 3 -12 -12 -6 -13 4 -40 -2 -69 -15 -33 -15 -66 -22 -105 -21 -40 1 -68 -4
-95 -19 -29 -16 -48 -18 -89 -14 -44 6 -59 3 -89 -16 -30 -18 -46 -22 -85 -17
-36 4 -56 1 -84 -14 -20 -10 -55 -19 -80 -19 -43 0 -44 1 -85 66 -30 47 -39
70 -32 77 16 16 13 35 -10 67 -21 28 -21 30 -4 56 14 22 15 30 4 50 -7 14 -21
24 -34 24 -30 0 -49 24 -41 54 4 16 0 32 -12 47 -16 19 -22 21 -49 11 -17 -6
-33 -9 -35 -6 -2 2 -1 36 4 76 16 151 98 944 98 953 0 14 10 0 112 -150z m478
52 c113 -52 340 -157 505 -232 165 -76 383 -176 485 -222 102 -47 264 -122
360 -166 96 -44 183 -88 192 -98 9 -9 33 -22 53 -29 19 -6 35 -16 35 -20 0 -8
-101 -187 -151 -268 -12 -21 -19 -23 -65 -19 -37 4 -62 0 -94 -14 -29 -13 -61
-19 -100 -17 -38 1 -65 -3 -81 -13 -31 -20 -70 -29 -90 -21 -9 4 -268 248
-575 542 -649 620 -714 684 -694 677 8 -3 107 -48 220 -100z m-1372 16 l51
-78 3 -193 c2 -105 0 -192 -3 -192 -4 0 -21 42 -39 93 -18 50 -50 136 -70 189
l-37 98 16 80 c8 44 18 80 22 80 3 0 29 -35 57 -77z m129 -6 c-5 -34 14 -51
50 -44 37 7 71 -8 85 -38 15 -32 46 -32 58 0 8 21 16 25 50 25 51 0 80 -15 80
-40 0 -10 5 -22 10 -25 7 -4 4 -19 -10 -41 -14 -25 -20 -53 -20 -97 0 -45 -6
-70 -20 -92 -14 -22 -20 -47 -20 -92 0 -34 -4 -64 -9 -68 -5 -3 -40 42 -78
100 -37 58 -103 159 -145 224 -70 107 -77 124 -83 180 -7 77 0 89 32 59 18
-16 23 -31 20 -51z m-1184 -110 c-25 -56 -64 -143 -87 -194 l-41 -92 -694
-700 c-381 -386 -698 -701 -704 -701 -6 0 -26 -14 -43 -31 l-33 -32 -58 51
c-72 63 -279 274 -358 366 l-60 69 25 16 c14 9 36 28 50 42 27 28 51 44 530
371 667 454 1043 711 1245 850 l210 145 31 -30 32 -29 -45 -101z m911 81 l18
-53 -40 -195 c-292 -1437 -478 -2328 -488 -2340 -6 -8 -15 -34 -19 -57 -6 -40
-9 -43 -39 -43 -48 0 -307 47 -436 80 -160 40 -196 53 -191 71 1 7 5 39 7 69
2 30 131 579 287 1220 l283 1165 35 5 c30 4 35 2 46 -22 11 -27 15 -28 81 -28
55 0 75 4 95 20 17 13 58 26 113 35 98 16 131 37 136 89 2 24 11 35 38 48 42
20 48 15 74 -64z m13557 -299 c223 -1122 396 -2032 397 -2083 l1 -59 -162 6
c-270 11 -575 65 -827 145 -190 61 -212 71 -204 94 3 11 7 34 8 51 3 31 40
147 295 932 65 198 185 566 266 817 82 252 151 456 152 454 2 -2 35 -163 74
-357z m-325 -309 c-112 -344 -268 -823 -347 -1065 -78 -242 -148 -444 -155
-450 -6 -5 -14 -22 -18 -37 -4 -18 -13 -28 -25 -28 -24 0 -363 171 -463 234
-43 26 -78 53 -78 58 0 5 9 22 20 38 11 15 17 30 14 33 -3 3 155 241 351 529
196 287 479 703 628 924 150 221 273 398 275 395 1 -4 -90 -288 -202 -631z
m-14009 582 l53 -27 -125 -125 c-69 -69 -125 -122 -125 -119 0 3 29 70 65 149
36 79 65 145 65 147 0 7 18 0 67 -25z m6008 -12 c17 -18 17 -43 1 -80 -4 -9 2
-20 15 -28 18 -12 24 -11 43 7 45 42 92 16 98 -54 4 -49 29 -59 59 -21 37 47
99 26 104 -35 2 -28 7 -35 26 -37 18 -2 28 5 40 26 9 16 26 31 38 35 17 4 24
-2 39 -36 11 -23 29 -51 41 -61 11 -11 21 -22 21 -27 0 -4 -21 -14 -47 -23
-163 -56 -449 54 -517 199 -21 43 -32 115 -23 140 9 21 40 19 62 -5z m10209
-715 c377 -291 685 -534 685 -539 1 -5 15 -21 33 -36 30 -26 31 -27 15 -50
-37 -52 -204 -232 -275 -297 -117 -104 -107 -99 -132 -58 -12 19 -27 35 -33
35 -10 1 -1195 1615 -1206 1643 -4 12 -16 21 913 -698z m-16087 681 c1 -1 -22
-101 -51 -222 -30 -120 -159 -651 -287 -1179 -128 -528 -238 -966 -245 -972
-7 -7 -15 -31 -19 -53 -4 -22 -8 -40 -10 -40 -2 0 -74 27 -159 59 -181 70
-436 189 -436 205 1 6 7 22 15 36 8 14 14 35 15 46 0 12 67 170 149 350 273
605 482 1067 568 1259 l86 190 166 167 c134 136 170 167 186 162 11 -4 21 -7
22 -8z m1012 -235 l132 -203 3 -69 c3 -53 -1 -77 -15 -104 -12 -22 -19 -55
-19 -92 0 -40 -6 -68 -20 -91 -14 -23 -20 -50 -20 -92 0 -33 -3 -60 -7 -60 -5
0 -50 112 -100 248 l-93 249 0 213 c0 117 2 211 4 209 2 -2 63 -96 135 -208z
m-236 -36 l74 -200 7 -480 c9 -647 15 -1031 22 -1327 3 -145 2 -248 -4 -252
-5 -3 -7 -26 -5 -50 5 -43 3 -46 -24 -53 -37 -10 -574 -10 -634 0 l-47 8 10
41 c5 23 7 47 4 55 -3 7 31 187 75 400 44 214 88 431 99 483 10 52 46 228 80
390 34 162 81 392 105 510 76 376 136 664 142 689 6 23 7 23 14 5 4 -10 41
-109 82 -219z m14357 -185 c175 -387 574 -1266 641 -1413 27 -59 49 -117 49
-128 0 -11 7 -33 15 -50 l16 -29 -48 -21 c-165 -71 -438 -169 -473 -169 -5 0
-10 7 -10 16 0 9 -7 30 -14 47 -8 18 -24 95 -35 172 -11 77 -43 286 -71 465
-117 751 -220 1419 -220 1426 0 14 10 -6 150 -316z m-13812 -83 l-3 -112 -34
49 c-30 44 -33 52 -23 82 5 19 8 52 5 74 -4 29 0 48 16 75 15 27 21 53 21 99
0 34 3 66 8 70 8 9 14 -176 10 -337z m-1837 -28 c-43 -96 -143 -316 -221 -489
-78 -173 -187 -414 -242 -535 -55 -121 -127 -281 -160 -355 -32 -74 -66 -140
-74 -146 -7 -6 -21 -27 -29 -48 -8 -20 -18 -36 -22 -36 -36 0 -553 355 -553
379 0 4 12 18 26 32 14 13 29 31 33 40 7 18 1313 1341 1318 1335 2 -2 -32 -82
-76 -177z m1483 -216 c47 -126 73 -209 69 -223 -4 -16 10 -88 22 -108 3 -4
110 35 146 53 19 9 49 31 68 49 22 21 30 24 23 11 -27 -53 -85 -85 -249 -139
-62 -21 -123 -46 -137 -57 l-25 -20 -1 310 c0 171 -3 319 -7 328 -4 13 -3 15
5 8 6 -5 44 -101 86 -212z m316 131 c37 -59 41 -70 38 -122 l-3 -57 -50 0
c-49 0 -50 -1 -53 -31 -2 -17 -14 -42 -28 -55 -26 -25 -32 -15 -9 15 9 13 15
43 15 80 0 44 6 70 21 96 17 27 20 45 17 87 -3 29 -1 53 3 53 4 0 26 -29 49
-66z m2248 -439 c5 -5 -29 -57 -72 -110 l-24 -30 -34 33 c-19 17 -38 32 -43
32 -10 0 -55 40 -55 50 0 3 15 4 33 2 22 -2 45 3 68 18 27 16 44 20 78 16 25
-4 47 -8 49 -11z m-236 -62 c21 -20 38 -42 38 -48 0 -6 14 -24 30 -40 17 -16
29 -35 28 -41 -9 -37 -423 -464 -449 -464 -5 0 -21 18 -35 40 -15 22 -31 40
-35 40 -5 0 -72 95 -149 210 -130 195 -138 210 -115 210 14 0 44 9 66 21 33
16 51 19 94 14 46 -6 60 -4 90 15 30 19 44 21 91 15 45 -5 60 -3 88 14 25 16
50 21 98 21 41 0 71 5 84 15 28 21 34 19 76 -22z m-2392 -108 c0 -23 34 -35
122 -45 78 -9 84 -12 125 -52 24 -23 43 -46 43 -50 0 -4 83 -222 185 -484 102
-263 185 -488 185 -500 0 -12 7 -38 15 -58 15 -36 15 -36 -10 -46 -115 -44
-618 -140 -637 -122 -3 4 -11 72 -17 152 -14 173 -29 1230 -18 1223 4 -2 7
-11 7 -18z m1788 -199 c84 -124 152 -231 152 -238 0 -7 12 -31 26 -52 31 -45
46 -26 -112 -147 -144 -110 -405 -279 -431 -279 -5 0 -17 14 -27 30 -9 17 -28
41 -41 53 -37 35 -467 706 -460 718 5 6 27 8 61 4 44 -6 59 -4 87 14 26 16 51
21 98 21 44 0 72 5 88 17 18 12 42 16 89 15 50 -2 72 3 98 19 28 17 43 20 83
14 39 -5 57 -2 87 14 22 11 42 20 45 21 3 0 74 -101 157 -224z m-696 -292
c125 -192 227 -356 228 -364 0 -9 11 -32 25 -53 l26 -37 -33 -20 c-97 -59
-536 -240 -582 -240 -7 0 -21 19 -31 42 -9 24 -21 45 -26 48 -5 4 -41 89 -80
190 -150 388 -258 667 -278 719 l-22 54 23 -9 c13 -4 86 -8 163 -9 111 -1 148
2 177 15 26 12 61 16 110 15 l73 -3 227 -348z"/>
<path d="M5864 6594 c-73 -44 -142 -79 -173 -87 -40 -9 -50 -15 -45 -29 7 -23
-18 -80 -63 -142 -20 -28 -28 -44 -18 -35 169 137 437 369 428 369 -5 -1 -63
-35 -129 -76z"/>
<path d="M5136 6059 c-36 -56 -66 -106 -66 -111 0 -21 34 -21 51 1 22 26 78
51 118 51 26 0 31 5 40 38 19 65 14 90 -19 107 -16 8 -35 15 -43 15 -8 0 -45
-46 -81 -101z"/>
<path d="M4930 5387 c-41 -14 -80 -67 -80 -109 0 -44 29 -97 61 -113 68 -36
153 -2 178 71 13 37 12 44 -5 79 -32 66 -91 93 -154 72z m99 -22 c80 -41 58
-186 -28 -185 -22 1 -24 2 -8 11 27 16 20 25 -15 21 -40 -4 -74 18 -65 42 4 9
16 16 27 16 17 0 20 -4 15 -20 -5 -16 -2 -20 19 -20 32 0 51 32 36 60 -11 21
-64 28 -75 10 -9 -15 -25 -12 -25 5 0 7 -7 18 -16 23 -14 8 -12 12 11 30 32
26 83 28 124 7z"/>
<path d="M5367 4899 c-87 -9 -196 -32 -229 -50 -17 -9 -17 -11 3 -32 11 -12
32 -41 46 -64 24 -42 25 -42 45 -24 33 31 74 33 140 6 13 -5 22 4 42 42 13 26
36 63 50 82 14 19 26 39 26 43 0 9 2 9 -123 -3z"/>
<path d="M6884 2715 c-31 -13 -44 -32 -44 -63 0 -20 62 -109 88 -128 11 -7 37
-40 58 -74 22 -33 42 -60 45 -60 3 0 14 9 24 20 17 19 16 21 -30 85 -30 43
-44 70 -38 76 7 7 27 -15 58 -60 44 -65 65 -85 65 -63 0 5 -20 37 -45 73 -25
35 -45 70 -45 78 0 18 -67 109 -89 120 -10 6 -28 4 -47 -4z"/>
<path d="M14451 20213 c-12 -10 -24 -35 -28 -56 -5 -35 -3 -40 51 -91 36 -35
56 -62 56 -78 0 -22 4 -23 79 -26 73 -2 80 -1 86 18 14 43 -66 114 -155 139
-25 7 -51 18 -57 23 -18 15 -16 48 4 70 14 16 14 18 1 18 -9 0 -25 -8 -37 -17z"/>
<path d="M14540 17695 c74 -77 227 -231 340 -342 l205 -202 -122 54 c-67 30
-136 61 -153 70 -61 32 -27 5 71 -55 271 -167 440 -331 797 -777 75 -94 155
-195 177 -223 22 -29 45 -57 50 -64 6 -6 26 -31 45 -56 19 -25 40 -52 47 -60
7 -8 39 -47 70 -87 32 -39 105 -124 163 -188 58 -64 114 -129 125 -145 11 -15
79 -96 152 -181 139 -163 259 -287 268 -277 6 5 -96 129 -286 348 -227 261
-425 493 -449 525 -14 18 -52 65 -85 106 -33 40 -125 154 -205 253 -80 100
-220 273 -310 385 -91 112 -196 242 -234 290 -66 81 -246 267 -381 391 -170
158 -295 269 -380 341 -22 18 21 -30 95 -106z"/>
<path d="M13220 16096 c0 -10 257 -329 336 -415 143 -159 216 -276 411 -659
210 -413 299 -556 602 -967 220 -299 464 -605 482 -605 5 0 -17 33 -49 73
-186 230 -467 634 -722 1037 -162 257 -254 418 -350 610 -93 186 -159 291
-251 400 -35 42 -143 170 -240 285 -168 201 -219 256 -219 241z"/>
<path d="M16659 13587 c-102 -97 -151 -172 -157 -240 -3 -46 0 -58 30 -101 46
-69 101 -96 193 -95 l70 1 -49 13 c-117 32 -174 128 -146 245 14 58 49 100 83
100 29 0 43 -14 53 -54 7 -31 148 -186 168 -186 15 1 149 92 153 105 1 6 -12
19 -30 31 -17 12 -88 72 -156 135 -68 63 -126 115 -130 116 -3 2 -40 -30 -82
-70z"/>
<path d="M17914 13644 c-30 -21 -159 -43 -292 -50 -65 -3 -130 -7 -147 -9 -16
-1 -51 -3 -77 -4 -79 -2 -57 -44 41 -82 61 -23 249 -36 354 -25 54 6 76 14
109 39 58 44 84 91 70 123 -13 27 -28 29 -58 8z"/>
<path d="M17311 13421 c-44 -50 -95 -91 -181 -147 l-121 -77 28 -17 c16 -9 60
-34 98 -55 89 -49 154 -101 166 -133 l10 -25 34 33 c51 49 46 70 -30 149 -36
37 -65 75 -65 84 0 9 32 44 71 79 89 80 116 120 100 154 -18 39 -44 29 -110
-45z"/>
<path d="M17326 13297 c-31 -29 -56 -58 -56 -65 0 -7 27 -38 60 -69 33 -31 60
-62 60 -69 0 -26 17 -14 58 42 61 82 56 118 -26 183 l-39 30 -57 -52z"/>
<path d="M16870 12584 c-182 -125 -388 -236 -596 -324 -54 -24 -103 -46 -107
-50 -5 -4 2 -37 15 -74 27 -79 38 -82 118 -33 49 29 150 140 139 152 -3 2 -46
-9 -97 -25 -104 -34 -152 -39 -78 -9 97 40 337 158 423 210 149 89 322 221
287 218 -5 0 -52 -29 -104 -65z"/>
<path d="M14637 11962 c-7 -9 -16 -24 -20 -33 -5 -16 -113 -56 -124 -46 -3 3
11 13 32 21 20 9 34 20 30 26 -11 18 -40 11 -65 -19 -20 -23 -58 -39 -205 -85
-280 -89 -764 -245 -825 -266 -30 -10 -175 -58 -322 -105 -148 -48 -268 -91
-268 -97 0 -5 6 -8 13 -5 6 2 307 99 667 215 360 116 718 231 794 256 132 43
156 47 156 26 0 -10 46 5 -1298 -430 -172 -55 -310 -105 -307 -109 2 -5 64 10
137 34 73 23 419 135 768 248 349 113 668 215 708 226 63 19 72 25 72 45 0 13
7 27 16 30 22 9 22 8 26 -16 2 -19 10 -24 41 -26 33 -3 37 -1 37 20 0 38 -19
96 -34 101 -8 3 -21 -2 -29 -11z"/>
<path d="M14660 11818 c-23 -9 -518 -170 -1430 -465 -179 -58 -332 -109 -340
-114 -40 -23 34 -4 222 57 112 36 266 85 343 110 77 25 149 49 160 54 11 5 43
15 70 24 56 17 597 191 835 268 85 28 162 57 170 65 17 15 5 16 -30 1z"/>
<path d="M16995 11070 c-64 -10 -126 -27 -145 -41 -16 -11 -10 -11 137 13 101
16 110 10 157 -101 41 -98 57 -112 109 -92 19 7 27 18 27 34 0 43 -31 115 -65
150 -45 47 -97 55 -220 37z"/>
<path d="M7435 8785 l-239 -195 -60 0 c-34 0 -68 -5 -76 -10 -13 -9 -12 -13 9
-30 30 -26 51 -25 51 1 0 19 4 20 33 15 27 -5 42 0 78 23 37 26 375 314 434
372 53 52 -13 2 -230 -176z"/>
<path d="M10285 6829 c5 -13 1 -25 -9 -32 -15 -11 -15 -17 2 -67 14 -41 24
-56 40 -58 31 -5 28 -32 -3 -32 -14 0 -37 -11 -51 -25 -23 -23 -25 -31 -22
-107 l3 -83 48 2 c27 1 51 4 55 7 3 4 -5 42 -18 86 -12 45 -20 84 -16 87 14
14 100 42 107 35 3 -4 16 -43 28 -88 25 -88 36 -112 47 -101 4 3 -7 50 -24
104 -31 97 -31 98 -12 118 11 12 20 30 20 41 -1 26 -33 96 -52 112 -10 8 -7
-4 8 -35 41 -81 30 -118 -40 -130 -27 -4 -37 -2 -42 11 -3 9 -15 16 -25 16
-19 0 -31 21 -45 75 -5 19 -2 25 10 25 17 0 20 17 10 44 -9 24 -26 19 -19 -5z"/>
<path d="M10395 6321 c-162 -49 -269 -94 -355 -152 -87 -59 -235 -187 -226
-196 3 -3 28 15 56 41 163 146 330 232 574 295 39 10 72 23 74 30 5 16 -22 12
-123 -18z"/>
</g>
</svg>
